<svg width="57" height="56" viewBox="0 0 57 56" fill="none" xmlns="http://www.w3.org/2000/svg">
<path d="M56.5 0H0.5V56H56.5V0Z" fill="url(#paint0_linear_154_694)"/>
<path fill-rule="evenodd" clip-rule="evenodd" d="M36.9602 38.3952C34.6236 40.2843 29.7215 41.2827 25.0308 41.2827C20.3394 41.2827 15.4359 40.2836 13.1 38.3945V42.1992C13.1 44.0966 18 46.2114 25.0308 46.2114C32.056 46.2114 36.9525 44.0994 36.9602 42.2033V38.3952ZM36.9609 31.1656L38.3609 31.158V31.1656C38.3609 32.0112 37.9374 32.8006 37.1128 33.5234C38.1124 34.403 38.3609 35.266 38.3609 35.8805C38.3609 35.8846 38.3602 35.8881 38.3602 35.8923V42.1992C38.3602 45.7067 31.4925 47.6 25.0308 47.6C18.5845 47.6 11.735 45.715 11.7021 42.2235C11.7021 42.22 11.7 42.2165 11.7 42.213V35.8784C11.7 35.8784 11.7014 35.8749 11.7014 35.8728C11.7035 35.2584 11.9527 34.3989 12.9509 33.5213C11.959 32.6451 11.707 31.7904 11.7007 31.1809H11.7014C11.7014 31.1781 11.7 31.176 11.7 31.1732V24.8386C11.7 24.8365 11.7014 24.8344 11.7014 24.8323C11.7035 24.2179 11.9534 23.3584 12.9516 22.4822C11.959 21.6053 11.707 20.7499 11.7007 20.141H11.7014C11.7014 20.1383 11.7 20.1355 11.7 20.1327V13.7988C11.7 13.7967 11.7014 13.7946 11.7014 13.7925C11.7133 10.2898 18.574 8.4 25.0308 8.4C28.6785 8.4 32.1827 8.97973 34.6446 9.99061L34.1091 11.2736C31.811 10.3301 28.5021 9.78857 25.0308 9.78857C18 9.78857 13.1007 11.9034 13.1007 13.8022C13.1007 15.7004 18 17.8152 25.0308 17.8152C25.2205 17.8173 25.406 17.8152 25.5936 17.8083L25.6524 19.1954C25.4452 19.2038 25.238 19.2038 25.0308 19.2038C20.3394 19.2038 15.4359 18.2047 13.1 16.3155V20.1181L13.1007 20.1341C13.1077 20.8624 13.8546 21.4984 14.4804 21.9024C16.3634 23.1029 19.7374 23.9228 23.4999 24.0929L23.4362 25.4801C19.6247 25.3072 16.2871 24.5164 14.1388 23.3042C13.6096 23.6999 13.1007 24.2352 13.1007 24.842C13.1007 26.7402 18 28.855 25.0308 28.855C25.7203 28.855 26.4049 28.8321 27.0664 28.7863L27.1637 30.1714C26.4707 30.2193 25.7525 30.2436 25.0308 30.2436C20.3394 30.2436 15.4359 29.2445 13.1 27.3554V31.158C13.107 31.9022 13.8546 32.5375 14.4804 32.9423C16.6336 34.3163 20.6768 35.1716 25.0308 35.1716H25.3388V36.5602H25.0308C20.6075 36.5602 16.5874 35.7388 14.129 34.351C13.6026 34.746 13.1007 35.2785 13.1007 35.8805C13.1007 37.7786 18 39.8941 25.0308 39.8941C32.056 39.8941 36.9525 37.7821 36.9602 35.8853V35.8784C36.9588 35.2751 36.4548 34.7418 35.927 34.3468C35.5854 34.5405 35.2193 34.7273 34.8028 34.8988L34.2666 33.6157C34.7748 33.4067 35.2158 33.1811 35.5777 32.9437C36.2091 32.5319 36.9609 31.8883 36.9609 31.1656ZM42.9571 21.0117H39.0343C38.8026 21.0117 38.5849 20.8978 38.4554 20.7076C38.3245 20.5173 38.2979 20.275 38.3833 20.0619L40.7696 14.0966H31.7333L27.5333 22.428H32.0007C32.224 22.428 32.434 22.5342 32.5663 22.7127C32.6972 22.8918 32.7357 23.1216 32.6678 23.3334L28.6806 35.7624L42.9571 21.0117ZM45.1054 20.7985L27.6061 38.8777C27.4696 39.0179 27.2862 39.0908 27.1007 39.0908C26.9775 39.0908 26.8536 39.0596 26.743 38.9936C26.463 38.8284 26.3349 38.4945 26.4336 38.1862L31.0438 23.8166H26.4007C26.1578 23.8166 25.9331 23.6923 25.805 23.4875C25.6776 23.2827 25.6657 23.0272 25.7749 22.812L30.6749 13.092C30.7932 12.8566 31.0354 12.708 31.3007 12.708H41.8007C42.0324 12.708 42.2501 12.8226 42.3796 13.0121C42.5105 13.2031 42.5371 13.4447 42.4517 13.6585L40.0654 19.6231H44.6C44.88 19.6231 45.1341 19.7897 45.244 20.0452C45.3539 20.3014 45.2993 20.5979 45.1054 20.7985ZM14.1185 42.472C15.1104 43.0309 16.3592 43.5009 17.8299 43.8675L18.1715 42.5206C16.8422 42.1894 15.6802 41.7548 14.8101 41.2647L14.1185 42.472ZM17.8299 32.759L18.1715 31.4128C16.8422 31.0809 15.6802 30.6463 14.8101 30.1561L14.1185 31.3635C15.1104 31.9224 16.3585 32.3924 17.8299 32.759ZM14.1185 20.2549L14.8101 19.0475C15.6788 19.5377 16.8415 19.9716 18.1715 20.3042L17.8299 21.6504C16.3571 21.2831 15.109 20.8131 14.1185 20.2549Z" fill="white"/>
<defs>
<linearGradient id="paint0_linear_154_694" x1="0.5" y1="5600" x2="5600.5" y2="0" gradientUnits="userSpaceOnUse">
<stop stop-color="#2E27AD"/>
<stop offset="1" stop-color="#527FFF"/>
</linearGradient>
</defs>
</svg>
