<svg width="65" height="10" viewBox="0 0 65 10" fill="none" xmlns="http://www.w3.org/2000/svg">
<path d="M28.061 6.27246H32.3561L30.085 2.61863L25.9168 9.22491H24.0197L29.0897 1.28936C29.3101 0.968733 29.6775 0.775024 30.085 0.775024C30.4791 0.775024 30.8464 0.962057 31.0602 1.276L36.1502 9.22491H34.2531L33.358 7.74868H29.0095L28.061 6.27246ZM47.7663 7.74868V0.855182H46.1564V8.42334C46.1564 8.63041 46.2366 8.8308 46.3902 8.98444C46.5438 9.13808 46.7509 9.22491 46.978 9.22491H54.3191L55.2676 7.74868H47.7663ZM21.1341 6.51293C22.6972 6.51293 23.9663 5.25046 23.9663 3.68739C23.9663 2.12433 22.6972 0.855182 21.1341 0.855182H14.0916V9.22491H15.7008V2.33141H21.0272C21.7754 2.33141 22.3765 2.93926 22.3765 3.68739C22.3765 4.43553 21.7754 5.04339 21.0272 5.04339L16.489 5.0367L21.2944 9.22491H23.6323L20.3993 6.51293H21.1341ZM4.18557 9.22491C1.87502 9.22491 0 7.35458 0 5.04339C0 2.73219 1.87502 0.855182 4.18557 0.855182H9.0504C11.3616 0.855182 13.2353 2.73219 13.2353 5.04339C13.2353 7.35458 11.3616 9.22491 9.0504 9.22491H4.18557ZM8.94218 7.74868C10.4391 7.74868 11.6515 6.53965 11.6515 5.04339C11.6515 3.54712 10.4391 2.33141 8.94218 2.33141H4.29309C2.79683 2.33141 1.58376 3.54712 1.58376 5.04339C1.58376 6.53965 2.79683 7.74868 4.29309 7.74868H8.94218ZM39.5101 9.22491C37.1989 9.22491 35.3219 7.35458 35.3219 5.04339C35.3219 2.73219 37.1989 0.855182 39.5101 0.855182H45.2881L44.3462 2.33141H39.617C38.1207 2.33141 36.905 3.54712 36.905 5.04339C36.905 6.53965 38.1207 7.74868 39.617 7.74868H45.4216L44.4731 9.22491H39.5101ZM59.1953 7.74868C57.9595 7.74868 56.9108 6.92039 56.5902 5.77816H63.4704L64.4189 4.30193H56.5902C56.9108 3.16637 57.9595 2.33141 59.1953 2.33141H63.9179L64.8731 0.855182H59.0884C56.7772 0.855182 54.9003 2.73219 54.9003 5.04339C54.9003 7.35458 56.7772 9.22491 59.0884 9.22491H64.0515L65 7.74868H59.1953Z" fill="#EA1B22"/>
</svg>
