<svg width="56" height="56" viewBox="0 0 56 56" fill="none" xmlns="http://www.w3.org/2000/svg">
<path d="M55.0153 33.5452C54.6888 32.5565 53.8336 31.8678 52.7276 31.7025C52.2061 31.6247 51.6088 31.6579 50.9021 31.8036C49.6703 32.0577 48.7564 32.1544 48.0895 32.1733C50.6069 27.9227 52.654 23.0755 53.8325 18.5127C55.738 11.135 54.7198 7.77391 53.5298 6.25353C50.3807 2.22968 45.7861 0.0678634 40.2428 0.00159558C37.2861 -0.0344933 34.69 0.549342 33.336 0.96908C32.0752 0.746762 30.7194 0.622526 29.2968 0.599514C26.6307 0.557013 24.2747 1.13821 22.2616 2.33279C21.1469 1.95605 19.3584 1.42478 17.2928 1.08565C12.4345 0.288043 8.51906 0.909602 5.65508 2.93284C2.18703 5.38261 0.579246 9.63884 0.876634 15.5835C0.970943 17.4709 2.02683 23.2133 3.68918 28.6595C4.64459 31.7896 5.66338 34.3892 6.71725 36.3862C8.21173 39.2182 9.81084 40.8859 11.6061 41.4847C12.6124 41.8201 14.4407 42.0547 16.3637 40.4535C16.6074 40.7485 16.9324 41.0418 17.3641 41.3142C17.9121 41.6599 18.5823 41.9423 19.2515 42.1097C21.6637 42.7127 23.9231 42.5619 25.8507 41.7167C25.8625 42.0595 25.8717 42.3871 25.8795 42.6699C25.8923 43.1287 25.9049 43.5785 25.9217 43.9991C26.0359 46.8437 26.2294 49.0555 26.8028 50.6029C26.8342 50.6881 26.8766 50.8178 26.9214 50.9552C27.2073 51.8312 27.6858 53.2974 28.9026 54.4458C30.163 55.6352 31.6872 56.0001 33.0833 56C33.7834 56 34.4515 55.9082 35.0374 55.7826C37.1261 55.3351 39.4982 54.653 41.2141 52.2098C42.8363 49.9 43.625 46.4211 43.7677 40.9394C43.7862 40.7844 43.8033 40.6364 43.8198 40.4954C43.8309 40.4002 43.8422 40.3028 43.8536 40.2058L44.2359 40.2393L44.3343 40.246C46.4617 40.343 49.0629 39.8918 50.6603 39.1498C51.9227 38.5639 55.9677 36.4285 55.0153 33.5452Z" fill="black"/>
<path d="M51.3778 34.106C45.0526 35.4107 44.6178 33.2691 44.6178 33.2691C51.2962 23.3594 54.088 10.7805 51.6787 7.70186C45.106 -0.69604 33.7283 3.27563 33.5385 3.37874L33.4774 3.38968C32.2277 3.13026 30.8292 2.97572 29.2573 2.95007C26.3953 2.90317 24.2243 3.70039 22.5769 4.94967C22.5769 4.94967 2.2802 -3.41176 3.22417 15.4658C3.42499 19.4818 8.98029 45.853 15.6064 37.8876C18.0283 34.975 20.3683 32.5123 20.3683 32.5123C21.5306 33.2844 22.9219 33.6782 24.3806 33.5367L24.4939 33.4405C24.4587 33.8022 24.4748 34.1559 24.5393 34.5746C22.8323 36.4818 23.3339 36.8167 19.9215 37.5191C16.4687 38.2307 18.4971 39.4976 19.8214 39.8287C21.4269 40.2302 25.1413 40.7989 27.6511 37.2856L27.551 37.6865C28.2198 38.2221 28.6895 41.171 28.6108 43.8441C28.532 46.5173 28.4795 48.3526 29.0065 49.786C29.5335 51.2195 30.0587 54.4449 34.5446 53.4837C38.2929 52.6805 40.2353 50.5989 40.5055 47.1267C40.6973 44.6582 41.1312 45.0231 41.1586 42.8161L41.5067 41.7713C41.9081 38.4251 41.5705 37.3456 43.8798 37.8477L44.441 37.897C46.1407 37.9743 48.3652 37.6236 49.6708 37.0167C52.4823 35.712 54.1496 33.5336 51.3776 34.106H51.3778Z" fill="#0E82E1"/>
<path d="M23.7649 17.2618C23.195 17.1824 22.6787 17.2559 22.4176 17.4535C22.2706 17.5648 22.2252 17.6937 22.213 17.7825C22.1802 18.0175 22.3449 18.2773 22.446 18.4113C22.7322 18.7907 23.1504 19.0515 23.5644 19.109C23.6243 19.1173 23.6839 19.1213 23.7433 19.1213C24.4336 19.1213 25.0611 18.5839 25.1164 18.1871C25.1856 17.6903 24.4643 17.3591 23.7649 17.2618Z" fill="white"/>
<path d="M42.6481 17.2775C42.5938 16.8881 41.9005 16.777 41.2429 16.8684C40.5862 16.96 39.9493 17.2564 40.0025 17.6467C40.0453 17.9502 40.5932 18.4684 41.242 18.4683C41.2967 18.4683 41.352 18.4647 41.4077 18.4569C41.8408 18.3969 42.1586 18.1219 42.3095 17.9633C42.5394 17.7219 42.6724 17.4525 42.6481 17.2775Z" fill="white"/>
<path d="M53.4827 33.9577C53.2415 33.2284 52.4653 32.9936 51.1755 33.2601C47.3461 34.0504 45.9747 33.5029 45.5243 33.1713C48.5009 28.6367 50.9495 23.1556 52.2705 18.0414C52.8963 15.6189 53.242 13.3692 53.2702 11.5356C53.3014 9.52265 52.9587 8.04376 52.2516 7.14028C49.4011 3.49794 45.2177 1.54424 40.1536 1.49055C36.6722 1.45144 33.7307 2.34247 33.1605 2.59295C31.9596 2.29431 30.6505 2.11097 29.2254 2.08758C26.6118 2.04533 24.3528 2.67104 22.4823 3.94635C21.6699 3.64406 19.5702 2.92329 17.0026 2.50971C12.5633 1.79485 9.03574 2.33643 6.51832 4.11988C3.51452 6.24799 2.1278 10.052 2.39652 15.4261C2.48693 17.2344 3.51703 22.7965 5.14292 28.1233C7.28298 35.1342 9.60914 39.1032 12.0569 39.9196C12.3433 40.0151 12.6738 40.082 13.038 40.082C13.9309 40.082 15.0255 39.6795 16.1645 38.3103C18.0563 36.0343 19.8227 34.1271 20.4738 33.4341C21.436 33.9507 22.4929 34.239 23.5742 34.2679C23.576 34.2962 23.5789 34.3245 23.5815 34.3527C23.3645 34.61 23.1866 34.8354 23.035 35.028C22.2859 35.9788 22.13 36.1768 19.7187 36.6733C19.0329 36.8148 17.2109 37.1903 17.1844 38.4672C17.1554 39.8624 19.3377 40.4483 19.5864 40.5104C20.4529 40.7274 21.2876 40.8344 22.0837 40.8344C24.0199 40.8342 25.7237 40.198 27.0853 38.9668C27.0434 43.9407 27.2508 48.8418 27.848 50.3352C28.337 51.5575 29.532 54.5453 33.3065 54.545C33.8601 54.545 34.4699 54.4806 35.1405 54.3369C39.0796 53.4923 40.7901 51.7513 41.4519 47.9131C41.806 45.8618 42.4137 40.9633 42.6994 38.3358C43.3026 38.5239 44.0792 38.6101 44.9187 38.6099C46.6695 38.6099 48.6898 38.238 49.9568 37.6499C51.38 36.9889 53.9484 35.3668 53.4827 33.9577ZM44.102 16.2025C44.0889 16.9782 43.9821 17.6824 43.869 18.4175C43.7472 19.2081 43.6212 20.0254 43.5895 21.0177C43.5582 21.9833 43.6788 22.9872 43.7955 23.958C44.0312 25.9188 44.273 27.9377 43.3368 29.9297C43.1913 29.6713 43.0509 29.3894 42.9221 29.0772C42.8058 28.7951 42.5532 28.3421 42.2035 27.715C40.8424 25.2743 37.6552 19.5586 39.2868 17.2263C39.7727 16.5319 41.006 15.8183 44.102 16.2025ZM40.3493 3.06136C44.8867 3.16158 48.4759 4.85901 51.0172 8.10626C52.9662 10.597 50.82 21.9304 44.6068 31.7078C44.5455 31.6298 44.483 31.5511 44.4183 31.4704C44.3926 31.438 44.3663 31.4052 44.3397 31.372C45.9453 28.7204 45.6313 26.097 45.3519 23.771C45.2371 22.8164 45.1287 21.9149 45.1562 21.0681C45.1847 20.1703 45.3035 19.4006 45.4181 18.6562C45.5593 17.7387 45.7028 16.7896 45.6632 15.6706C45.6928 15.5533 45.7047 15.4146 45.6892 15.25C45.5881 14.1769 44.3631 10.9657 41.8661 8.05885C40.5004 6.46918 38.5084 4.69001 35.7888 3.49002C36.9586 3.24758 38.5584 3.02149 40.3493 3.06136ZM14.9592 37.3081C13.7044 38.8168 12.8378 38.5277 12.5528 38.4328C10.696 37.8133 8.54156 33.8889 6.64206 27.6657C4.99844 22.2809 4.03787 16.8662 3.96192 15.3478C3.72187 10.5458 4.8859 7.19913 7.4218 5.40072C11.5488 2.474 18.334 4.22576 21.0604 5.11427C21.0212 5.15288 20.9804 5.18909 20.9416 5.22832C16.4677 9.74673 16.5738 17.4665 16.5847 17.9383C16.5844 18.1204 16.5996 18.3781 16.6206 18.7327C16.6975 20.0311 16.8408 22.4476 16.4581 25.1844C16.1024 27.7274 16.8863 30.2166 18.6085 32.0135C18.7868 32.1994 18.9729 32.3741 19.1652 32.5384C18.3985 33.3594 16.7325 35.1748 14.9592 37.3081ZM19.7402 30.9289C18.3521 29.4807 17.7217 27.4661 18.0104 25.4014C18.4146 22.5104 18.2653 19.9926 18.1852 18.6399C18.174 18.4507 18.1641 18.2848 18.1582 18.1539C18.8118 17.5745 21.8406 15.9515 24.0006 16.4464C24.9864 16.6723 25.5868 17.3434 25.8366 18.498C27.129 24.475 26.0077 26.9663 25.1067 28.9682C24.921 29.3806 24.7456 29.7704 24.5957 30.1738L24.4797 30.4855C24.1857 31.2738 23.9122 32.0067 23.7427 32.7027C22.2672 32.6981 20.8317 32.0679 19.7402 30.9289ZM19.9667 38.9898C19.5359 38.8822 19.1483 38.6952 18.921 38.5401C19.1108 38.4507 19.4488 38.3293 20.0349 38.2085C22.8716 37.6245 23.3096 37.2124 24.2663 35.9977C24.4857 35.7193 24.7343 35.4035 25.0786 35.019L25.079 35.0185C25.5919 34.4444 25.8264 34.5417 26.2518 34.7181C26.5966 34.8608 26.9323 35.2929 27.0685 35.7685C27.1329 35.993 27.2053 36.4194 26.9685 36.751C24.9701 39.5491 22.0581 39.5132 19.9667 38.9898ZM34.8119 52.8043C31.3417 53.5478 30.113 51.7772 29.3034 49.7531C28.7808 48.4462 28.524 42.5534 28.7062 36.046C28.7086 35.9593 28.6963 35.8757 28.6724 35.7971C28.6516 35.6454 28.6197 35.4918 28.5754 35.3373C28.3043 34.3904 27.644 33.5984 26.8518 33.27C26.5371 33.1396 25.9593 32.9003 25.2651 33.0779C25.4132 32.4679 25.67 31.7792 25.9482 31.0333L26.0651 30.7194C26.1966 30.3657 26.3614 29.9993 26.536 29.6115C27.4788 27.5168 28.7701 24.6479 27.3687 18.1666C26.8437 15.7391 25.0908 14.5537 22.4334 14.829C20.8402 14.9938 19.3828 15.6366 18.6559 16.0052C18.4996 16.0844 18.3566 16.1609 18.2231 16.2354C18.4259 13.7894 19.1926 9.21847 22.0601 6.32646C23.8654 4.50567 26.2699 3.60646 29.1995 3.65487C34.9718 3.74943 38.6734 6.71174 40.7624 9.18025C42.5625 11.3075 43.5372 13.4502 43.9263 14.6058C41.0008 14.3084 39.0112 14.8859 38.0024 16.3279C35.8082 19.4645 39.2029 25.5525 40.8345 28.4784C41.1336 29.0147 41.3919 29.4781 41.4731 29.675C42.0044 30.9626 42.6922 31.8222 43.1945 32.4498C43.3484 32.6421 43.4978 32.8285 43.6113 32.9914C42.7253 33.2469 41.1337 33.837 41.2787 36.7871C41.1618 38.2675 40.3298 45.1981 39.9073 47.6467C39.3495 50.8817 38.1591 52.0867 34.8119 52.8043ZM49.2967 36.2282C48.3908 36.6488 46.8745 36.9643 45.4341 37.032C43.8432 37.1065 43.0334 36.8538 42.8429 36.6983C42.7533 34.86 43.4378 34.6678 44.1619 34.4645C44.2757 34.4324 44.3868 34.4014 44.4939 34.3639C44.5606 34.4181 44.6335 34.4719 44.7133 34.5246C45.992 35.3686 48.2728 35.4596 51.4925 34.7951C51.5043 34.7926 51.5162 34.7903 51.5278 34.7879C51.0936 35.1939 50.3505 35.7389 49.2967 36.2282Z" fill="white"/>
</svg>
