<svg width="36" height="28" viewBox="0 0 36 28" fill="none" xmlns="http://www.w3.org/2000/svg">
<path d="M8.13426 28.0004V13.6508L3.94041 9.57947L0.179688 7.32017V25.4681C0.179688 26.8692 1.24951 28.0004 2.56611 28.0004H8.13426Z" fill="#4285F4"/>
<path d="M27.2251 28.0004H32.7933C34.1138 28.0004 35.1797 26.865 35.1797 25.4681V7.32032L30.9201 9.90807L27.2251 13.6508V28.0004Z" fill="#34A853"/>
<path d="M8.13426 13.6508L7.56359 8.04396L8.13426 2.67769L17.6797 10.2745L27.2251 2.67769L27.8635 7.75424L27.2251 13.6508L17.6797 21.2476L8.13426 13.6508Z" fill="#EA4335"/>
<path d="M27.2251 2.67769V13.6508L35.1797 7.32032V3.94383C35.1797 0.812324 31.8109 -0.972858 29.4525 0.905173L27.2251 2.67769Z" fill="#FBBC04"/>
<path d="M0.179688 7.32017L8.13426 13.6508L8.13426 2.67769L5.90684 0.905147C3.54434 -0.973029 0.179688 0.812298 0.179688 3.94366V7.32017Z" fill="#C5221F"/>
</svg>
