<svg width="35" height="34" viewBox="0 0 35 34" fill="none" xmlns="http://www.w3.org/2000/svg">
<path d="M31.7188 0.640873H3.28125C2.63602 0.634307 2.01454 0.883971 1.55318 1.33508C1.09181 1.7862 0.828245 2.40191 0.820312 3.04712V31.5995C0.82968 32.2437 1.09388 32.858 1.55509 33.308C2.01629 33.7579 2.63696 34.0068 3.28125 34.0002H31.7188C32.364 34.0054 32.9851 33.7549 33.4462 33.3035C33.9073 32.8521 34.171 32.2365 34.1797 31.5913V3.03892C34.1682 2.3956 33.9032 1.78282 33.4424 1.33378C32.9816 0.884737 32.3622 0.635727 31.7188 0.640873Z" fill="#0076B2"/>
<path d="M5.75859 13.1452H10.7105V29.0784H5.75859V13.1452ZM8.23594 5.21548C8.8039 5.21548 9.35911 5.38394 9.83132 5.69954C10.3035 6.01514 10.6715 6.46371 10.8887 6.98849C11.106 7.51327 11.1627 8.09069 11.0517 8.64771C10.9407 9.20472 10.6669 9.71629 10.2651 10.1177C9.86333 10.5191 9.3515 10.7924 8.79438 10.9028C8.23726 11.0133 7.6599 10.9561 7.13532 10.7383C6.61075 10.5206 6.16253 10.1522 5.84738 9.67968C5.53223 9.20717 5.3643 8.65181 5.36484 8.08384C5.36557 7.32285 5.66838 6.59328 6.20673 6.05544C6.74509 5.5176 7.47495 5.21548 8.23594 5.21548ZM13.8168 13.1452H18.5637V15.3327H18.6293C19.291 14.0803 20.9043 12.7596 23.3133 12.7596C28.3281 12.7487 29.2578 16.0491 29.2578 20.3284V29.0784H24.3059V21.3264C24.3059 19.4807 24.273 17.1045 21.7328 17.1045C19.1926 17.1045 18.7605 19.117 18.7605 21.2061V29.0784H13.8168V13.1452Z" fill="white"/>
</svg>
