<svg width="49" height="56" viewBox="0 0 49 56" fill="none" xmlns="http://www.w3.org/2000/svg">
<path d="M45.4898 11.4104L27.8506 0.937779C25.7541 -0.312593 23.1408 -0.312593 21.0443 0.937779L3.40158 11.4104C1.2794 12.6906 -0.0126753 14.993 9.37736e-05 17.4714V38.4131C-0.0114289 40.8903 1.28048 43.191 3.40158 44.4706L21.0408 54.9397C23.1375 56.1893 25.7504 56.1893 27.8471 54.9397L45.4863 44.4706C47.6098 43.1913 48.9033 40.8887 48.8913 38.4096V17.4714C48.9041 14.993 47.612 12.6906 45.4898 11.4104Z" fill="white"/>
<path d="M45.59 11.4355L27.912 0.939845C25.8109 -0.313282 23.1918 -0.313282 21.0907 0.939845L3.40907 11.4355C1.28221 12.7186 -0.0127032 15.026 9.39802e-05 17.5099V38.4977C-0.011454 40.9804 1.2833 43.2862 3.40907 44.5686L21.0871 55.0607C23.1884 56.3131 25.8071 56.3131 27.9084 55.0607L45.5865 44.5686C47.7147 43.2864 49.0111 40.9788 48.999 38.4942V17.5099C49.0118 15.026 47.7169 12.7186 45.59 11.4355ZM21.7066 53.9882L4.02855 43.496C2.28158 42.4374 1.21753 40.5404 1.22493 38.4977V17.5099C1.21683 15.4671 2.28106 13.5697 4.02855 12.5116L21.7066 2.01596C23.4271 0.989533 25.572 0.989533 27.2925 2.01596L44.9564 12.5116C46.4125 13.3936 47.4059 14.8726 47.6715 16.5542C47.0838 15.3046 45.7635 14.9612 44.2236 15.8462L27.512 26.1967C25.427 27.4109 23.8907 28.7808 23.8872 31.2941V51.9032C23.8872 53.4076 24.4925 54.3811 25.427 54.6678C25.121 54.7239 24.8107 54.7535 24.4995 54.7563C23.5165 54.7556 22.5518 54.4903 21.7066 53.9882Z" fill="#2F3A3E"/>
<path d="M40.9079 40.4818L36.5139 43.1097C36.3963 43.157 36.3174 43.2691 36.3126 43.3958V44.5508C36.3126 44.6921 36.408 44.7486 36.5245 44.6815L40.9856 41.9688C41.0948 41.8869 41.1471 41.7494 41.1198 41.6156V40.6019C41.1162 40.4712 41.0138 40.4147 40.9079 40.4818Z" fill="#3AB14A"/>
<path d="M31.5575 30.807C31.6988 30.7363 31.8154 30.807 31.8189 31.0083L31.833 32.5412C32.3614 32.3012 32.9509 32.2296 33.5214 32.3364C33.6308 32.3646 33.6768 32.513 33.6344 32.6896L33.2988 34.0353C33.2734 34.1369 33.2209 34.2296 33.147 34.3037C33.121 34.3294 33.0912 34.3508 33.0587 34.3673C33.0187 34.3889 32.9727 34.3964 32.928 34.3885C32.3717 34.2653 31.7894 34.3588 31.2997 34.6499C30.5836 34.9725 30.1155 35.6767 30.0952 36.4618C30.0952 37.1682 30.4484 37.3625 31.6811 37.3837C33.3094 37.412 34.0159 38.1219 34.0335 39.7643C33.9947 41.4787 33.2043 43.0893 31.8719 44.1688L31.9001 45.6735C31.8976 45.8604 31.8005 46.0332 31.6423 46.1327L30.7522 46.6448C30.6109 46.7154 30.4944 46.6448 30.4908 46.447V44.9671C29.7279 45.285 28.9544 45.3591 28.4599 45.1613C28.3681 45.126 28.3257 44.9883 28.3645 44.8293L28.6859 43.4695C28.7104 43.3619 28.7656 43.2637 28.8449 43.1869C28.87 43.1628 28.8986 43.1426 28.9297 43.1269C28.9757 43.1062 29.0284 43.1062 29.0745 43.1269C29.7041 43.2976 30.3757 43.2125 30.9429 42.8902C31.7615 42.4955 32.2934 41.6792 32.324 40.771C32.324 40.008 31.9037 39.6901 30.9112 39.6831C29.629 39.6831 28.4387 39.4358 28.414 37.5638C28.4435 35.9284 29.2027 34.3918 30.4838 33.3748L30.4202 31.8348C30.4196 31.6452 30.5172 31.4689 30.678 31.3686L31.5575 30.807Z" fill="white"/>
</svg>
