<svg width="39" height="56" viewBox="0 0 39 56" fill="none" xmlns="http://www.w3.org/2000/svg">
<path fill-rule="evenodd" clip-rule="evenodd" d="M19.4987 28C19.4987 22.8454 23.6775 18.6667 28.832 18.6667C33.9866 18.6667 38.1654 22.8454 38.1654 28C38.1654 33.1546 33.9866 37.3333 28.832 37.3333C23.6775 37.3333 19.4987 33.1546 19.4987 28Z" fill="#1ABCFE"/>
<path fill-rule="evenodd" clip-rule="evenodd" d="M0.832031 46.6667C0.832031 41.5121 5.0107 37.3333 10.1654 37.3333H19.4987V46.6667C19.4987 51.8212 15.3199 56 10.1654 56C5.0107 56 0.832031 51.8212 0.832031 46.6667Z" fill="#0ACF83"/>
<path fill-rule="evenodd" clip-rule="evenodd" d="M19.4987 0V18.6667H28.832C33.9866 18.6667 38.1654 14.4879 38.1654 9.33333C38.1654 4.17867 33.9866 0 28.832 0H19.4987Z" fill="#FF7262"/>
<path fill-rule="evenodd" clip-rule="evenodd" d="M0.832031 9.33333C0.832031 14.4879 5.0107 18.6667 10.1654 18.6667H19.4987V0H10.1654C5.0107 0 0.832031 4.17867 0.832031 9.33333Z" fill="#F24E1E"/>
<path fill-rule="evenodd" clip-rule="evenodd" d="M0.832031 28C0.832031 33.1546 5.0107 37.3333 10.1654 37.3333H19.4987V18.6667H10.1654C5.0107 18.6667 0.832031 22.8454 0.832031 28Z" fill="#A259FF"/>
</svg>
