<svg width="56" height="56" viewBox="0 0 56 56" fill="none" xmlns="http://www.w3.org/2000/svg">
<path d="M1.16974 30.8264C-0.391217 29.2654 -0.391217 26.7346 1.16974 25.1736L25.1726 1.17072C26.7336 -0.39024 29.2645 -0.39024 30.8255 1.17072L54.8283 25.1736C56.3893 26.7346 56.3893 29.2654 54.8283 30.8264L30.8255 54.8293C29.2645 56.3903 26.7336 56.3903 25.1726 54.8293L1.16974 30.8264Z" fill="#EE513B"/>
<path d="M20.2968 6.12305L17.8662 8.55373L24.144 14.8316C23.89 15.3764 23.7482 15.984 23.7482 16.6248C23.7482 18.444 24.8912 19.9962 26.4983 20.6024V35.9596C24.8912 36.5658 23.7482 38.118 23.7482 39.9372C23.7482 42.2844 25.651 44.1872 27.9983 44.1872C30.3455 44.1872 32.2483 42.2844 32.2483 39.9372C32.2483 38.288 31.3089 36.858 29.9358 36.1536V20.6234L35.9369 26.6244C35.6953 27.1582 35.5609 27.7508 35.5609 28.3748C35.5609 30.722 37.4637 32.6248 39.8109 32.6248C42.1581 32.6248 44.0609 30.722 44.0609 28.3748C44.0609 26.0276 42.1581 24.1248 39.8109 24.1248C39.3547 24.1248 38.9155 24.1966 38.5035 24.3296L32.0585 17.8846C32.1819 17.4866 32.2483 17.0634 32.2483 16.6248C32.2483 14.2776 30.3455 12.3748 27.9983 12.3748C27.5597 12.3748 27.1367 12.4412 26.7385 12.5646L20.2968 6.12305Z" fill="white"/>
</svg>
