<svg width="56" height="56" viewBox="0 0 56 56" fill="none" xmlns="http://www.w3.org/2000/svg">
<path d="M55.77 31.5554C57.7297 16.2141 46.8956 2.18865 31.5824 0.229005C16.2691 -1.73064 2.18768 9.10341 0.228029 24.4167C-1.73162 39.7299 9.10243 53.7834 24.4157 55.771C39.7569 57.7307 53.7824 46.8966 55.77 31.5554Z" fill="#FF6C37"/>
<path d="M38.1052 17.9778L26.2913 29.7917L22.9599 26.4603C34.5778 14.8424 35.7256 15.8502 38.1052 17.9778Z" fill="white"/>
<path d="M26.2913 30.0716C26.2074 30.0716 26.1514 30.0436 26.0954 29.9876L22.736 26.6562C22.624 26.5443 22.624 26.3763 22.736 26.2643C34.5499 14.4504 35.7816 15.5702 38.2732 17.8098C38.3292 17.8658 38.3572 17.9218 38.3572 18.0058C38.3572 18.0898 38.3292 18.1458 38.2732 18.2018L26.4593 29.9876C26.4313 30.0436 26.3473 30.0716 26.2913 30.0716ZM23.3519 26.4603L26.2913 29.3998L37.6853 18.0058C35.6137 16.1581 34.2139 15.5982 23.3519 26.4603Z" fill="#FF6C37"/>
<path d="M29.6787 33.1791L26.4593 29.9597L38.2732 18.1458C41.4366 21.3372 36.7055 26.5163 29.6787 33.1791Z" fill="white"/>
<path d="M29.6787 33.459C29.5947 33.459 29.5388 33.431 29.4828 33.375L26.2633 30.1556C26.2074 30.0996 26.2074 30.0436 26.2074 29.9597C26.2074 29.8757 26.2353 29.8197 26.2913 29.7637L38.1052 17.9498C38.2172 17.8378 38.3852 17.8378 38.4971 17.9498C39.225 18.6217 39.6169 19.5735 39.5889 20.5533C39.533 23.6608 36.0056 27.6081 29.9027 33.375C29.8187 33.431 29.7347 33.459 29.6787 33.459ZM26.8512 29.9597C28.6429 31.7793 29.3988 32.5072 29.6787 32.7871C34.3819 28.308 38.9451 23.7168 38.9731 20.5533C39.0011 19.8255 38.7211 19.0976 38.2452 18.5377L26.8512 29.9597Z" fill="#FF6C37"/>
<path d="M23.0159 26.5443L25.3955 28.9238C25.4515 28.9798 25.4515 29.0358 25.3955 29.0918C25.3675 29.1198 25.3675 29.1198 25.3395 29.1198L20.4124 30.1836C20.1604 30.2116 19.9365 30.0436 19.8805 29.7917C19.8525 29.6517 19.9085 29.5117 19.9925 29.4278L22.848 26.5723C22.9039 26.5163 22.9879 26.4883 23.0159 26.5443Z" fill="white"/>
<path d="M20.3284 30.4636C19.9085 30.4636 19.6005 30.1276 19.6005 29.7077C19.6005 29.5117 19.6845 29.3158 19.8245 29.1758L22.68 26.3203C22.848 26.1803 23.0719 26.1803 23.2399 26.3203L25.6195 28.6999C25.7874 28.8399 25.7874 29.0918 25.6195 29.2598C25.5635 29.3158 25.5075 29.3438 25.4235 29.3718L20.4964 30.4356C20.4404 30.4356 20.3844 30.4636 20.3284 30.4636ZM22.9319 26.8522L20.1884 29.5957C20.1324 29.6517 20.1045 29.7357 20.1604 29.8197C20.1884 29.9037 20.2724 29.9317 20.3564 29.9037L24.9756 28.8958L22.9319 26.8522Z" fill="#FF6C37"/>
<path d="M44.3481 11.427C42.5564 9.6913 39.6729 9.74729 37.9372 11.567C36.2016 13.3866 36.2575 16.2421 38.0772 17.9778C39.561 19.4056 41.8005 19.6575 43.5642 18.5937L40.3728 15.4023L44.3481 11.427Z" fill="white"/>
<path d="M41.2127 19.5175C38.5531 19.5175 36.3975 17.3619 36.3975 14.7024C36.3975 12.0429 38.5531 9.88727 41.2127 9.88727C42.4444 9.88727 43.6482 10.3632 44.5441 11.231C44.6 11.287 44.628 11.343 44.628 11.427C44.628 11.511 44.6 11.567 44.5441 11.623L40.7647 15.4023L43.7322 18.3697C43.8442 18.4817 43.8442 18.6497 43.7322 18.7617C43.7042 18.7897 43.7042 18.7897 43.6762 18.8177C42.9483 19.2656 42.0805 19.5175 41.2127 19.5175ZM41.2127 10.4752C38.8611 10.4752 36.9574 12.3788 36.9854 14.7304C36.9854 17.082 38.8891 18.9856 41.2407 18.9576C41.8845 18.9576 42.5284 18.8177 43.1163 18.5097L40.1768 15.5982C40.1208 15.5423 40.0929 15.4863 40.0929 15.4023C40.0929 15.3183 40.1208 15.2623 40.1768 15.2063L43.9282 11.455C43.1723 10.8111 42.2205 10.4752 41.2127 10.4752Z" fill="#FF6C37"/>
<path d="M44.4321 11.511L44.3761 11.455L40.3728 15.4023L43.5362 18.5657C43.8442 18.3697 44.1521 18.1458 44.4041 17.8938C46.1958 16.1301 46.1958 13.2747 44.4321 11.511Z" fill="white"/>
<path d="M43.5642 18.8737C43.4802 18.8737 43.4243 18.8457 43.3683 18.7897L40.1768 15.5982C40.1208 15.5423 40.0929 15.4863 40.0929 15.4023C40.0929 15.3183 40.1208 15.2623 40.1768 15.2063L44.1521 11.231C44.2641 11.119 44.4321 11.119 44.5441 11.231L44.628 11.287C46.5037 13.1627 46.5037 16.1861 44.656 18.0898C44.3761 18.3697 44.0681 18.6217 43.7322 18.8177C43.6482 18.8457 43.5922 18.8737 43.5642 18.8737ZM40.7647 15.4023L43.5922 18.2298C43.8162 18.0898 44.0401 17.8938 44.2081 17.7259C45.8038 16.1301 45.8878 13.5266 44.3481 11.8469L40.7647 15.4023Z" fill="#FF6C37"/>
<path d="M38.5811 18.4817C37.9092 17.8098 36.8174 17.8098 36.1456 18.4817L25.5915 29.0358L27.3551 30.7995L38.5251 21.0013C39.253 20.3854 39.309 19.2936 38.6931 18.5657C38.6371 18.5377 38.6091 18.5097 38.5811 18.4817Z" fill="white"/>
<path d="M27.3272 31.0795C27.2432 31.0795 27.1872 31.0515 27.1312 30.9955L25.3675 29.2318C25.2555 29.1198 25.2555 28.9518 25.3675 28.8399L35.9216 18.2858C36.7055 17.5019 37.9652 17.5019 38.7491 18.2858C39.533 19.0696 39.533 20.3294 38.7491 21.1132C38.7211 21.1412 38.6931 21.1692 38.6651 21.1972L27.4951 30.9955C27.4671 31.0515 27.4111 31.0795 27.3272 31.0795ZM25.9834 29.0358L27.3551 30.4076L38.3292 20.7773C38.9451 20.2734 39.001 19.3496 38.4971 18.7337C37.9932 18.1178 37.0694 18.0618 36.4535 18.5657C36.4255 18.5937 36.3975 18.6217 36.3415 18.6497L25.9834 29.0358Z" fill="#FF6C37"/>
<path d="M17.5009 41.0457C17.3889 41.1017 17.333 41.2136 17.3609 41.3256L17.8369 43.3412C17.9488 43.6212 17.7809 43.9571 17.4729 44.0411C17.249 44.1251 16.997 44.0411 16.857 43.8732L13.7776 40.8217L23.8278 30.7715L27.2992 30.8275L29.6507 33.1791C29.0908 33.655 25.7034 36.9304 17.5009 41.0457Z" fill="white"/>
<path d="M17.277 44.3211C17.053 44.3211 16.829 44.2371 16.6891 44.0691L13.6376 41.0177C13.5816 40.9617 13.5536 40.9057 13.5536 40.8217C13.5536 40.7377 13.5816 40.6817 13.6376 40.6257L23.6878 30.5755C23.7438 30.5196 23.8278 30.4916 23.8838 30.4916L27.3551 30.5476C27.4391 30.5476 27.4951 30.5755 27.5511 30.6315L29.9027 32.9831C29.9587 33.0391 29.9867 33.1231 29.9867 33.2071C29.9867 33.2911 29.9587 33.347 29.8747 33.403L29.6787 33.571C26.7113 36.1745 22.68 38.7781 17.6689 41.2696L18.1448 43.2573C18.2288 43.6212 18.0608 44.0131 17.7249 44.2091C17.5569 44.2931 17.4169 44.3211 17.277 44.3211ZM14.1975 40.8217L17.081 43.6772C17.165 43.8172 17.333 43.8732 17.4729 43.7892C17.6129 43.7052 17.6689 43.5372 17.5849 43.3972L17.109 41.3816C17.053 41.1296 17.165 40.9057 17.3889 40.7937C22.344 38.3022 26.3473 35.7266 29.2868 33.1791L27.2152 31.1074L23.9958 31.0515L14.1975 40.8217Z" fill="#FF6C37"/>
<path d="M11.398 43.2293L13.8056 40.8217L17.3889 44.4051L11.678 44.0131C11.426 43.9851 11.258 43.7612 11.286 43.5092C11.286 43.3972 11.314 43.2853 11.398 43.2293Z" fill="white"/>
<path d="M17.3889 44.657L11.65 44.2651C11.23 44.2371 10.9501 43.8732 10.9781 43.4532C11.0061 43.2853 11.0621 43.1173 11.2021 43.0053L13.6096 40.5977C13.7216 40.4858 13.8896 40.4858 14.0016 40.5977L17.5849 44.1811C17.6689 44.2651 17.6969 44.3771 17.6409 44.489C17.5849 44.601 17.5009 44.657 17.3889 44.657ZM13.8056 41.2136L11.594 43.4252C11.51 43.4812 11.51 43.6212 11.594 43.6772C11.622 43.7052 11.65 43.7332 11.706 43.7332L16.6611 44.0691L13.8056 41.2136Z" fill="#FF6C37"/>
<path d="M22.848 32.0593C22.68 32.0593 22.568 31.9193 22.568 31.7793C22.568 31.6953 22.596 31.6394 22.652 31.5834L25.3675 28.8679C25.4795 28.7559 25.6475 28.7559 25.7594 28.8679L27.5231 30.6315C27.6071 30.7155 27.6351 30.7995 27.6071 30.9115C27.5791 30.9955 27.4951 31.0795 27.3831 31.1074L22.9039 32.0593C22.876 32.0593 22.848 32.0593 22.848 32.0593ZM25.5635 29.4557L23.7158 31.3034L26.7393 30.6595L25.5635 29.4557Z" fill="#FF6C37"/>
<path d="M27.2992 30.8275L24.2197 31.4994C23.9958 31.5554 23.7718 31.4154 23.7158 31.1914C23.6878 31.0515 23.7158 30.9115 23.8278 30.7995L25.5355 29.0918L27.2992 30.8275Z" fill="white"/>
<path d="M24.1637 31.7793C23.7718 31.7793 23.4638 31.4714 23.4638 31.0795C23.4638 30.8835 23.5478 30.7155 23.6598 30.5755L25.3675 28.8679C25.4795 28.7559 25.6475 28.7559 25.7594 28.8679L27.5231 30.6315C27.6071 30.7155 27.6351 30.7995 27.6071 30.9115C27.5791 30.9955 27.4951 31.0795 27.3831 31.1074L24.3037 31.7793C24.2477 31.7793 24.1917 31.7793 24.1637 31.7793ZM25.5635 29.4557L24.0517 30.9675C23.9958 31.0235 23.9958 31.0795 24.0237 31.1354C24.0517 31.1914 24.1077 31.2194 24.1917 31.2194L26.7673 30.6595L25.5635 29.4557Z" fill="#FF6C37"/>
<path d="M44.4601 14.1985C44.4041 14.0305 44.2081 13.9465 44.0401 14.0025C43.8722 14.0585 43.7882 14.2545 43.8442 14.4225C43.8442 14.4504 43.8722 14.4784 43.8722 14.5064C44.0401 14.8424 43.9841 15.2623 43.7602 15.5702C43.6482 15.7102 43.6762 15.9062 43.7882 16.0182C43.9282 16.1301 44.1241 16.1021 44.2361 15.9622C44.656 15.4303 44.74 14.7584 44.4601 14.1985Z" fill="#FF6C37"/>
</svg>
