<svg width="56" height="56" viewBox="0 0 56 56" fill="none" xmlns="http://www.w3.org/2000/svg">
<path d="M55.999 28C55.999 43.456 43.469 56 27.999 56C12.529 56 -0.000976562 43.456 -0.000976562 28C-0.000976562 12.53 12.529 0 27.999 0C43.469 0 55.999 12.53 55.999 28Z" fill="#E95420"/>
<path d="M9.6421 24.3126C7.62272 24.3126 5.99902 25.973 5.99902 28.007C5.99902 30.041 7.63636 31.7014 9.6421 31.7014C11.6479 31.7014 13.2852 30.041 13.2852 28.007C13.2852 25.959 11.6479 24.3126 9.6421 24.3126ZM35.6622 41.0964C33.9156 42.1204 33.329 44.3758 34.325 46.1468C35.3348 47.918 37.5588 48.5268 39.3052 47.5028C41.0518 46.479 41.6384 44.2236 40.6424 42.4524C39.6192 40.6952 37.395 40.0864 35.6622 41.0964ZM17.556 28.007C17.556 24.354 19.3434 21.13 22.0858 19.1792L19.4252 14.6545C16.2324 16.813 13.8719 20.12 12.8759 23.9804C14.022 24.9352 14.7588 26.388 14.7588 28.007C14.7588 29.6258 14.022 31.0786 12.8759 32.0334C13.8583 35.8938 16.2324 39.2008 19.4252 41.3594L22.0858 36.8348C19.3434 34.8838 17.556 31.6598 17.556 28.007ZM28.1986 17.2142C33.7656 17.2142 38.3228 21.5314 38.8004 27.0522L43.999 26.9692C43.7398 22.9012 41.9932 19.2482 39.2916 16.564C37.8998 17.0898 36.3034 17.0068 34.9254 16.2042C33.5336 15.3879 32.674 14.0319 32.4284 12.5375C31.0776 12.1639 29.6586 11.9563 28.1986 11.9563C25.6744 11.9563 23.3002 12.5513 21.1854 13.6168L23.7232 18.2106C25.074 17.574 26.6022 17.2142 28.1986 17.2142ZM28.1986 38.7996C26.6022 38.7996 25.074 38.4398 23.7096 37.8034L21.1718 42.397C23.2866 43.4626 25.6744 44.0574 28.185 44.0574C29.645 44.0574 31.064 43.85 32.4148 43.4764C32.6468 41.9958 33.52 40.626 34.9118 39.8096C36.2898 38.9932 37.8998 38.924 39.278 39.4498C41.966 36.7656 43.7262 33.1126 43.9854 29.0446L38.7868 28.9616C38.3228 34.4686 33.7656 38.7996 28.1986 38.7996ZM35.6486 14.9036C37.395 15.9275 39.6192 15.3187 40.6288 13.5476C41.6384 11.7765 41.0382 9.52108 39.2916 8.49718C37.5452 7.47326 35.321 8.08208 34.3114 9.85318C33.3154 11.6243 33.9156 13.8797 35.6486 14.9036Z" fill="white"/>
</svg>
