<svg width="65" height="40" viewBox="0 0 65 40" fill="none" xmlns="http://www.w3.org/2000/svg">
<path d="M53.4041 27.7562C55.7174 27.4745 60.819 26.8681 61.7273 28.0379C62.6351 29.1863 60.7112 34.018 59.8464 36.1626C59.587 36.8128 60.1491 37.0726 60.7327 36.5744C64.5374 33.3678 65.532 26.6727 64.7539 25.6979C63.9753 24.7449 57.2956 23.9212 53.231 26.7814C52.6041 27.2361 52.7123 27.8429 53.4041 27.7562Z" fill="#FF9900"/>
<path d="M32.4343 39.4775C41.3196 39.4775 51.6529 36.6822 58.7655 31.4177C59.9327 30.551 58.9167 29.2296 57.7276 29.7712C49.7505 33.1509 41.0817 34.7978 33.191 34.7978C21.4955 34.7978 10.1891 31.5697 1.02344 26.2398C0.22298 25.7631 -0.382078 26.5864 0.287823 27.1932C8.76258 34.8627 19.9822 39.4775 32.4343 39.4775Z" fill="#FF9900"/>
<path d="M18.3178 14.6701C18.3178 15.4719 18.4041 16.1216 18.5552 16.5983C18.7474 17.1345 18.9788 17.6558 19.2475 18.1581C19.3552 18.3316 19.3986 18.5051 19.3986 18.6567C19.3986 18.8735 19.2689 19.0904 18.9877 19.3069L17.6259 20.2169C17.4314 20.3465 17.2365 20.4118 17.0638 20.4118C16.8474 20.4118 16.6314 20.3032 16.4154 20.1082C16.1239 19.7945 15.8632 19.4535 15.6368 19.09C15.3951 18.6736 15.1715 18.2471 14.9665 17.8115C13.2806 19.805 11.1618 20.8018 8.61098 20.8018C6.79493 20.8018 5.34691 20.2817 4.28751 19.242C3.22812 18.2019 2.68746 16.8148 2.68746 15.082C2.68746 13.2401 3.33589 11.7452 4.65467 10.6187C5.97344 9.49186 7.72465 8.92887 9.95166 8.92887C10.6864 8.92887 11.4431 8.99371 12.2431 9.10193C13.0427 9.21058 13.8642 9.38364 14.729 9.57861V7.99696C14.729 6.35047 14.3829 5.20213 13.7126 4.53048C13.0212 3.85882 11.8536 3.53417 10.1891 3.53417C9.43248 3.53417 8.65436 3.62048 7.85433 3.81545C7.05955 4.0053 6.2793 4.25157 5.51954 4.55238C5.27371 4.66264 5.02096 4.75675 4.76289 4.8341C4.61173 4.87704 4.50351 4.89894 4.41676 4.89894C4.11445 4.89894 3.96286 4.68251 3.96286 4.22729V3.1657C3.96286 2.81914 4.00667 2.55889 4.11445 2.40774C4.22223 2.2557 4.41676 2.10411 4.71951 1.95208C5.47616 1.56214 6.38441 1.23749 7.44337 0.97724C8.50276 0.69596 9.62745 0.565398 10.8161 0.565398C13.3888 0.565398 15.2692 1.15074 16.4798 2.32055C17.6689 3.49035 18.2744 5.26741 18.2744 7.6504V14.6701H18.3178ZM9.5407 17.9635C10.254 17.9635 10.9892 17.8334 11.7673 17.5736C12.5454 17.3134 13.2372 16.8367 13.8208 16.1869C14.1669 15.7751 14.4263 15.3203 14.556 14.8002C14.6857 14.2802 14.772 13.6519 14.772 12.9154V12.0054C14.1165 11.8456 13.4526 11.7227 12.7833 11.6374C12.1093 11.5514 11.4307 11.5078 10.7512 11.5068C9.30279 11.5068 8.24339 11.7885 7.53012 12.3734C6.81684 12.9588 6.47072 13.782 6.47072 14.8651C6.47072 15.8833 6.73009 16.6417 7.27074 17.1618C7.78949 17.7033 8.54614 17.9635 9.54026 17.9635H9.5407ZM26.8999 20.3032C26.5108 20.3032 26.2514 20.2383 26.0784 20.0867C25.9057 19.9566 25.7541 19.653 25.6245 19.2416L20.5443 2.49405C20.4146 2.0603 20.3498 1.77902 20.3498 1.62743C20.3498 1.28086 20.5224 1.0859 20.8685 1.0859H22.9869C23.3979 1.0859 23.6792 1.15074 23.8303 1.30233C24.0034 1.43246 24.1326 1.73608 24.2627 2.14749L27.8948 16.4901L31.2671 2.14749C31.3749 1.71374 31.5046 1.43246 31.6777 1.30233C31.8507 1.17221 32.153 1.0859 32.5425 1.0859H34.2718C34.6828 1.0859 34.9636 1.15074 35.1367 1.30233C35.3098 1.43246 35.4609 1.73608 35.5472 2.14749L38.9629 16.6636L42.7032 2.14749C42.8325 1.71374 42.9836 1.43246 43.1352 1.30233C43.3083 1.17221 43.5891 1.0859 43.9786 1.0859H45.9887C46.3349 1.0859 46.5294 1.25896 46.5294 1.62743C46.5294 1.73564 46.5079 1.84386 46.486 1.97399C46.4522 2.15872 46.4016 2.33998 46.3349 2.51552L41.1251 19.2639C40.9949 19.6972 40.8438 19.9785 40.6707 20.1086C40.4981 20.2388 40.2168 20.3255 39.8492 20.3255H37.9902C37.5793 20.3255 37.298 20.2602 37.1254 20.1086C36.9527 19.957 36.8012 19.6753 36.7148 19.242L33.364 5.26785L30.0347 19.2205C29.9265 19.6539 29.7968 19.9356 29.6237 20.0872C29.4511 20.2388 29.1483 20.3036 28.7593 20.3036L26.8999 20.3032ZM54.6795 20.8885C53.5553 20.8885 52.431 20.7584 51.3501 20.4986C50.2693 20.2383 49.4263 19.9566 48.8642 19.6315C48.5181 19.4365 48.2806 19.2197 48.1939 19.0251C48.1098 18.8338 48.0656 18.6273 48.0642 18.4183V17.3134C48.0642 16.8586 48.2372 16.6417 48.5614 16.6417C48.6911 16.6417 48.8208 16.6636 48.9505 16.7066C49.0802 16.7504 49.2747 16.8367 49.4912 16.9234C50.2547 17.2599 51.0519 17.514 51.8693 17.6814C52.7338 17.8549 53.5772 17.9416 54.4416 17.9416C55.8037 17.9416 56.8631 17.7033 57.5979 17.2266C58.3331 16.7499 58.7221 16.0568 58.7221 15.1683C58.7221 14.5619 58.5276 14.0638 58.1385 13.6519C57.7495 13.2401 57.0143 12.872 55.9549 12.5255L52.8205 11.5502C51.2424 11.052 50.0747 10.3155 49.3615 9.34027C48.6482 8.3869 48.2806 7.32531 48.2806 6.19888C48.2806 5.28888 48.4751 4.4871 48.8642 3.79398C49.2533 3.10086 49.772 2.49405 50.4209 2.01736C51.0693 1.51921 51.8041 1.15074 52.6689 0.890928C53.5338 0.630679 54.4416 0.522461 55.3928 0.522461C55.8686 0.522461 56.3659 0.544367 56.8412 0.609211C57.3385 0.674054 57.7924 0.760804 58.2463 0.847554C58.6788 0.955772 59.0897 1.06399 59.4788 1.19368C59.8678 1.32424 60.1706 1.45393 60.3866 1.58405C60.6893 1.75755 60.9058 1.93061 61.0355 2.12558C61.1651 2.29908 61.23 2.53742 61.23 2.84061V3.85926C61.23 4.31448 61.0569 4.55282 60.7327 4.55282C60.5596 4.55282 60.2788 4.46607 59.9112 4.29257C58.6787 3.72957 57.2951 3.44786 55.7604 3.44786C54.5283 3.44786 53.5553 3.64282 52.8854 4.05423C52.215 4.46607 51.8693 5.09435 51.8693 5.98288C51.8693 6.58925 52.0853 7.10887 52.5178 7.52071C52.9502 7.93256 53.7498 8.3444 54.8955 8.71243L57.9655 9.68771C59.5222 10.1859 60.646 10.8794 61.3163 11.7675C61.9866 12.6556 62.3109 13.6738 62.3109 14.8007C62.3109 15.7322 62.1163 16.5773 61.7487 17.3138C61.3597 18.0503 60.8409 18.7005 60.1706 19.2205C59.5002 19.7621 58.7007 20.152 57.7709 20.4337C56.7983 20.7369 55.7818 20.8885 54.6795 20.8885Z" fill="#B3B3B3"/>
</svg>
