<svg width="56" height="56" viewBox="0 0 56 56" fill="none" xmlns="http://www.w3.org/2000/svg">
<path d="M56 0H0V56H56V0Z" fill="url(#paint0_linear_154_700)"/>
<path fill-rule="evenodd" clip-rule="evenodd" d="M38.5415 32.7442C38.5415 30.0076 36.3003 27.7813 33.5454 27.7813C30.7906 27.7813 28.5501 30.0076 28.5501 32.7442C28.5501 35.4807 30.7906 37.707 33.5454 37.707C36.3003 37.707 38.5415 35.4807 38.5415 32.7442ZM39.9488 32.7442C39.9488 36.2517 37.0764 39.105 33.5454 39.105C30.0152 39.105 27.1428 36.2517 27.1428 32.7442C27.1428 29.2366 30.0152 26.3834 33.5454 26.3834C37.0764 26.3834 39.9488 29.2366 39.9488 32.7442ZM45.8568 42.3315L40.9508 37.9418C40.5546 38.4961 40.0966 39.0022 39.5878 39.4544L44.4867 43.8434C44.9047 44.2181 45.5549 44.1831 45.9328 43.7679C46.3085 43.3527 46.2747 42.7075 45.8568 42.3315ZM33.5454 40.3631C37.7752 40.3631 41.2161 36.9451 41.2161 32.7442C41.2161 28.5425 37.7752 25.1252 33.5454 25.1252C29.3164 25.1252 25.8755 28.5425 25.8755 32.7442C25.8755 36.9451 29.3164 40.3631 33.5454 40.3631ZM46.9784 44.7038C46.4985 45.2316 45.8349 45.5 45.17 45.5C44.5902 45.5 44.0089 45.2959 43.5452 44.8821L38.4514 40.3191C37.0349 41.2278 35.3539 41.7611 33.5454 41.7611C28.5403 41.7611 24.4682 37.7161 24.4682 32.7442C24.4682 27.7723 28.5403 23.7272 33.5454 23.7272C38.5513 23.7272 42.6234 27.7723 42.6234 32.7442C42.6234 34.1708 42.2793 35.5156 41.6826 36.7158L46.799 41.2935C47.7925 42.1861 47.8728 43.7148 46.9784 44.7038ZM14.8962 20.5748C14.8962 20.9382 14.9187 21.3003 14.9617 21.6505C14.9863 21.8497 14.9244 22.0489 14.7907 22.1992C14.6844 22.3187 14.5416 22.3977 14.3854 22.4243C12.6551 22.8682 9.80733 24.2116 9.80733 28.242C9.80733 31.2854 11.4968 32.965 12.9147 33.8388C13.3988 34.1421 13.9716 34.3036 14.5761 34.3099L23.0616 34.3176L23.0601 35.7156L14.5683 35.7079C13.6965 35.6988 12.869 35.4625 12.1688 35.0243C10.7636 34.1582 8.4 32.1228 8.4 28.242C8.4 23.5636 11.62 21.8343 13.51 21.2234C13.4959 21.0081 13.4889 20.7915 13.4889 20.5748C13.4889 16.7527 16.0988 12.7887 19.5594 11.3551C23.6069 9.67055 27.895 10.5058 31.0284 13.5877C31.9995 14.5425 32.7982 15.7021 33.411 17.0435C34.2343 16.3662 35.249 15.9922 36.3186 15.9922C38.4204 15.9922 40.7862 17.5768 41.2076 21.0424C43.1758 21.4932 47.3344 23.0688 47.3344 28.2958C47.3344 30.383 46.6758 32.1067 45.3762 33.4194L44.3727 32.4387C45.4043 31.3972 45.9271 30.0034 45.9271 28.2958C45.9271 23.7237 42.0739 22.5865 40.416 22.3104C40.2274 22.2789 40.0607 22.1727 39.953 22.0161C39.8482 21.8651 39.8081 21.6799 39.8397 21.5002C39.6096 18.6623 37.9124 17.3902 36.3186 17.3902C35.313 17.3902 34.3701 17.8767 33.7312 18.7252C33.5757 18.9307 33.3231 19.0356 33.0641 18.9979C32.8087 18.9601 32.5941 18.7854 32.5061 18.5442C31.9298 16.9582 31.0995 15.6245 30.0384 14.5816C27.3229 11.9108 23.6097 11.1867 20.1019 12.6454C17.1824 13.8547 14.8962 17.3371 14.8962 20.5748Z" fill="white"/>
<defs>
<linearGradient id="paint0_linear_154_700" x1="0" y1="5600" x2="5600" y2="0" gradientUnits="userSpaceOnUse">
<stop stop-color="#B0084D"/>
<stop offset="1" stop-color="#FF4F8B"/>
</linearGradient>
</defs>
</svg>
