<svg width="56" height="56" viewBox="0 0 56 56" fill="none" xmlns="http://www.w3.org/2000/svg">
<path d="M56 0H0V56H56V0Z" fill="url(#paint0_linear_154_655)"/>
<path fill-rule="evenodd" clip-rule="evenodd" d="M18.9 37.1H36.4V19.6H18.9V37.1ZM37.8 19.6H40.6V21H37.8V23.8H40.6V25.2H37.8V27.3H40.6V28.7H37.8V31.5H40.6V32.9H37.8V35.7H40.6V37.1H37.8V37.1952C37.8 37.9148 37.2148 38.5 36.4952 38.5H36.4V41.3H35V38.5H32.2V41.3H30.8V38.5H28.7V41.3H27.3V38.5H24.5V41.3H23.1V38.5H20.3V41.3H18.9V38.5H18.8048C18.0852 38.5 17.5 37.9148 17.5 37.1952V37.1H15.4V35.7H17.5V32.9H15.4V31.5H17.5V28.7H15.4V27.3H17.5V25.2H15.4V23.8H17.5V21H15.4V19.6H17.5V19.5048C17.5 18.7852 18.0852 18.2 18.8048 18.2H18.9V15.4H20.3V18.2H23.1V15.4H24.5V18.2H27.3V15.4H28.7V18.2H30.8V15.4H32.2V18.2H35V15.4H36.4V18.2H36.4952C37.2148 18.2 37.8 18.7852 37.8 19.5048V19.6ZM28.7 46.1132C28.7 46.1608 28.6608 46.2 28.6132 46.2H9.8868C9.8392 46.2 9.8 46.1608 9.8 46.1132V27.3868C9.8 27.3392 9.8392 27.3 9.8868 27.3H14V25.9H9.8868C9.0671 25.9 8.4 26.5671 8.4 27.3868V46.1132C8.4 46.9329 9.0671 47.6 9.8868 47.6H28.6132C29.4329 47.6 30.1 46.9329 30.1 46.1132V42.7H28.7V46.1132ZM47.6 9.8868V28.6132C47.6 29.4329 46.9329 30.1 46.1132 30.1H42V28.7H46.1132C46.1608 28.7 46.2 28.6608 46.2 28.6132V9.8868C46.2 9.8392 46.1608 9.8 46.1132 9.8H27.3868C27.3392 9.8 27.3 9.8392 27.3 9.8868V14H25.9V9.8868C25.9 9.0671 26.5671 8.4 27.3868 8.4H46.1132C46.9329 8.4 47.6 9.0671 47.6 9.8868Z" fill="white"/>
<defs>
<linearGradient id="paint0_linear_154_655" x1="0" y1="5600" x2="5600" y2="0" gradientUnits="userSpaceOnUse">
<stop stop-color="#C8511B"/>
<stop offset="1" stop-color="#FF9900"/>
</linearGradient>
</defs>
</svg>
