<svg width="56" height="56" viewBox="0 0 56 56" fill="none" xmlns="http://www.w3.org/2000/svg">
<path d="M56 0H0V56H56V0Z" fill="url(#paint0_linear_156_706)"/>
<path fill-rule="evenodd" clip-rule="evenodd" d="M27.1517 26.3044C26.8054 26.5059 26.5899 26.88 26.5899 27.2816V46.7037L11.8991 38.4889V19.3953L28.3899 9.8412L43.0394 17.0998L27.1517 26.3044ZM44.7442 17.0816C44.7442 16.6793 44.5294 16.3045 44.1419 16.0826L28.9425 8.55023C28.5955 8.35016 28.1646 8.34946 27.8183 8.55093L11.0617 18.2588C10.7155 18.4603 10.5 18.8345 10.5 19.236V38.6511C10.5 39.0526 10.7155 39.4268 11.0722 39.6339L26.3017 48.1498C26.4752 48.2502 26.6704 48.3 26.8648 48.3C27.0586 48.3 27.2538 48.2502 27.4266 48.1498C27.7736 47.949 27.989 47.5748 27.989 47.1726V27.4409L44.1825 18.0588C44.5294 17.858 44.7442 17.4838 44.7442 17.0816ZM44.7785 38.5331L31.4868 46.6629V39.3833L38.4174 34.9108L38.465 34.5971C38.4775 34.5149 38.4824 34.5149 38.4824 34.1365L38.5041 25.4522L44.8002 21.8039L44.7785 38.5331ZM45.6376 20.3501C45.2899 20.1472 44.8589 20.1479 44.512 20.3501L37.8095 24.2328C37.5996 24.3472 37.1057 24.6161 37.1057 25.1707L37.0833 34.1021L30.6956 38.2243C30.3144 38.4517 30.0877 38.8118 30.0877 39.1923V47.1157C30.0877 47.5124 30.3011 47.8739 30.6586 48.081C30.8453 48.1884 31.0531 48.2431 31.2602 48.2431C31.4637 48.2431 31.6673 48.1912 31.8513 48.0845L45.6173 39.6648C45.9635 39.4633 46.1776 39.0891 46.1776 38.6897L46.2 21.3265C46.2 20.925 45.9845 20.5508 45.6376 20.3501Z" fill="white"/>
<defs>
<linearGradient id="paint0_linear_156_706" x1="0" y1="5600" x2="5600" y2="0" gradientUnits="userSpaceOnUse">
<stop stop-color="#C8511B"/>
<stop offset="1" stop-color="#FF9900"/>
</linearGradient>
</defs>
</svg>
