<svg width="56" height="56" viewBox="0 0 56 56" fill="none" xmlns="http://www.w3.org/2000/svg">
<path d="M56 0H0V56H56V0Z" fill="url(#paint0_linear_154_682)"/>
<path fill-rule="evenodd" clip-rule="evenodd" d="M47.2066 43.6272L36.792 33.2126C36.5757 32.997 36.5246 32.6659 36.6653 32.3957C38.1199 29.5936 37.5613 26.0621 35.3073 23.8081C33.7001 22.2009 31.4804 21.4372 29.2236 21.7088C26.9626 21.9825 24.969 23.2873 23.7552 25.29C22.3286 27.6413 22.3923 30.6576 23.9162 32.9753C26.0309 36.1918 30.1532 37.3041 33.5048 35.566C33.7757 35.426 34.1054 35.4764 34.3224 35.6927L36.05 37.4203C36.1809 37.5512 36.2544 37.7297 36.2544 37.9152V40.1853H38.5245C38.7093 40.1853 38.8878 40.2588 39.0194 40.3897L40.0099 41.3795C40.1408 41.5111 40.215 41.6889 40.215 41.8751V44.1445H42.4844C42.6706 44.1445 42.8477 44.2187 42.9793 44.3496L44.2778 45.6488L47.0372 45.8329L47.2066 43.6272ZM48.6269 43.4137L48.3798 46.6309C48.3518 46.9977 48.0452 47.277 47.6826 47.277C47.6665 47.277 47.6511 47.277 47.635 47.2756L43.9229 47.0278C43.7528 47.0166 43.5939 46.9445 43.4742 46.8248L42.1946 45.5445H39.515C39.1279 45.5445 38.815 45.2316 38.815 44.8445V42.1649L38.2347 41.5853H35.5544C35.168 41.5853 34.8544 41.2717 34.8544 40.8853V38.205L33.684 37.0339C29.7822 38.7741 25.1587 37.4147 22.7458 33.7446C20.9272 30.9782 20.8537 27.3746 22.5575 24.5641C23.9967 22.1911 26.3655 20.6441 29.0549 20.3193C31.7443 19.9959 34.384 20.9052 36.2971 22.8183C38.8542 25.3754 39.5752 29.3185 38.1325 32.5735L48.4239 42.8649C48.5681 43.0098 48.643 43.21 48.6269 43.4137ZM31.7961 28.9419C31.7961 28.4743 31.6141 28.0347 31.283 27.7043C30.9519 27.3732 30.5123 27.1912 30.0454 27.1912C29.5785 27.1912 29.1389 27.3732 28.8085 27.7036C28.126 28.3861 28.126 29.4963 28.8085 30.1788C29.4903 30.8613 30.6005 30.8613 31.283 30.1788C31.6141 29.8477 31.7961 29.4088 31.7961 28.9419ZM32.2728 26.7138C32.8685 27.3088 33.1961 28.0998 33.1961 28.9419C33.1961 29.7826 32.8685 30.5736 32.2728 31.1686C31.6589 31.7825 30.8525 32.0898 30.0454 32.0898C29.239 32.0898 28.4326 31.7832 27.8187 31.1686C26.5909 29.9401 26.5909 27.9416 27.8187 26.7138C28.413 26.1188 29.204 25.7912 30.0454 25.7912C30.8875 25.7912 31.6778 26.1188 32.2728 26.7138ZM15.4007 31.4451H19.6V32.8451H15.4C11.3022 32.836 7.9282 29.9296 7.7168 26.2273C7.7077 26.0523 7.7 25.8906 7.7 25.7282C7.7 21.1614 10.9389 19.4639 12.8457 18.8612C12.8331 18.6596 12.8268 18.4559 12.8268 18.2487C12.8268 14.5037 15.4567 10.6271 18.9441 9.23198C23.009 7.59118 27.3196 8.40738 30.4682 11.4146C31.2991 12.1986 32.3617 13.3704 33.1065 14.7991C33.9017 14.1005 34.7998 13.7582 35.8281 13.7582C37.8602 13.7582 40.138 15.3934 40.5517 18.9676C44.765 19.9301 46.9 22.2422 46.9 25.8451C46.9 29.644 44.6446 32.1927 40.7127 32.836L40.4866 31.4542C42.7735 31.0804 45.5 29.8029 45.5 25.8451C45.5 22.7784 43.6779 20.9948 39.7656 20.2325C39.4527 20.1709 39.2203 19.9056 39.2007 19.5871C39.0439 16.9796 37.6565 15.1582 35.8281 15.1582C34.8936 15.1582 34.1607 15.5642 33.4523 16.4749C33.2962 16.6751 33.0463 16.7745 32.7936 16.7374C32.5437 16.6989 32.333 16.5281 32.2441 16.2908C31.6337 14.6598 30.4178 13.2913 29.505 12.4303C26.7617 9.81088 23.0104 9.10248 19.4656 10.5312C16.527 11.7065 14.2268 15.0966 14.2268 18.2487C14.2268 18.6022 14.2478 18.9424 14.2919 19.2882C14.2947 19.3141 14.2961 19.3407 14.2968 19.3673V19.3771C14.2968 19.7306 14.035 20.026 13.6948 20.0743C11.9455 20.5181 9.1 21.8383 9.1 25.7282C9.1 25.8661 9.107 26.004 9.114 26.1363C9.2834 29.1106 12.0456 31.4381 15.4007 31.4451Z" fill="white"/>
<defs>
<linearGradient id="paint0_linear_154_682" x1="0" y1="5600" x2="5600" y2="0" gradientUnits="userSpaceOnUse">
<stop stop-color="#BD0816"/>
<stop offset="1" stop-color="#FF5252"/>
</linearGradient>
</defs>
</svg>
