<svg width="57" height="56" viewBox="0 0 57 56" fill="none" xmlns="http://www.w3.org/2000/svg">
<path d="M56.5 0H0.5V56H56.5V0Z" fill="url(#paint0_linear_154_688)"/>
<path fill-rule="evenodd" clip-rule="evenodd" d="M25.3558 21.5991C24.4554 21.5991 23.7235 20.8664 23.7235 19.9665C23.7235 19.0659 24.4554 18.3331 25.3558 18.3331C26.2561 18.3331 26.9887 19.0659 26.9887 19.9665C26.9887 20.8664 26.2561 21.5991 25.3558 21.5991ZM24.1764 26.9858C25.727 26.9858 26.9887 28.2479 26.9887 29.7988C26.9887 31.3496 25.727 32.6117 24.1764 32.6117C22.6259 32.6117 21.3642 31.3496 21.3642 29.7988C21.3642 28.2479 22.6259 26.9858 24.1764 26.9858ZM24.1764 34.9715C18.7231 34.9715 14.2862 30.5336 14.2862 25.0791C14.2862 19.6246 18.7231 15.1867 24.1764 15.1867C29.6298 15.1867 34.0667 19.6246 34.0667 25.0791C34.0667 26.4845 33.7675 27.82 33.2362 29.0324L28.1639 28.2948C27.7836 27.2893 27.0356 26.4656 26.0828 25.9874V22.957C27.434 22.6284 28.4428 21.4166 28.4428 19.9665C28.4428 18.2639 27.058 16.8795 25.3558 16.8795C23.6536 16.8795 22.2694 18.2639 22.2694 19.9665C22.2694 21.4166 23.2782 22.6284 24.6287 22.957V25.5567C24.4798 25.5413 24.3288 25.5322 24.1764 25.5322C23.0943 25.5322 22.1079 25.9405 21.3544 26.6069L19.5962 24.8309C20.0639 24.1582 20.34 23.3423 20.34 22.4627C20.34 21.0412 19.6256 19.7337 18.4288 18.9652L17.6738 20.1427C18.4673 20.6524 18.9419 21.5194 18.9419 22.4627C18.9419 23.9848 17.7039 25.2231 16.1821 25.2231V26.6216C17.0713 26.6216 17.894 26.3384 18.5714 25.8608L20.4379 27.7466C20.1017 28.3563 19.9101 29.0555 19.9101 29.7988C19.9101 32.1516 21.8241 34.0653 24.1764 34.0653C26.5267 34.0653 28.4393 32.1544 28.4428 29.8044L32.5036 30.3952C30.7448 33.1424 27.6724 34.9715 24.1764 34.9715ZM24.1764 13.733C17.9213 13.733 12.8322 18.8226 12.8322 25.0791C12.8322 31.3356 17.9213 36.4259 24.1764 36.4259C30.4316 36.4259 35.5207 31.3356 35.5207 25.0791C35.5207 18.8226 30.4316 13.733 24.1764 13.733ZM46.0667 44.6982C45.2278 45.626 43.7849 45.703 42.8538 44.866L33.9381 36.8216C35.1055 35.849 36.124 34.7051 36.9594 33.4304L45.8989 41.4846C46.8279 42.3251 46.9027 43.7668 46.0667 44.6982ZM10.354 25.0791C10.354 17.4556 16.5547 11.2537 24.1764 11.2537C31.7982 11.2537 37.9989 17.4556 37.9989 25.0791C37.9989 32.7026 31.7982 38.9046 24.1764 38.9046C16.5547 38.9046 10.354 32.7026 10.354 25.0791ZM46.872 40.4051L37.7109 32.1523C38.8217 30.0358 39.4529 27.6305 39.4529 25.0791C39.4529 16.6536 32.5994 9.8 24.1764 9.8C15.7535 9.8 8.9 16.6536 8.9 25.0791C8.9 33.5046 15.7535 40.3589 24.1764 40.3589C27.3544 40.3589 30.3093 39.3814 32.7566 37.7131L41.8821 45.9463C42.5924 46.5854 43.4843 46.9 44.3735 46.9C45.3942 46.9 46.4106 46.4854 47.1467 45.6708C48.5182 44.1437 48.3952 41.7818 46.872 40.4051Z" fill="white"/>
<defs>
<linearGradient id="paint0_linear_154_688" x1="0.5" y1="5600" x2="5600.5" y2="0" gradientUnits="userSpaceOnUse">
<stop stop-color="#BD0816"/>
<stop offset="1" stop-color="#FF5252"/>
</linearGradient>
</defs>
</svg>
