<svg width="56" height="56" viewBox="0 0 56 56" fill="none" xmlns="http://www.w3.org/2000/svg">
<path d="M56 0H0V56H56V0Z" fill="url(#paint0_linear_154_670)"/>
<path fill-rule="evenodd" clip-rule="evenodd" d="M19.6053 46.2H10.9135L20.5265 26.1072L24.8822 35.0742L19.6053 46.2ZM21.1538 24.1871C21.0359 23.9456 20.7903 23.7923 20.5223 23.7923H20.5202C20.2501 23.793 20.0045 23.9477 19.8887 24.1906L9.16856 46.5983C9.06472 46.8153 9.07945 47.0701 9.20855 47.2738C9.33625 47.4768 9.56077 47.6 9.80143 47.6H20.0494C20.3209 47.6 20.5672 47.4439 20.6837 47.1996L26.2946 35.3696C26.3851 35.1778 26.3844 34.9559 26.2911 34.7655L21.1538 24.1871ZM45.4967 46.2H36.8611L23.0068 17.199C22.891 16.9554 22.644 16.8 22.3732 16.8H16.723L16.7293 9.8H27.8038L41.5943 38.8003C41.7101 39.0439 41.957 39.2 42.2279 39.2H45.4967V46.2ZM46.1984 37.8H42.672L28.8815 8.7997C28.7657 8.5561 28.5188 8.4 28.2472 8.4H16.0284C15.6418 8.4 15.3274 8.7129 15.3267 9.0993L15.319 17.4993C15.319 17.6855 15.392 17.8633 15.5246 17.9949C15.6558 18.1265 15.834 18.2 16.0207 18.2H21.9305L35.7855 47.201C35.902 47.4446 36.1476 47.6 36.4184 47.6H46.1984C46.5864 47.6 46.9 47.2864 46.9 46.9V38.5C46.9 38.1136 46.5864 37.8 46.1984 37.8Z" fill="white"/>
<defs>
<linearGradient id="paint0_linear_154_670" x1="0" y1="5600" x2="5600" y2="0" gradientUnits="userSpaceOnUse">
<stop stop-color="#C8511B"/>
<stop offset="1" stop-color="#FF9900"/>
</linearGradient>
</defs>
</svg>
