<svg width="45" height="44" viewBox="0 0 45 44" fill="none" xmlns="http://www.w3.org/2000/svg">
<path d="M10.4378 29.8105V31.3842C10.4378 32.6052 11.4272 33.5946 12.6482 33.5946H32.3536C33.5746 33.5946 34.564 32.6052 34.564 31.3842V29.8105H44.5V39.4444C44.5 41.6928 42.6604 43.5324 40.412 43.5324H4.58798C2.33959 43.5324 0.5 41.6928 0.5 39.4444V29.8105H10.4378ZM10.436 17.0311V26.967H0.5V17.0311H10.436ZM44.5 17.0311V26.967H34.564V17.0311H44.5ZM40.412 0.467529C42.6604 0.467529 44.5 2.30712 44.5 4.55731V14.1894H34.564V12.6157C34.564 11.3947 33.5746 10.4053 32.3536 10.4053H12.6464C11.4254 10.4053 10.436 11.3947 10.436 12.6157V14.1894H0.5V4.5555C0.5 2.30712 2.33959 0.467529 4.58798 0.467529H40.412Z" fill="#DA1A32"/>
</svg>
