<svg width="56" height="56" viewBox="0 0 56 56" fill="none" xmlns="http://www.w3.org/2000/svg">
<path d="M56 0H0V56H56V0Z" fill="url(#paint0_linear_154_664)"/>
<path fill-rule="evenodd" clip-rule="evenodd" d="M42.5851 30.0248L42.8539 28.132C45.3326 29.6167 45.3648 30.2299 45.3641 30.2467C45.3599 30.2502 44.9371 30.603 42.5851 30.0248ZM41.225 29.6468C36.941 28.3504 30.9749 25.6134 28.5606 24.4724C28.5606 24.4626 28.5634 24.4535 28.5634 24.4437C28.5634 23.5162 27.8088 22.7616 26.8806 22.7616C25.9538 22.7616 25.1992 23.5162 25.1992 24.4437C25.1992 25.3712 25.9538 26.1258 26.8806 26.1258C27.288 26.1258 27.6576 25.9739 27.9495 25.7324C30.7901 27.0771 36.71 29.7742 41.0255 31.0482L39.3189 43.0924C39.314 43.1253 39.3119 43.1582 39.3119 43.1911C39.3119 44.2516 34.617 46.1997 26.9457 46.1997C19.1932 46.1997 14.4486 44.2516 14.4486 43.1911C14.4486 43.1589 14.4465 43.1274 14.4423 43.0959L10.8765 17.051C13.9628 19.1755 20.6009 20.2997 26.9499 20.2997C33.2891 20.2997 39.916 19.1797 43.0086 17.0615L41.225 29.6468ZM10.4999 14.3343C10.5503 13.4131 15.8437 9.79972 26.9499 9.79972C38.0547 9.79972 43.3488 13.4124 43.3999 14.3343V14.6486C42.7909 16.7143 35.9309 18.8997 26.9499 18.8997C17.9535 18.8997 11.09 16.7073 10.4999 14.6388V14.3343ZM44.7999 14.3497C44.7999 11.9242 37.8461 8.39972 26.9499 8.39972C16.0537 8.39972 9.09993 11.9242 9.09993 14.3497L9.16573 14.8775L13.0493 43.2443C13.1424 46.4167 21.6026 47.5997 26.9457 47.5997C33.5761 47.5997 40.6202 46.0751 40.7112 43.2464L42.3884 31.4185C43.3215 31.6418 44.0894 31.7559 44.7061 31.7559C45.5342 31.7559 46.0942 31.5536 46.4337 31.149C46.7123 30.8172 46.8187 30.4154 46.7389 29.9877C46.5576 29.0189 45.4075 27.9745 43.0653 26.6382L44.7285 14.9048L44.7999 14.3497Z" fill="white"/>
<defs>
<linearGradient id="paint0_linear_154_664" x1="0" y1="5600" x2="5600" y2="0" gradientUnits="userSpaceOnUse">
<stop stop-color="#1B660F"/>
<stop offset="1" stop-color="#6CAE3E"/>
</linearGradient>
</defs>
</svg>
