<svg width="56" height="56" viewBox="0 0 56 56" fill="none" xmlns="http://www.w3.org/2000/svg">
<path d="M56 0H0V56H56V0Z" fill="url(#paint0_linear_154_676)"/>
<path fill-rule="evenodd" clip-rule="evenodd" d="M20.1019 30.5814L22.2032 28.5053C22.3349 28.3751 22.4092 28.1984 22.4099 28.0139C22.4106 27.8295 22.337 27.652 22.2061 27.5212L20.1047 25.4214L19.1115 26.4027L20.0129 27.304H16.8063V28.696H20.0241L19.1143 29.5945L20.1019 30.5814ZM36.1394 30.6447L38.9412 28.5554C39.1163 28.4238 39.2207 28.2178 39.2207 27.9993C39.2207 27.7801 39.1163 27.5734 38.9405 27.4418L36.1387 25.3553L35.2982 26.4689L36.4189 27.304H33.6171V28.696H36.4182L35.2975 29.5311L36.1394 30.6447ZM24.6457 28C24.6457 29.4776 24.3901 30.8709 23.9123 32.0833C25.1725 31.5989 26.5937 31.3567 28.0135 31.3567C29.4333 31.3567 30.8545 31.5989 32.1139 32.0833C31.6369 30.8709 31.3812 29.4776 31.3812 28C31.3812 26.5224 31.6369 25.1298 32.1139 23.9167C29.5944 24.8848 26.4326 24.8848 23.9123 23.9167C24.3901 25.1298 24.6457 26.5224 24.6457 28ZM21.2142 34.7558C21.0776 34.6201 21.009 34.4419 21.009 34.2638C21.009 34.0856 21.0776 33.9074 21.2142 33.7717C22.4855 32.5085 23.2448 30.3503 23.2448 28C23.2448 25.6497 22.4855 23.4915 21.2142 22.2283C21.0776 22.0926 21.009 21.9144 21.009 21.7362C21.009 21.5581 21.0776 21.3799 21.2142 21.2442C21.4881 20.972 21.9308 20.972 22.2046 21.2442C24.9189 23.9411 31.1081 23.9411 33.8223 21.2442C34.0962 20.972 34.5389 20.972 34.8128 21.2442C34.9493 21.3799 35.018 21.5581 35.018 21.7362C35.018 21.9144 34.9493 22.0926 34.8128 22.2283C33.5414 23.4915 32.7822 25.6497 32.7822 28C32.7822 30.3503 33.5414 32.5085 34.8128 33.7717C34.9493 33.9074 35.018 34.0856 35.018 34.2638C35.018 34.4419 34.9493 34.6201 34.8128 34.7558C34.6762 34.8915 34.4968 34.9598 34.3175 34.9598C34.1382 34.9598 33.9589 34.8915 33.8223 34.7558C31.1081 32.0589 24.9189 32.0589 22.2046 34.7558C21.9308 35.028 21.4881 35.028 21.2142 34.7558ZM46.2007 28.0035C46.2007 27.3548 45.9464 26.7452 45.4848 26.2865C45.0085 25.8125 44.3823 25.5766 43.7568 25.5766C43.1313 25.5766 42.5051 25.8125 42.0288 26.2865C41.0755 27.233 41.0755 28.7732 42.0288 29.7204C42.9814 30.667 44.5308 30.6677 45.4848 29.7204C45.9464 29.2618 46.2007 28.6521 46.2007 28.0035ZM46.4753 30.7046C45.7258 31.4493 44.7416 31.8216 43.7568 31.8216C42.772 31.8216 41.7878 31.4493 41.0384 30.7046C39.5387 29.2152 39.5387 26.7918 41.0384 25.3024C42.538 23.8116 44.977 23.813 46.4753 25.3024C47.9749 26.7918 47.9749 29.2152 46.4753 30.7046ZM14.686 28.0195C14.686 27.3708 14.4318 26.7612 13.9702 26.3025C13.5086 25.8439 12.895 25.5912 12.2421 25.5912C11.59 25.5912 10.9764 25.8439 10.5141 26.3025C10.0525 26.7612 9.79897 27.3708 9.79897 28.0195C9.79897 28.6674 10.0525 29.2771 10.5141 29.7365C11.438 30.6531 13.047 30.6531 13.9702 29.7365C14.4318 29.2771 14.686 28.6674 14.686 28.0195ZM14.9606 30.7206C14.2111 31.4653 13.227 31.8376 12.2421 31.8376C11.258 31.8376 10.2739 31.4653 9.5237 30.7206C8.02543 29.2312 8.02543 26.8078 9.5237 25.3184C11.0234 23.829 13.4616 23.829 14.9606 25.3184C16.4596 26.8078 16.4596 29.2312 14.9606 30.7206ZM38.4271 38.3993C35.6309 41.1783 31.9122 42.708 27.9574 42.708C24.0013 42.708 20.2833 41.1783 17.4871 38.3993C15.5693 36.4944 14.5137 34.2178 13.966 32.6442L12.6421 33.0994C13.2382 34.8115 14.3904 37.2913 16.4967 39.3834C19.5576 42.4255 23.6273 44.1 27.9574 44.1C32.2869 44.1 36.3565 42.4255 39.4175 39.3834C41.1861 37.6274 42.5948 35.3947 43.3856 33.0973L42.0603 32.6463C41.3374 34.7468 40.0472 36.7902 38.4271 38.3993ZM13.9653 23.3565L12.6428 22.8999C13.4903 20.4751 14.8604 18.2424 16.5009 16.6131C19.5604 13.5738 23.6287 11.9 27.9574 11.9C32.2862 11.9 36.3544 13.5738 39.4133 16.6131C41.1399 18.3287 42.5878 20.6199 43.3842 22.8999L42.0617 23.3565C41.3311 21.2685 40.0052 19.1695 38.4229 17.5973C35.6288 14.8203 31.9115 13.292 27.9574 13.292C24.0027 13.292 20.2861 14.8203 17.4913 17.5973C15.998 19.0818 14.7456 21.1272 13.9653 23.3565Z" fill="white"/>
<defs>
<linearGradient id="paint0_linear_154_676" x1="0" y1="5600" x2="5600" y2="0" gradientUnits="userSpaceOnUse">
<stop stop-color="#B0084D"/>
<stop offset="1" stop-color="#FF4F8B"/>
</linearGradient>
</defs>
</svg>
