<svg width="51" height="56" viewBox="0 0 51 56" fill="none" xmlns="http://www.w3.org/2000/svg">
<path fill-rule="evenodd" clip-rule="evenodd" d="M23.8716 0.381709C24.777 -0.126291 25.8916 -0.126291 26.7956 0.381709C31.269 2.89237 44.7303 10.4497 49.2049 12.9604C50.1103 13.467 50.6676 14.4057 50.6676 15.4217C50.6676 20.443 50.6676 35.5563 50.6676 40.5777C50.6676 41.5937 50.1103 42.5323 49.2049 43.0403C44.7316 45.551 31.2703 53.1083 26.7956 55.619C25.8903 56.127 24.7756 56.127 23.8716 55.619C19.3983 53.1083 5.93697 45.551 1.46231 43.0403C0.55831 42.5323 0.000976562 41.595 0.000976562 40.579C0.000976562 35.5577 0.000976562 20.4444 0.000976562 15.423C0.000976562 14.407 0.55831 13.4684 1.46364 12.9604C5.93564 10.4497 19.3996 2.89237 23.8716 0.381709Z" fill="#00549D"/>
<path fill-rule="evenodd" clip-rule="evenodd" d="M0.406309 41.8723C0.051643 41.3977 0.000976562 40.947 0.000976562 40.3403C0.000976562 35.3484 0.000976562 20.3217 0.000976562 15.3284C0.000976562 14.3177 0.556976 13.3844 1.45964 12.8804C5.91697 10.3844 19.333 2.87104 23.7903 0.373709C24.693 -0.131624 25.9156 -0.120958 26.8183 0.384375C31.2756 2.88037 44.6463 10.3297 49.1036 12.8257C49.4636 13.0284 49.7383 13.2724 49.9836 13.5937L0.406309 41.8723Z" fill="#0086D4"/>
<path fill-rule="evenodd" clip-rule="evenodd" d="M25.3343 9.3337C35.637 9.3337 44.0009 17.6977 44.0009 28.0004C44.0009 38.303 35.637 46.667 25.3343 46.667C15.0316 46.667 6.66764 38.303 6.66764 28.0004C6.66764 17.6977 15.0316 9.3337 25.3343 9.3337ZM25.3343 18.667C30.485 18.667 34.6676 22.8484 34.6676 28.0004C34.6676 33.151 30.485 37.3337 25.3343 37.3337C20.1836 37.3337 16.001 33.151 16.001 28.0004C16.001 22.8484 20.1823 18.667 25.3343 18.667Z" fill="white"/>
<path fill-rule="evenodd" clip-rule="evenodd" d="M49.9809 13.607C50.6689 14.251 50.6556 15.2217 50.6556 15.9857C50.6556 21.0457 50.6129 35.4377 50.6676 40.4977C50.6729 41.0257 50.4983 41.5817 50.2369 42.0003L24.7916 28.0004L49.9809 13.607Z" fill="#0075C0"/>
<path fill-rule="evenodd" clip-rule="evenodd" d="M34.6676 24.0004H37.3343V32.0004H34.6676V24.0004ZM44.0009 24.0004H46.6676V32.0004H44.0009V24.0004Z" fill="white"/>
<path fill-rule="evenodd" clip-rule="evenodd" d="M32.001 26.667H40.0009V29.3337H32.001V26.667ZM41.3343 26.667H49.3343V29.3337H41.3343V26.667Z" fill="white"/>
</svg>
