<svg width="51" height="56" viewBox="0 0 51 56" fill="none" xmlns="http://www.w3.org/2000/svg">
<path d="M50.8777 0H0.772461L5.19351 50.1053L25.8251 56L46.4567 50.1053L50.8777 0Z" fill="#0277BD"/>
<path d="M25.8251 4.42105V51.4316L42.3304 46.7158L46.0146 4.42105H25.8251Z" fill="#039BE5"/>
<path d="M39.2356 11.7895H25.8251V17.6842H33.0461L32.604 23.5789H25.8251V29.4737H32.3093L31.8672 36.1053L25.8251 38.1684V44.3579L37.4672 40.5263L38.4988 23.5789L39.2356 11.7895Z" fill="white"/>
<path d="M25.8251 11.7895V17.6842H12.7093L12.2672 11.7895H25.8251ZM19.0461 23.5789L19.3409 29.4737H25.8251V23.5789H19.0461ZM19.6356 32.4211H13.7409L14.183 40.5263L25.8251 44.3579V38.1684L19.783 36.1053L19.6356 32.4211Z" fill="#EEEEEE"/>
</svg>
