<svg width="51" height="56" viewBox="0 0 51 56" fill="none" xmlns="http://www.w3.org/2000/svg">
<path d="M50.7723 0H0.666992L5.08805 50.1053L25.7196 56L46.3512 50.1053L50.7723 0Z" fill="#E65100"/>
<path d="M25.7196 4.42105V51.4316L42.2249 46.7158L45.9091 4.42105H25.7196Z" fill="#FF6D00"/>
<path d="M25.7196 29.4737V23.5789H38.3933L37.3617 40.5263L25.7196 44.3579V38.1684L31.7617 36.1053L32.2038 29.4737H25.7196ZM38.8354 17.6842L39.2775 11.7895H25.7196V17.6842H38.8354Z" fill="white"/>
<path d="M25.7196 38.1684V44.3579L14.0775 40.5263L13.488 32.4211H19.3828L19.6775 36.1053L25.7196 38.1684ZM18.4986 17.6842H25.7196V11.7895H12.3091L13.3407 29.4737H25.7196V23.5789H18.9407L18.4986 17.6842Z" fill="#EEEEEE"/>
</svg>
