<svg width="43" height="56" viewBox="0 0 43 56" fill="none" xmlns="http://www.w3.org/2000/svg">
<path d="M21.1775 29.2579C19.7803 27.0054 18.7668 25.1378 17.3626 21.6211C14.9882 15.6811 31.8033 10.3136 24.9854 0C27.9408 7.12444 14.3779 11.5287 13.1179 17.4618C11.9657 22.9189 21.1705 29.2579 21.1775 29.2579Z" fill="#D43A02"/>
<path d="M21.4967 18.579C21.2279 22.1013 24.6172 23.9787 24.7152 26.5518C24.7936 28.6462 22.6895 30.3919 22.6895 30.3919C22.6895 30.3919 26.5086 29.6415 27.7 26.4468C29.0229 22.8993 25.1324 20.4703 25.5328 17.6298C25.9066 14.9167 33.976 9.86978 33.976 9.86978C33.976 9.86978 22.1029 10.6566 21.4967 18.579Z" fill="#D43A02"/>
<path d="M32.9849 29.4777C35.4404 28.9262 37.511 30.4899 37.511 32.2917C37.511 36.353 31.8817 40.1917 31.8817 40.1917C31.8817 40.1917 40.5965 39.1529 40.5965 32.4849C40.5965 28.075 36.3168 26.9732 32.9849 29.4777ZM28.8479 32.7537C28.8479 32.7537 31.5653 30.8175 32.2891 30.0909C25.621 31.5063 10.3964 31.6967 10.3964 30.4675C10.3964 29.3349 15.306 28.1744 15.306 28.1744C15.306 28.1744 4.42408 28.0176 4.42408 31.2277C4.42408 34.5736 18.6688 34.813 28.8479 32.7537Z" fill="url(#paint0_linear_145_400)"/>
<path d="M27.1764 35.8C20.8639 37.8986 9.23718 37.228 12.6811 34.4098C11.0039 34.4098 8.51759 35.758 8.51759 37.0544C8.51759 39.6541 21.0921 41.6617 30.3991 37.8552L27.1764 35.8Z" fill="url(#paint1_linear_145_400)"/>
<path d="M14.2281 40.2351C11.9377 40.2351 10.4551 41.7107 10.4551 42.7858C10.4551 46.1332 24.1188 46.4706 29.5325 43.0728L26.0914 40.7881C22.0469 42.5661 11.8873 42.811 14.2281 40.2351Z" fill="url(#paint2_linear_145_400)"/>
<path d="M38.8605 45.6852C38.8605 44.3748 37.3836 43.7574 36.8544 43.462C39.9735 50.9841 5.61126 50.4003 5.61126 45.9596C5.61126 44.9502 8.141 43.9618 10.479 44.4294L8.49099 43.2548C3.8319 42.5241 0.667969 44.5722 0.667969 46.2242C0.667969 53.9282 38.8605 53.5572 38.8605 45.6852Z" fill="url(#paint3_linear_145_400)"/>
<path d="M42.667 48.4459C36.8628 54.1788 22.1449 56.2675 7.34442 52.7256C22.1449 59.0297 42.597 55.4794 42.667 48.4459Z" fill="url(#paint4_linear_145_400)"/>
<defs>
<linearGradient id="paint0_linear_145_400" x1="18.5385" y1="-19.158" x2="94.7399" y2="33.0659" gradientUnits="userSpaceOnUse">
<stop stop-color="#5C65D6"/>
<stop offset="0.999" stop-color="#464EB0"/>
</linearGradient>
<linearGradient id="paint1_linear_145_400" x1="13.8105" y1="-81.9452" x2="154.445" y2="-8.35293" gradientUnits="userSpaceOnUse">
<stop stop-color="#5C65D6"/>
<stop offset="0.999" stop-color="#464EB0"/>
</linearGradient>
<linearGradient id="paint2_linear_145_400" x1="9.01107" y1="-139.194" x2="166.674" y2="-50.1387" gradientUnits="userSpaceOnUse">
<stop stop-color="#5C65D6"/>
<stop offset="0.999" stop-color="#464EB0"/>
</linearGradient>
<linearGradient id="paint3_linear_145_400" x1="14.5696" y1="-95.4427" x2="99.0218" y2="-55.8136" gradientUnits="userSpaceOnUse">
<stop stop-color="#5C65D6"/>
<stop offset="0.999" stop-color="#464EB0"/>
</linearGradient>
<linearGradient id="paint4_linear_145_400" x1="17.0827" y1="28.8156" x2="27.5867" y2="57.6759" gradientUnits="userSpaceOnUse">
<stop stop-color="#5C65D6"/>
<stop offset="0.999" stop-color="#464EB0"/>
</linearGradient>
</defs>
</svg>
