<svg width="57" height="56" viewBox="0 0 57 56" fill="none" xmlns="http://www.w3.org/2000/svg">
<path d="M0.376953 56V0H56.377V56H0.376953Z" fill="#FFD600"/>
<path d="M36.9916 41.9176C38.0681 43.666 39.2378 45.3413 41.7158 45.3413C43.7972 45.3413 44.8892 44.3069 44.8892 42.8758C44.8892 41.1631 43.7598 40.5549 41.4701 39.5578L40.2147 39.0227C36.5918 37.4858 34.1823 35.56 34.1823 31.4922C34.1823 27.7433 37.0523 24.8904 41.537 24.8904C44.7305 24.8904 47.0249 25.9964 48.6801 28.8929L44.7694 31.3927C43.9092 29.8558 42.979 29.2507 41.537 29.2507C40.0654 29.2507 39.1336 30.1793 39.1336 31.3927C39.1336 32.8922 40.067 33.4989 42.2214 34.4276L43.4767 34.9627C47.7467 36.7811 50.1547 38.6384 50.1547 42.8136C50.1547 47.3122 46.6018 49.7778 41.8325 49.7778C37.1674 49.7778 34.5183 47.4367 33.0436 44.5387L36.9916 41.9176ZM18.969 42.0451C19.7561 43.4544 20.9523 44.5387 22.6727 44.5387C24.3185 44.5387 25.2658 43.8884 25.2658 41.3607V24.8889H30.4505V42.1571C30.4505 47.3947 27.4125 49.7778 22.9761 49.7778C18.9674 49.7778 16.0741 47.0618 14.895 44.5387L18.969 42.0451Z" fill="#000001"/>
</svg>
