<svg width="56" height="56" viewBox="0 0 56 56" fill="none" xmlns="http://www.w3.org/2000/svg">
<path d="M28.7138 0.000107825C26.4222 0.00747622 24.8336 0.20937 22.9134 0.540948C17.2427 1.52831 16.2097 3.60178 16.2097 7.42303V13.2632H29.4728V16.2106H9.29515C5.41054 16.2106 2.01076 18.0409 0.933503 22.428C-0.283755 27.4636 -0.338281 30.6173 0.933503 35.8753C1.89876 39.7968 4.02528 42.7368 7.91137 42.7368H13.2638V35.2151C13.2638 30.8442 17.2221 26.5263 21.7581 26.5263H32.4216C36.1397 26.5263 39.79 23.7823 39.79 20.076V7.42303C39.79 3.82872 37.1978 1.14073 33.574 0.538C33.6639 0.529158 30.9862 -0.00873425 28.7138 0.000107825ZM21.369 5.89482C22.5789 5.89482 23.5795 6.8925 23.5795 8.10829C23.5795 9.33586 22.5789 10.3159 21.369 10.3159C20.1355 10.3159 19.1585 9.33733 19.1585 8.10829C19.1585 6.89692 20.1355 5.89482 21.369 5.89482Z" fill="url(#paint0_linear_145_459)"/>
<path d="M27.2858 55.9999C29.5774 55.9925 31.166 55.7906 33.0862 55.459C38.7569 54.4717 39.79 52.3982 39.79 48.577V42.7368H26.5269V39.7894H46.706C50.5906 39.7894 53.9903 37.9591 55.0676 33.572C56.2849 28.5364 56.3394 25.3827 55.0676 20.1247C54.1009 16.2032 51.9744 13.2632 48.0883 13.2632H42.7359V20.7849C42.7359 25.1558 38.7776 29.4737 34.2416 29.4737H23.578C19.86 29.4737 16.2097 32.2177 16.2097 35.924V48.577C16.2097 52.1713 18.8019 54.8593 22.4256 55.462C22.3357 55.4708 25.0134 56.0087 27.2858 55.9999ZM34.6321 50.1052C33.4222 50.1052 32.4216 49.1075 32.4216 47.8917C32.4216 46.6641 33.4222 45.6841 34.6321 45.6841C35.8656 45.6841 36.8426 46.6627 36.8426 47.8917C36.8426 49.1031 35.8641 50.1052 34.6321 50.1052Z" fill="url(#paint1_linear_145_459)"/>
<defs>
<linearGradient id="paint0_linear_145_459" x1="12.2276" y1="15.3943" x2="43.1511" y2="43.2649" gradientUnits="userSpaceOnUse">
<stop stop-color="#26ABE7"/>
<stop offset="1" stop-color="#086DBF"/>
</linearGradient>
<linearGradient id="paint1_linear_145_459" x1="45.3472" y1="48.5003" x2="27.9328" y2="23.629" gradientUnits="userSpaceOnUse">
<stop stop-color="#FEB705"/>
<stop offset="1" stop-color="#FFDA1C"/>
</linearGradient>
</defs>
</svg>
