<svg width="41" height="56" viewBox="0 0 41 56" fill="none" xmlns="http://www.w3.org/2000/svg">
<path d="M5.92695 26.512C10.703 28.1907 15.7415 28.9989 20.803 28.898C25.8645 28.9982 30.903 28.1894 35.679 26.51C39.407 25.056 40.729 23.44 40.729 22.51V15.4C39.4256 16.2728 38.0273 16.9948 36.561 17.552C31.5078 19.3614 26.1695 20.2436 20.803 20.156C15.4368 20.2419 10.0991 19.3612 5.04495 17.556C3.57789 16.9988 2.17945 16.2754 0.876953 15.4V22.5C0.876953 23.448 2.20295 25.056 5.92695 26.512Z" fill="#4484FF"/>
<path d="M5.92695 39.922C7.61417 40.5654 9.35402 41.0613 11.127 41.404C14.315 42.0207 17.5558 42.3242 20.803 42.31C24.05 42.3248 27.2908 42.0221 30.479 41.406C32.2519 41.0633 33.9917 40.5674 35.679 39.924C39.407 38.47 40.729 36.854 40.729 35.924V29.144C39.6516 29.7923 38.5192 30.3444 37.345 30.794C32.0365 32.6735 26.4334 33.5833 20.803 33.48C15.1719 33.5801 9.56878 32.6669 4.26095 30.784C3.0872 30.3333 1.95492 29.7812 0.876953 29.134V35.92C0.876953 36.852 2.20295 38.462 5.92695 39.922Z" fill="#4484FF"/>
<path d="M20.803 56C31.803 56 40.729 52.512 40.729 48.212V42.538C39.7489 43.1288 38.7221 43.6385 37.659 44.062L37.345 44.188C32.0375 46.0731 26.4343 46.9883 20.803 46.89C15.1714 46.9912 9.56767 46.0758 4.26095 44.188C4.15295 44.148 4.04895 44.102 3.94695 44.062C2.8838 43.6385 1.85705 43.1288 0.876953 42.538V48.212C0.876953 52.512 9.80295 56 20.803 56Z" fill="#4484FF"/>
<path d="M20.803 15.576C31.8078 15.576 40.729 12.0892 40.729 7.788C40.729 3.48681 31.8078 0 20.803 0C9.79813 0 0.876953 3.48681 0.876953 7.788C0.876953 12.0892 9.79813 15.576 20.803 15.576Z" fill="#4484FF"/>
</svg>
