<svg width="57" height="56" viewBox="0 0 57 56" fill="none" xmlns="http://www.w3.org/2000/svg">
<path d="M56.377 0H0.376953V56H56.377V0Z" fill="#1976D2"/>
<path d="M33.8058 24.8889H13.1745V29.9662H20.5743V52.8889H26.4372V29.9662H33.8058V24.8889Z" fill="white"/>
<path d="M52.0121 31.2418C52.0121 31.2418 49.2323 29.3876 46.0901 29.3876C42.9478 29.3876 41.817 30.8809 41.817 32.4769C41.817 36.596 53.2985 36.1838 53.2985 44.4733C53.2985 57.2429 35.7923 51.5791 35.7923 51.5791V45.4533C35.7923 45.4533 39.1398 47.9764 43.1547 47.9764C47.1696 47.9764 47.0172 45.3507 47.0172 44.9898C47.0172 41.1802 35.6383 41.1802 35.6383 32.7351C35.6383 21.2536 52.2174 25.7833 52.2174 25.7833L52.0121 31.2418Z" fill="white"/>
</svg>
