<svg width="54" height="56" viewBox="0 0 54 56" fill="none" xmlns="http://www.w3.org/2000/svg">
<path d="M1.8785 0.474394C3.0894 -0.363912 4.75057 -0.0618765 5.58889 1.14901L11.5097 9.70137L18.1715 1.04101C19.0695 -0.126331 20.7438 -0.344712 21.9111 0.553242C23.0784 1.45119 23.2968 3.12544 22.3989 4.29279L14.063 15.1294V24.889C14.063 26.3618 12.8691 27.5557 11.3963 27.5557C9.92361 27.5557 8.72969 26.3618 8.72969 24.889V15.0554L1.20389 4.18477C0.36558 2.9739 0.667616 1.3127 1.8785 0.474394ZM30.063 0.000241231C31.1204 0.000241231 32.0779 0.625051 32.5038 1.59293L42.2815 23.8151C42.8747 25.1631 42.2626 26.7367 40.9147 27.3299C39.5665 27.923 37.9929 27.311 37.3997 25.963L34.9717 20.4446H25.1541L22.726 25.963C22.1329 27.311 20.5593 27.923 19.2112 27.3299C17.8632 26.7367 17.2512 25.1631 17.8444 23.8151L27.6221 1.59293C28.048 0.625051 29.0055 0.000241231 30.063 0.000241231ZM27.5008 15.1113H32.6251L30.063 9.28819L27.5008 15.1113ZM32.596 30.3315C33.7295 30.6663 34.5073 31.7071 34.5073 32.889V53.3334C34.5073 54.8062 33.3135 56 31.8407 56C30.3679 56 29.1741 54.8062 29.1741 53.3334V41.9188L24.3018 49.4487C23.8282 50.1805 23.0266 50.6349 22.1552 50.665C21.2839 50.6954 20.4528 50.2974 19.9297 49.5999L14.063 41.7777V53.3334C14.063 54.8062 12.8691 56 11.3963 56C9.92361 56 8.72969 54.8062 8.72969 53.3334V33.7779C8.72969 32.6301 9.46416 31.611 10.5531 31.2481C11.642 30.8851 12.841 31.2596 13.5297 32.1779L21.9017 43.3405L29.6019 31.4403C30.2439 30.4481 31.4625 29.9968 32.596 30.3315ZM40.7296 30.2223C42.2024 30.2223 43.3962 31.4162 43.3962 32.889V50.6667H50.5072C51.98 50.6667 53.1738 51.8606 53.1738 53.3334C53.1738 54.8062 51.98 56 50.5072 56H40.7296C39.2568 56 38.0629 54.8062 38.0629 53.3334V32.889C38.0629 31.4162 39.2568 30.2223 40.7296 30.2223Z" fill="#D0CCCC"/>
</svg>
