<svg width="36" height="35" viewBox="0 0 36 35" fill="none" xmlns="http://www.w3.org/2000/svg">
<path d="M35.1797 17.9376C35.1797 21.8471 34.0667 25.3628 31.8407 28.4848C29.6147 31.6068 26.74 33.7669 23.2167 34.9651C22.806 35.0444 22.5062 34.9901 22.3172 34.8023C22.224 34.7115 22.1506 34.6025 22.1015 34.4821C22.0524 34.3616 22.0288 34.2323 22.0319 34.1023V29.1726C22.0319 27.6617 21.637 26.5563 20.8472 25.8563C21.6354 25.7753 22.4164 25.6349 23.1834 25.4363C23.8729 25.2496 24.5864 24.9463 25.3237 24.5263C26.031 24.1286 26.6573 23.6014 27.1699 22.9723C27.6634 22.3563 28.0659 21.5385 28.3774 20.5188C28.6889 19.4991 28.8447 18.3278 28.8447 17.0048C28.8447 15.1195 28.245 13.5153 27.0457 12.1923C27.6057 10.776 27.5444 9.18757 26.8619 7.42707C26.4373 7.28707 25.8224 7.37282 25.0174 7.68432C24.2875 7.95921 23.5855 8.30319 22.9209 8.71157L22.0547 9.27157C20.632 8.86524 19.1592 8.66141 17.6797 8.66607C16.2001 8.66198 14.7273 8.8664 13.3047 9.27332C12.9879 9.05449 12.6652 8.84441 12.3369 8.64332C11.9344 8.39365 11.2998 8.09382 10.4329 7.74382C9.56844 7.39382 8.9151 7.28882 8.47294 7.42882C7.8056 9.18698 7.7531 10.7748 8.31544 12.1923C7.11377 13.5153 6.51294 15.1195 6.51294 17.0048C6.51294 18.3278 6.66927 19.4956 6.98194 20.5083C7.29344 21.5198 7.69185 22.3371 8.17719 22.9601C8.67885 23.5979 9.30225 24.1297 10.0112 24.5246C10.7485 24.9446 11.4625 25.2479 12.1532 25.4346C12.845 25.6236 13.6238 25.7641 14.4894 25.8563C13.8828 26.4163 13.5106 27.2184 13.3729 28.2626C13.0469 28.4213 12.7025 28.5388 12.3474 28.6126C11.9198 28.6965 11.4847 28.7357 11.0489 28.7298C10.5473 28.7298 10.0497 28.5624 9.55619 28.2276C9.06269 27.8916 8.64094 27.4051 8.29094 26.7681C8.01913 26.2852 7.64163 25.87 7.18669 25.5536C6.73869 25.2421 6.36244 25.0554 6.05794 24.9936L5.60294 24.9236C5.28444 24.9236 5.06394 24.9586 4.94144 25.0286C4.81894 25.0986 4.78102 25.1878 4.82769 25.2963C4.87821 25.4155 4.94732 25.526 5.03244 25.6236C5.12033 25.7282 5.22018 25.8222 5.32994 25.9036L5.48744 26.0191C5.82227 26.1766 6.15302 26.4729 6.47969 26.9081C6.80635 27.3444 7.04552 27.7411 7.19719 28.0981L7.42469 28.6353C7.62302 29.2268 7.95785 29.7057 8.42919 30.0721C8.90052 30.4396 9.40919 30.6729 9.95519 30.7721C10.5012 30.8736 11.0291 30.9284 11.5389 30.9366C12.0476 30.9436 12.4694 30.9162 12.8042 30.8543L13.3274 30.7616C13.3274 31.3531 13.3315 32.0461 13.3397 32.8406L13.3502 34.1006C13.3502 34.3806 13.251 34.6139 13.0527 34.8006C12.8567 34.9896 12.5534 35.0444 12.1427 34.9651C8.61819 33.7657 5.74352 31.6057 3.51869 28.4848C1.29269 25.3617 0.179688 21.8459 0.179688 17.9376C0.179688 14.6826 0.961938 11.6813 2.52644 8.93382C4.04216 6.23818 6.23862 3.98741 8.89644 2.40632C11.5468 0.810863 14.5862 -0.0218158 17.6797 6.65594e-05C20.7737 -0.0221386 23.8138 0.810552 26.4647 2.40632C29.1219 3.98765 31.3177 6.2384 32.8329 8.93382C34.3974 11.6825 35.1797 14.6837 35.1797 17.9376Z" fill="white"/>
</svg>
