<svg width="36" height="35" viewBox="0 0 36 35" fill="none" xmlns="http://www.w3.org/2000/svg">
<path d="M26.9766 0.000427246H8.38281C3.85235 0.000427246 0.179688 3.67309 0.179688 8.20355V26.7973C0.179688 31.3278 3.85235 35.0004 8.38281 35.0004H26.9766C31.507 35.0004 35.1797 31.3278 35.1797 26.7973V8.20355C35.1797 3.67309 31.507 0.000427246 26.9766 0.000427246Z" fill="#0073AA"/>
<path d="M5.95113 17.4996C5.95113 22.1419 8.649 26.1538 12.5611 28.055L6.96654 12.7266C6.2959 14.2284 5.94989 15.8549 5.95113 17.4996ZM25.5968 16.9078C25.5968 15.4584 25.0762 14.4546 24.6296 13.6733C24.0351 12.7072 23.4778 11.8891 23.4778 10.923C23.4778 9.84486 24.2955 8.84134 25.4472 8.84134C25.4993 8.84134 25.5485 8.84777 25.5993 8.85064C23.5127 6.93904 20.7328 5.77187 17.6793 5.77187C13.5821 5.77187 9.97723 7.87406 7.88023 11.0582C8.15531 11.0664 8.41467 11.0723 8.63492 11.0723C9.8617 11.0723 11.7606 10.9233 11.7606 10.9233C12.3928 10.8861 12.4674 11.8147 11.8358 11.8895C11.8358 11.8895 11.2004 11.9643 10.4935 12.0013L14.7643 24.705L17.3309 17.0073L15.5037 12.0009C14.8722 11.9639 14.2739 11.8891 14.2739 11.8891C13.6418 11.852 13.7159 10.8857 14.348 10.923C14.348 10.923 16.2847 11.0718 17.4371 11.0718C18.6638 11.0718 20.5628 10.923 20.5628 10.923C21.1955 10.8857 21.2698 11.8143 20.638 11.8891C20.638 11.8891 20.0013 11.9639 19.2957 12.0009L23.5341 24.6083L24.7039 20.6992C25.211 19.0769 25.5968 17.9118 25.5968 16.9078Z" fill="white"/>
<path d="M17.8852 18.5255L14.3663 28.7507C15.4421 29.0676 16.5579 29.2285 17.6794 29.2286C19.0059 29.229 20.3228 29.0042 21.574 28.5637C21.5414 28.5124 21.5135 28.4583 21.4906 28.4021L17.8852 18.5255ZM27.9704 11.8728C28.0237 12.2725 28.0501 12.6754 28.0494 13.0787C28.0494 14.2688 27.8271 15.6067 27.1576 17.2796L23.5751 27.6373C27.0619 25.604 29.4071 21.8266 29.4071 17.4999C29.4073 15.4607 28.8865 13.5432 27.9704 11.8728Z" fill="white"/>
<path d="M17.6794 3.82855C10.141 3.82855 4.00781 9.96135 4.00781 17.4996C4.00781 25.0388 10.141 31.1713 17.6794 31.1713C25.2174 31.1713 31.3516 25.0388 31.3516 17.4996C31.3513 9.96135 25.2174 3.82855 17.6794 3.82855ZM17.6794 30.5448C10.4866 30.5448 4.63467 24.6927 4.63467 17.4996C4.63467 10.307 10.4865 4.45541 17.6794 4.45541C24.8718 4.45541 30.7233 10.307 30.7233 17.4996C30.7233 24.6927 24.8718 30.5448 17.6794 30.5448Z" fill="white"/>
</svg>
