<svg width="57" height="56" viewBox="0 0 57 56" fill="none" xmlns="http://www.w3.org/2000/svg">
<path d="M56.2676 0H0.267578V56H56.2676V0Z" fill="url(#paint0_linear_170_432)"/>
<path d="M28.3647 45.6577H14.2136C13.7399 45.6577 13.503 45.086 13.8357 44.7509L22.9513 35.5843C23.0525 35.4831 23.1882 35.4274 23.3292 35.4274H28.4739C32.4502 35.4274 35.8143 32.3186 35.934 28.3482C36.0565 24.2209 32.7322 20.8277 28.631 20.8277H23.1191V27.6153C23.1191 27.9077 22.8795 28.1471 22.5867 28.1471H13.4125C13.1198 28.1471 12.8802 27.9077 12.8802 27.6153V11.1265C12.8802 10.834 13.1198 10.5946 13.4125 10.5946H28.631C38.396 10.5946 46.3245 18.6071 46.1755 28.3987C46.0291 38.0175 37.9941 45.6577 28.3647 45.6577Z" fill="white"/>
<defs>
<linearGradient id="paint0_linear_170_432" x1="37.6884" y1="26.182" x2="80.9938" y2="-23.1994" gradientUnits="userSpaceOnUse">
<stop/>
<stop offset="1" stop-color="#404043"/>
</linearGradient>
</defs>
</svg>
