<svg width="81" height="40" viewBox="0 0 81 40" fill="none" xmlns="http://www.w3.org/2000/svg">
<path d="M9.7188 30.4797C9.7188 30.4797 10.531 33.8218 10.4045 34.2911C10.278 34.7606 7.96782 35.1334 6.62296 35.8223C5.74081 36.2751 4.31938 37.2839 5.18489 38.0993C5.65426 38.5422 6.96583 37.4237 10.9039 37.1973C14.9018 36.9675 15.6076 37.2937 15.4012 36.4482C15.1981 35.6061 14.1362 35.5094 13.2441 35.1366C12.9478 35.0136 12.6049 34.817 12.4618 34.604C12.3253 34.4011 12.525 30.9489 12.525 30.9489L9.7188 30.4797Z" fill="#FEBA02"/>
<path d="M17.0923 32.8226C17.0923 32.8226 17.1855 36.2016 17.1855 36.4178C17.1855 36.7342 16.4132 37.1137 15.2647 37.3699C14.1163 37.6263 11.8426 38.0524 11.8127 39.507C11.7927 40.4026 16.1801 39.1909 18.6868 39.2274C21.1934 39.2641 22.8013 39.5935 22.6847 38.5416C22.5915 37.6996 21.2866 37.3166 20.5842 37.1635C19.8818 37.0104 19.5623 36.6676 19.5423 36.2482C19.529 35.9752 19.5889 32.8959 19.5889 32.8959L17.0923 32.8226Z" fill="#FEBA02"/>
<path d="M10.3447 1.36194L13.3606 1.15888C13.3606 1.15888 15.0384 1.70149 16.6329 4.01172C18.7501 7.08426 18.4704 12.7034 18.4704 12.7034L24.2826 28.1992L24.9851 33.3222C24.9851 33.3222 19.7853 34.1411 14.6922 33.4788C8.69356 32.6964 2.50853 27.2605 2.60174 19.1381C2.69495 11.0156 9.13297 3.17284 9.13297 3.17284L10.3447 1.36194Z" fill="url(#paint0_linear_150_420)"/>
<path d="M3.44067 4.33132C3.44067 4.33132 1.12711 5.05035 0.471321 7.64354C-0.184465 10.2367 0.910731 12.6501 1.39342 12.8133C1.57983 12.8765 2.15905 11.7048 2.15905 11.7048C2.15905 11.7048 2.9713 12.6435 3.37742 12.8599C3.78354 13.0796 3.9866 13.2427 4.34612 13.2194C5.04851 13.1728 6.08046 11.1255 6.0505 9.75071L6.41001 3.01641L3.44067 4.33132Z" fill="#FFD51D"/>
<path d="M6.33665 8.04633C6.33665 8.04633 9.15619 7.57696 10.2813 6.60826C11.4065 5.63956 12.7181 4.76407 13.1542 3.01641C13.4205 1.95118 13.4338 1.20551 13.4338 1.20551C13.4338 1.20551 9.5024 -1.07476 5.94051 0.799391C2.37863 2.67354 3.22083 5.22012 3.22083 5.22012L6.33665 8.04633Z" fill="#FF2B23"/>
<path d="M6.22011 8.42257C6.22011 8.42257 3.93984 9.76743 3.69017 9.95385C3.44051 10.1403 2.62494 10.5464 2.2521 10.8593C1.65957 11.3586 1.12695 12.4838 1.34665 12.7667C1.56636 13.0464 1.87927 12.1742 2.75143 11.6416C3.6236 11.109 5.12491 10.2668 5.53103 10.0471C5.93716 9.82735 6.06365 9.70418 6.06365 9.70418L6.22011 8.42257Z" fill="#FF600D"/>
<path d="M6.99581 7.83645C7.15227 7.50689 7.22218 6.75124 6.16027 5.42302C4.91195 3.86179 3.16096 3.79854 3.16096 3.79854L2.97455 4.42436L4.91195 6.36176L5.98717 8.68198C5.98717 8.68198 6.67291 8.51554 6.99581 7.83645Z" fill="#A02A1B"/>
<path d="M1.68966 5.48638C1.68966 5.48638 3.12773 5.57959 4.12639 6.45508C4.71892 6.97438 5.61439 8.08622 5.83409 8.58888C6.0538 9.09154 6.80279 7.70007 6.21026 6.76133C5.61772 5.82259 4.90867 4.88053 3.5971 4.42447C2.6517 4.09824 1.75291 4.89384 1.68966 5.48638Z" fill="#EC80AF"/>
<path d="M12.8746 7.33046C12.8746 7.33046 11.7195 4.3944 9.34266 4.51757C6.94588 4.64407 6.57638 6.42501 6.68623 7.48692C6.81273 8.71527 7.62497 9.39436 9.49912 9.33111C11.3766 9.26453 12.8746 7.33046 12.8746 7.33046Z" fill="#FBD3B3"/>
<path d="M11.1269 6.95398C11.1269 7.71296 10.3013 8.39205 9.54903 8.39205C8.80003 8.39205 8.19085 7.77621 8.19085 7.01723C8.19085 6.25825 8.62693 5.4227 9.68884 5.36278C10.8107 5.29288 11.1269 6.195 11.1269 6.95398Z" fill="#312F2A"/>
<path d="M25.1548 25.5761C25.1548 25.5761 25.9036 27.2637 28.7798 29.1377C31.22 30.7289 32.405 31.7012 34.0929 32.2938C35.7805 32.8863 35.8439 33.0426 35.7805 33.3555C35.7174 33.6684 33.094 35.699 30.2178 35.4495C27.3452 35.1997 25.9702 34.0746 25.0948 33.482C24.2192 32.8895 22.5649 28.7018 22.5649 28.7018L25.1548 25.5761Z" fill="#01AB46"/>
<path d="M18.4837 12.6234C18.4837 12.6234 14.4991 13.7951 12.7514 16.4516C11.2867 18.6752 11.4165 22.4568 12.9079 25.2631C14.7521 28.7316 18.5636 31.1984 20.5942 32.1372C22.6248 33.0759 25.4043 33.5419 26.6227 33.4186C27.841 33.2956 25.5308 24.8902 23.3106 20.3896C21.1468 15.9988 18.4837 12.6234 18.4837 12.6234Z" fill="#B7D019"/>
<path d="M46.9689 33.3222C44.8052 31.1151 44.8052 27.5931 46.9689 25.3862L53.2072 19.1479C53.8863 18.4688 54.7785 17.9595 55.7105 17.7065C56.6426 17.4535 57.6213 17.4535 58.5103 17.6632C59.4423 17.9162 60.3345 18.3856 61.0567 19.0647C61.1001 19.1079 61.1001 19.1079 61.1401 19.1479C63.347 21.3549 63.347 24.8769 61.1401 27.0839L54.9018 33.3222C52.6981 35.5291 49.1327 35.5291 46.9689 33.3222ZM64.622 15.6692C60.5076 11.5547 53.7598 11.5547 49.6422 15.6692L43.447 21.9075C39.3325 26.0219 39.3325 32.7696 43.447 36.8873C47.5615 41.0053 54.3092 41.0018 58.4269 36.8873L64.6652 30.649C68.7365 26.5314 68.7365 19.787 64.622 15.6692Z" fill="#84B0C1"/>
<path d="M61.2663 14.8337C62.3848 14.2711 63.4535 14.6639 63.4535 14.6639C61.1432 12.9562 58.6232 12.4702 56.4527 12.6067C56.4394 12.6233 56.4296 12.6399 56.4163 12.6599C55.4642 14.1213 55.2512 16.052 55.8437 17.6765C56.7358 17.4568 57.6613 17.4635 58.5068 17.6665C58.853 17.7597 59.1158 17.8496 59.6351 18.0926C59.6386 18.0893 59.4554 15.7458 61.2663 14.8337Z" fill="#2F7889"/>
<path d="M54.5758 18.1559C54.6189 17.833 54.6389 17.5068 54.6589 17.1805C54.7521 15.7758 54.9918 14.3776 55.3713 13.0228C55.3979 12.9263 55.4245 12.8231 55.4512 12.7199C54.4227 12.883 53.4139 13.1959 52.4653 13.6619C50.9873 15.5694 51.4733 18.0394 53.2075 19.1512C53.6038 18.7551 54.0698 18.4189 54.5758 18.1559Z" fill="#2F7889"/>
<path d="M73.6598 6.67795C75.8235 8.88499 75.8235 12.4069 73.6598 14.614L67.4215 20.8523C66.7424 21.5313 65.8503 22.0407 64.9182 22.2937C63.9861 22.5466 63.0074 22.5466 62.1187 22.3369C61.1867 22.0839 60.2945 21.6146 59.572 20.9355C59.5289 20.8922 59.5289 20.8922 59.4889 20.8523C57.2818 18.6452 57.2818 15.1233 59.4889 12.9162L65.7272 6.67795C67.9309 4.47092 71.496 4.47092 73.6598 6.67795ZM56.0069 24.3309C60.1214 28.4453 66.8689 28.4453 70.9868 24.3309L77.1817 18.0926C81.2962 13.9782 81.2962 7.23054 77.1817 3.11274C73.0672 -1.00506 66.3198 -1.00174 62.2018 3.11274L55.967 9.35103C51.8925 13.4688 51.8925 20.2131 56.0069 24.3309Z" fill="#84B0C1"/>
<path d="M55.8035 11.8177C55.8168 11.8077 55.8301 11.7944 55.8434 11.7844C56.0197 11.6313 56.2163 11.4848 56.4458 11.4449C56.6756 11.4049 56.9452 11.5081 57.025 11.7278C57.085 11.8909 57.0317 12.0707 56.9752 12.2338C56.0996 14.8802 55.3974 18.2391 56.2496 20.9787C56.3326 21.245 56.4125 21.5879 56.1896 21.7544C56.0597 21.8542 55.8666 21.8376 55.7236 21.761C54.159 20.9155 53.8861 18.6252 53.8128 17.054C53.7263 15.07 54.2754 13.1592 55.8035 11.8177Z" fill="#A8E3F0"/>
<path d="M62.7515 22.4435C62.5384 22.4168 62.3121 22.3736 62.3121 22.3736C62.3121 22.3736 62.2788 23.795 61.1435 24.9734C59.8852 26.2784 58.6304 26.2451 58.6304 26.2451C59.2927 26.6278 60.6144 27.024 61.0937 27.1372L61.1435 27.0871C62.4186 25.8089 62.9512 24.0913 62.7515 22.4435Z" fill="#2F7889"/>
<path d="M69.2223 19.0512L67.4478 20.8255C67.8907 22.8028 67.7709 24.88 67.0851 26.7974C67.9472 26.4911 68.7762 26.0685 69.5485 25.5324C70.8233 23.3488 70.5437 20.7689 69.2223 19.0512Z" fill="#2F7889"/>
<path d="M65.6039 22.0007C65.3943 21.4714 64.9848 20.9355 64.4721 20.9854C64.1525 21.0154 63.6567 21.315 63.69 22.2304C63.7131 22.9395 63.9829 23.6319 63.5968 24.5606C63.0308 25.9188 63.1605 26.285 63.2972 26.5013C63.4468 26.7377 63.7232 26.8443 63.9794 26.8408C64.6553 26.8376 65.2146 26.2184 65.5208 25.5394C66.0167 24.4541 66.0468 23.1126 65.6039 22.0007Z" fill="#A8E3F0"/>
<path d="M55.4043 34.707C55.6173 34.5307 56.1699 33.9414 56.4261 34.3142C56.3329 35.3395 55.5441 36.1752 54.6786 36.7345C53.6134 37.4234 52.3516 37.8295 51.0834 37.793C50.0315 37.7629 48.2872 37.3368 47.6747 36.3616C47.1753 35.5694 48.2304 35.4327 48.8163 35.6524C50.9037 36.4482 53.2637 36.4647 55.4043 34.707Z" fill="#A8E3F0"/>
<defs>
<linearGradient id="paint0_linear_150_420" x1="33.8491" y1="36.6233" x2="36.7194" y2="8.71054" gradientUnits="userSpaceOnUse">
<stop offset="0.1362" stop-color="#79DA88"/>
<stop offset="0.3039" stop-color="#57CD75"/>
<stop offset="0.6343" stop-color="#19B553"/>
<stop offset="0.7914" stop-color="#01AB46"/>
</linearGradient>
</defs>
</svg>
