<svg width="57" height="56" viewBox="0 0 57 56" fill="none" xmlns="http://www.w3.org/2000/svg">
<path d="M12.9306 39.8999C16.5196 37.2967 20.2062 32.9865 23.1709 27.5495C26.1356 22.1125 27.822 16.5602 28.169 11.9469L43.4075 16.2478C43.4075 11.9386 41.802 7.80593 38.9443 4.75887C36.0865 1.71182 32.2105 0 28.169 0C24.1275 0 20.2516 1.71182 17.3938 4.75887C14.536 7.80593 12.9306 11.9386 12.9306 16.2478V39.8999ZM42.3385 41.8765C38.4268 39.8646 33.0834 38.615 27.1855 38.5964C21.2875 38.5779 15.9354 39.7958 12.0133 41.7817L7.88711 25.5618C4.38699 27.7163 1.83297 31.2652 0.786902 35.4276C-0.259169 39.59 0.288398 44.025 2.30915 47.757C4.32989 51.4889 7.65829 54.2121 11.5621 55.3275C15.466 56.4428 19.6255 55.859 23.1256 53.7044L42.3385 41.8765ZM48.451 25.5618L29.2381 13.7357C29.5607 18.3508 31.2157 23.9087 34.1507 29.3662C37.084 34.8218 40.7498 39.1543 44.3248 41.7817L33.2142 53.7007C34.9486 54.8054 36.8716 55.5313 38.8715 55.8363C40.8714 56.1413 42.9082 56.0192 44.8634 55.4772C46.8187 54.9352 48.6533 53.9841 50.2607 52.6792C51.868 51.3742 53.2159 49.7415 54.226 47.8761C55.2361 46.0106 55.8883 43.9496 56.1445 41.8129C56.4007 39.6763 56.256 37.5066 55.7186 35.4302C55.1812 33.3537 54.2619 31.412 53.0142 29.7178C51.7666 28.0236 50.2154 26.6109 48.451 25.5618Z" fill="#D5D5D5"/>
</svg>
