<svg width="56" height="56" viewBox="0 0 56 56" fill="none" xmlns="http://www.w3.org/2000/svg">
<path d="M51.5917 22.8839C52.8361 19.0815 52.4213 14.8642 50.4164 11.4074C47.3744 6.08395 41.2213 3.38765 35.2065 4.6321C32.5793 1.65926 28.7077 0 24.6979 0C18.5448 0 13.1522 3.94074 11.2164 9.74815C7.27564 10.5778 3.88799 12.9975 1.88305 16.5235C-1.15893 21.8469 -0.46757 28.4839 3.61144 33.0469C2.367 36.9185 2.85095 41.0667 4.85589 44.5235C7.89786 49.8469 14.051 52.6123 20.0658 51.2988C22.7621 54.2716 26.5645 56 30.5744 56C36.7275 56 42.1201 52.0593 44.0559 46.2519C47.9966 45.4222 51.3843 43.0025 53.3892 39.4765C56.4312 34.1531 55.7398 27.4469 51.5917 22.8839ZM30.5744 52.3358C28.0855 52.3358 25.7349 51.5062 23.8682 49.916C23.9374 49.8469 24.1448 49.7778 24.2139 49.7086L35.3448 43.279C35.8979 42.9333 36.2435 42.3802 36.2435 41.6889V25.9951L40.9448 28.6914C41.0139 28.6914 41.0139 28.7605 41.0139 28.8296V41.8272C41.083 47.6346 36.3818 52.3358 30.5744 52.3358ZM8.03613 42.7259C6.79169 40.5827 6.37687 38.0938 6.79169 35.6741C6.86083 35.7432 6.9991 35.8123 7.13737 35.8815L18.2682 42.3111C18.8213 42.6568 19.5127 42.6568 20.0658 42.3111L33.6855 34.4296V39.8914C33.6855 39.9605 33.6855 40.0296 33.6164 40.0296L22.3472 46.5284C17.3695 49.4321 10.9398 47.7037 8.03613 42.7259ZM5.13243 18.3901C6.37687 16.2469 8.31268 14.6568 10.5942 13.758V27.0321C10.5942 27.6543 10.9398 28.2765 11.4929 28.6222L25.1127 36.5037L20.4114 39.2C20.3423 39.2 20.2732 39.2691 20.2732 39.2L9.00403 32.7012C3.88799 29.7975 2.22873 23.3679 5.13243 18.3901ZM43.8485 27.3778L30.2287 19.4963L34.93 16.8C34.9991 16.8 35.0682 16.7309 35.0682 16.8L46.3374 23.2988C51.3843 26.2025 53.0435 32.6321 50.1398 37.6099C48.8954 39.7531 46.9596 41.3432 44.6781 42.1728V28.9679C44.7472 28.3457 44.4016 27.7235 43.8485 27.3778ZM48.4806 20.3259C48.4114 20.2568 48.2732 20.1877 48.1349 20.1185L37.004 13.6889C36.4509 13.3432 35.7596 13.3432 35.2065 13.6889L21.5868 21.5704V16.1086C21.5868 16.0395 21.5868 15.9704 21.6559 15.9704L32.925 9.47161C37.9719 6.5679 44.3324 8.2963 47.2361 13.3432C48.4806 15.4173 48.8954 17.9062 48.4806 20.3259ZM19.0287 30.0049L14.3275 27.3086C14.2584 27.3086 14.2584 27.2395 14.2584 27.1704V14.1728C14.2584 8.36543 18.9596 3.6642 24.767 3.6642C27.2559 3.6642 29.6065 4.49383 31.4732 6.08395C31.404 6.15309 31.2658 6.22222 31.1275 6.29136L19.9966 12.721C19.4435 13.0667 19.0979 13.6198 19.0979 14.3111V30.0049H19.0287ZM21.5868 24.4741L27.6707 20.9481L33.7547 24.4741V31.4568L27.6707 34.9827L21.5868 31.4568V24.4741Z" fill="white"/>
</svg>
