<svg width="76" height="42" viewBox="0 0 76 42" fill="none" xmlns="http://www.w3.org/2000/svg">
<path d="M24.6149 19.0434L1.79189 6.98081C1.77105 6.95998 1.72939 6.95998 1.70855 6.95998C0.875217 6.56416 0.0210473 7.39748 0.33355 8.23083L11.9628 37.8914L11.9648 37.8976C11.9773 37.9269 11.9878 37.9559 12.0003 37.9851C12.4773 39.0914 13.519 39.7746 14.6524 40.0434C14.7482 40.0644 14.8167 40.0831 14.9318 40.1061C15.0463 40.1316 15.2065 40.1664 15.344 40.1769C15.3669 40.1789 15.3878 40.1789 15.4107 40.1809H15.4274C15.444 40.1831 15.4607 40.1831 15.4774 40.1851H15.5003C15.5149 40.1871 15.5315 40.1871 15.5461 40.1871H15.5732C15.5899 40.1894 15.6065 40.1894 15.6232 40.1894C30.3512 41.7951 45.21 41.7951 59.938 40.1894C60.115 40.1894 60.288 40.1809 60.4545 40.1644C60.5087 40.1581 60.5607 40.1519 60.613 40.1456C60.6192 40.1434 60.6275 40.1434 60.6337 40.1414C60.6692 40.1371 60.7045 40.1309 60.74 40.1246C60.792 40.1184 60.8442 40.1081 60.8962 40.0976C61.0005 40.0746 61.0477 40.0581 61.1892 40.0093C61.3305 39.9608 61.5652 39.8759 61.712 39.8051C61.859 39.7344 61.9607 39.6664 62.0837 39.5894C62.2357 39.4934 62.3805 39.3954 62.5272 39.2854C62.5905 39.2369 62.6337 39.2059 62.6795 39.1621L62.6545 39.1476L24.6149 19.0434Z" fill="#FF4B4B"/>
<path d="M73.7718 6.98111H73.751L50.9195 19.0437L63.6112 37.9459L75.2113 8.23111V8.18946C75.503 7.31443 74.6073 6.52278 73.7718 6.98111Z" fill="#7D353B"/>
<path d="M38.9797 1.24551C38.3962 0.393424 37.1255 0.393424 36.563 1.24551L24.6149 19.0434L62.6795 39.1621C62.836 39.0089 62.9617 38.8596 63.0942 38.7019C63.2817 38.4706 63.4567 38.2229 63.611 37.9456L38.9797 1.24551Z" fill="#BD4043"/>
</svg>
