<svg width="64" height="40" viewBox="0 0 64 40" fill="none" xmlns="http://www.w3.org/2000/svg">
<path d="M63.699 1.42585H62.6102C61.264 1.42585 59.9958 2.0535 59.1773 3.12179L48.0333 17.6948L36.8893 3.12179C36.0733 2.0535 34.8039 1.42585 33.459 1.42585H32.3702L46.4232 19.802L32.0692 38.5726H33.158C34.5042 38.5726 35.7723 37.9449 36.5895 36.8767L48.0346 21.9104L59.4796 36.8767C60.2969 37.9449 61.565 38.5726 62.9112 38.5726H64L49.646 19.802L63.699 1.42585ZM27.2696 31.1971C23.9981 36.1683 17.5576 38.7161 11.4002 36.4693C5.98319 34.4929 2.56184 29.1079 2.56184 23.3412V21.9206H32.0231V16.6253C32.0231 8.29288 25.8516 0.998025 17.555 0.217943C8.03522 -0.677422 0 6.81854 0 16.1565V23.295C0 30.1749 4.11817 36.5705 10.5919 38.9005C19.0499 41.944 27.9459 37.4018 30.9535 29.6061H30.1363C28.9693 29.6061 27.91 30.2223 27.2696 31.1971ZM2.56184 16.1565C2.56184 8.73992 8.59499 2.70677 16.0115 2.70677C23.4281 2.70677 29.4612 8.73992 29.4612 16.1565V19.3588H2.56184V16.1565Z" fill="#B9B9B9"/>
</svg>
