<svg width="91" height="36" viewBox="0 0 91 36" fill="none" xmlns="http://www.w3.org/2000/svg">
<path d="M12.5991 31.7362C11.0537 30.6123 9.50826 29.3478 8.38433 27.8025C6.13648 24.9926 4.3101 21.7613 3.04568 18.2491C2.34323 16.0012 2.06225 13.6129 1.07881 11.5055C0.0953749 9.96012 1.2193 8.27424 2.90519 7.71227C3.60764 7.57178 5.01255 6.86933 3.32666 7.43129C1.92175 8.55522 1.78126 6.44786 3.18617 6.30736C4.16961 6.16687 4.59108 5.32393 4.16961 4.62148C3.04568 3.91902 6.83893 3.07608 4.87206 2.09264C2.90519 -0.0147189 7.54139 -0.436192 6.41746 1.95215C6.13648 3.77853 9.64875 1.67117 8.8058 3.77853C10.0702 4.76197 12.4586 3.91902 12.3181 5.32393C13.5825 5.46442 14.004 6.44785 15.1279 6.44785C16.2518 7.00982 18.4997 7.43129 18.9211 8.69571C17.6567 9.81963 14.9874 7.00982 14.8469 9.53865C15.2684 13.3319 15.1279 17.2656 16.5328 20.9184C17.2352 23.1663 18.7806 24.8521 20.1856 26.538C21.5905 28.2239 23.4168 29.3478 25.3837 30.3313C27.0696 31.1742 28.896 31.5957 30.7224 32.0172C31.4248 31.4552 32.8297 29.3478 33.9537 30.1908C33.9537 31.1742 31.7058 32.2982 33.8132 32.1577C35.0776 31.7362 35.9205 33.1411 37.0444 31.8767C38.0279 33.0006 41.1187 31.1742 40.4162 33.5626C39.4328 34.1245 38.1684 33.8436 37.1849 34.6865C35.6395 33.984 34.3751 35.389 32.6892 35.2485C30.7224 35.5294 28.896 35.6699 26.9291 35.6699C23.8383 35.3889 20.607 35.2485 17.5162 34.265C15.8303 33.7031 14.1445 32.7196 12.5991 31.7362ZM15.2684 32.8601C16.9543 33.5626 18.4997 34.265 20.326 34.546C23.1359 34.9675 26.2267 35.5294 29.0365 34.9675C27.7721 34.4055 26.3671 35.2485 25.1027 34.546C23.5573 34.827 21.8714 34.4055 20.326 34.265C18.4997 33.4221 16.5328 32.8601 14.8469 31.8767C12.7395 31.1742 15.9708 32.8601 16.5328 33.0006C17.7972 33.7031 15.1279 32.5791 14.7064 32.2982C13.5825 31.7362 13.442 31.8767 14.5659 32.4386C14.8469 32.7196 15.1279 32.8601 15.2684 32.8601ZM12.1776 30.7528C13.723 31.3147 12.1776 29.6288 11.4751 29.7693C11.1941 29.2074 10.2107 28.7859 10.9132 28.5049C9.78924 28.9264 9.64875 26.9595 9.08678 27.2405C7.82237 26.819 8.66531 25.4141 7.11991 24.5712C6.97942 23.7282 5.71501 22.8853 5.29353 21.6209C5.01255 20.9184 3.74813 18.9515 4.59108 20.7779C5.29353 22.6043 6.41746 24.0092 7.54139 25.5546C8.38433 26.9595 9.22727 28.5049 10.6322 29.3478C11.0537 29.9098 11.4751 30.6123 12.1776 30.7528ZM19.2021 33.7031C19.9046 34.1245 22.9954 34.546 21.0285 33.8436C20.7475 33.984 17.3757 32.8601 19.2021 33.7031ZM11.8966 27.8025C12.5991 28.3644 14.9874 27.9429 13.0205 27.381C12.1776 26.9595 10.2107 26.538 11.4751 27.662L11.8966 27.8025ZM15.6898 29.7693C17.5162 30.3313 14.1445 28.6454 15.2684 29.6288L15.5494 29.7693H15.6898ZM18.9211 31.5957C17.3757 31.4552 20.7475 31.7362 18.9211 31.5957V31.5957ZM15.6898 28.7859C17.0948 28.9264 14.004 27.8024 15.4089 28.6454L15.6898 28.7859ZM20.4665 31.7362C21.731 31.0337 21.3095 33.5626 22.5739 32.0172C23.8383 31.0337 21.45 33.1411 22.9954 32.1577C24.1193 31.4552 25.8052 32.5791 26.9291 32.8601C27.6316 32.8601 28.4745 33.5626 29.177 33.1411C30.7224 32.7196 26.2267 32.5791 27.3506 31.7362C25.9457 32.1577 24.9622 31.3147 24.2598 30.3313C22.7144 29.9098 20.888 29.2074 20.0451 27.8025C19.7641 27.2405 20.4665 27.9429 19.7641 26.9595C18.7806 26.1166 18.3592 25.1331 17.6567 24.1497C16.9543 23.7282 16.8138 22.6043 16.6733 24.1497C16.6733 23.1663 15.8303 22.4638 15.5494 22.7448C15.5494 21.7613 16.5328 22.3233 15.8303 21.6209C15.6898 20.6374 15.1279 19.654 14.9874 18.5301C14.7064 17.9681 14.9874 16.8442 14.1445 18.1086C14.2849 19.373 14.5659 16.5632 14.9874 17.4061C15.5494 16.4227 14.8469 16.5632 14.7064 16.7037C15.1279 15.8607 14.9874 14.7368 14.5659 15.1583C14.7064 14.3153 14.8469 12.0675 14.2849 12.489C14.7064 11.646 14.9874 8.41473 13.442 9.67914C12.7395 9.67914 11.7561 9.96012 11.1941 10.1006C12.88 10.9436 11.0537 10.3816 10.3512 10.2411C10.2107 11.084 9.64875 10.6626 8.8058 10.6626C10.0702 10.8031 8.10335 12.0675 7.40089 11.5055C6.41746 11.927 8.24384 13.1914 7.40089 13.4724C7.54139 14.0344 5.8555 13.3319 5.99599 14.5963C5.01255 14.1748 5.8555 16.1417 6.27697 15.4393C7.82237 15.8607 7.40089 16.8442 7.40089 17.8276C7.11991 18.3896 6.13648 16.5632 7.11991 16.5632C6.27697 15.1583 6.13648 16.0012 5.43402 16.7037C5.29353 16.7037 7.2604 17.5466 5.99599 17.9681C7.11991 18.1086 7.11991 19.092 7.2604 19.654C7.96286 20.3564 7.82237 18.9515 8.52482 19.654C8.10335 18.9515 5.99599 17.6871 7.68188 18.1086C7.68188 17.4061 7.4009 16.8442 7.96286 16.8442C8.52482 15.8607 7.4009 19.092 8.52482 17.9681C9.22727 17.9681 9.22727 17.2656 9.78924 18.2491C10.6322 19.092 10.0702 19.654 8.94629 18.9515C9.08678 19.654 10.4917 19.935 10.2107 21.0589C10.4917 22.0423 10.9132 21.6209 11.1941 21.6209C11.4751 22.6043 11.6156 21.9018 11.6156 21.4804C12.7395 21.7613 12.4586 22.4638 12.88 22.8853C13.723 23.3067 11.7561 20.3564 13.161 22.0423C14.7064 23.4472 13.723 24.0092 12.3181 23.7282C13.161 23.7282 13.442 24.8521 14.4254 24.8521C15.4089 25.2736 15.9708 27.1 14.4254 26.3975C13.8635 25.8356 11.7561 25.2736 13.442 26.2571C14.9874 26.9595 16.2518 27.381 17.6567 28.2239C18.7806 28.9264 19.2021 29.9098 19.6236 30.0503C18.7806 30.4718 16.9543 29.7693 18.2187 29.4883C17.3757 29.3478 16.3923 28.9264 17.2352 29.9098C17.9377 30.4718 19.6236 30.4718 19.9046 30.4718C19.6236 31.0337 19.2021 31.0337 19.9046 31.1742C19.3426 31.3147 20.326 31.4552 20.4665 31.7362ZM18.7806 27.1C18.3592 26.538 18.2187 25.6951 18.6402 26.3975C19.0616 26.538 19.6236 27.9429 18.7806 27.1ZM15.6898 21.9018C15.1279 20.6374 16.1113 21.1994 15.8303 22.1828L15.6898 21.9018ZM10.3512 18.3896C10.0702 17.9681 9.64875 16.7037 9.78924 16.2822C9.92973 16.8442 11.0537 18.9515 10.3512 17.1252C9.50826 15.5798 11.3346 17.6871 11.4751 17.9681C11.6156 18.3896 10.9132 17.8276 11.3346 18.811C10.6322 17.8276 11.0537 19.373 10.3512 18.3896ZM7.68188 16.0012C7.11991 15.4393 6.55795 14.8773 7.68188 15.5798C8.10335 15.5798 6.69844 14.3153 7.82237 15.1583C8.8058 15.4393 8.24384 16.9847 7.68188 16.0012ZM7.96286 15.1583C6.13648 13.6129 10.2107 16.0012 8.24384 15.4393L7.96286 15.1583ZM13.161 18.1086C12.3181 17.6871 13.0205 14.8773 13.161 16.7037C13.8635 16.4227 13.161 17.6871 13.723 17.6871C13.5825 18.5301 13.3015 18.811 13.161 18.1086ZM8.38433 14.5963C7.2604 13.0509 11.7561 16.1417 9.08678 15.0178C8.8058 14.8773 8.52482 14.8773 8.38433 14.5963ZM12.0371 16.5632C11.8966 15.1583 12.1776 16.7037 12.0371 16.5632V16.5632ZM8.52482 14.0344C9.22727 13.8939 11.3346 15.2988 9.36777 14.4558C9.08678 14.1748 8.66531 14.1748 8.52482 14.0344ZM14.4254 16.9847C14.5659 15.5798 14.8469 16.1417 14.4254 17.1252V16.9847ZM9.08678 13.4724C9.36777 13.0509 8.38433 11.646 9.22727 12.9104C9.64875 13.1914 10.3512 13.4724 9.64875 13.6129C10.6322 14.4558 9.36777 13.8939 9.08678 13.4724ZM13.0205 13.6129C12.88 13.0509 13.3015 14.3153 13.0205 13.6129V13.6129ZM13.442 12.7699C13.0205 12.208 13.8635 9.96012 14.004 11.365C13.5825 12.3485 13.8635 12.9104 14.1445 11.646C14.7064 10.5221 14.004 13.7534 13.442 12.7699ZM14.9874 28.0834C15.9708 28.3644 15.9708 27.9429 15.1279 27.8025C14.5659 27.381 13.0205 26.819 14.4254 27.8025C14.4254 27.9429 14.8469 27.9429 14.9874 28.0834ZM11.3346 25.6951C11.8966 26.1166 13.442 26.819 12.1776 25.8356C12.5991 25.2736 11.3346 24.9926 11.7561 24.7117C10.6322 24.0092 10.9132 24.1497 11.6156 24.1497C10.3512 23.5877 11.7561 23.5877 11.7561 23.3067C11.1941 23.1663 9.22727 22.4638 10.4917 23.3067C9.22727 22.7448 10.0702 23.5877 9.78924 23.4472C8.52482 23.1663 10.9132 24.4307 9.64875 24.0092C10.3512 24.5712 11.4751 25.4141 9.92973 24.5712C9.64875 24.9926 11.0537 25.4141 11.3346 25.6951ZM24.1193 33.1411C24.6813 32.5791 24.1193 33.984 24.9622 33.0006C24.9622 32.2982 24.9622 31.8767 23.9788 32.7196C23.6978 32.8601 23.5573 33.5626 24.1193 33.1411ZM15.2684 27.5215C15.8303 28.0834 18.0782 27.9429 15.9708 27.5215C15.6898 27.1 14.1445 27.2405 15.2684 27.5215ZM25.6647 33.5626C24.6813 33.7031 26.6481 32.5791 25.6647 33.5626V33.5626ZM5.43402 20.7779C4.59108 19.5135 4.87206 18.9515 4.02912 17.9681C3.88863 17.1252 2.62421 15.4393 3.32666 17.2656C4.16961 18.3896 4.3101 20.0755 5.43402 20.7779ZM26.3671 33.4221C27.2101 32.8601 26.2267 32.8601 26.2267 33.4221H26.3671ZM27.9125 33.8436C29.0365 33.0006 27.2101 33.7031 27.6316 33.984L27.9125 33.8436ZM8.38433 21.3399C9.22727 21.4804 11.7561 23.4472 10.3512 21.4804C9.50826 21.1994 10.0702 19.373 9.22727 19.654C9.78924 20.4969 9.64875 20.9184 8.52482 20.3564C7.11991 19.654 7.68188 20.6374 7.96286 20.9184C7.54139 21.1994 8.38433 21.3399 8.38433 21.3399ZM4.45059 18.3896C4.59108 17.8276 3.04568 14.8773 3.74813 16.9847C3.88863 17.4061 3.88863 18.1086 4.45059 18.3896ZM22.0119 28.9264C21.3095 28.9264 21.8714 28.5049 22.0119 28.9264V28.9264ZM31.1438 33.1411C31.9868 33.0006 33.9536 33.5626 34.2346 32.8601C33.2512 32.8601 30.7224 32.1577 30.5819 33.0006H30.8629L31.1438 33.1411ZM4.87206 14.7368C5.71501 14.4558 3.32666 14.0344 4.73157 14.7368H4.87206ZM2.20274 11.7865C2.06225 10.9436 2.06225 9.39816 3.60764 9.81963C1.64077 10.2411 5.01255 12.208 4.59108 10.6626C5.43402 10.6626 6.27697 10.2411 5.71501 10.9436C7.40089 10.8031 8.52482 9.39816 10.0702 9.53865C11.3346 9.39816 12.5991 9.25767 14.004 8.69571C15.1279 8.55522 16.1113 7.43129 15.5494 6.72884C14.004 6.58835 12.4586 6.72884 10.9132 7.15031C9.08678 7.57178 7.40089 8.27423 5.57451 8.55521C3.74813 8.8362 5.99599 9.25767 5.43402 9.25767C4.45059 9.53865 6.55795 9.81963 5.29353 10.1006C4.59108 9.96012 3.74813 9.67914 4.02912 8.8362C2.20274 9.25767 0.797829 9.96012 2.20274 11.7865ZM6.27697 9.67914C6.69844 8.13374 8.38433 10.9436 6.97942 9.81963C6.83893 9.67914 6.41746 9.53865 6.27697 9.67914ZM7.11991 8.97669C7.11991 8.27423 8.8058 9.39816 7.40089 9.25767L7.11991 8.97669ZM8.38433 8.41473C8.94629 7.71227 11.8966 7.99325 9.78924 8.27423C9.22727 7.85276 8.8058 8.55522 8.38433 8.41473ZM13.161 7.71227C13.5825 6.72884 14.7064 7.2908 13.3015 7.57178C13.3015 7.71227 13.3015 8.13375 13.161 7.71227ZM4.59108 13.1914C3.46715 12.489 5.71501 12.489 4.59108 13.1914V13.1914ZM37.8874 33.1411C38.8708 33.1411 40.6972 32.8601 38.7303 32.8601C38.4494 32.8601 36.904 32.8601 37.8874 33.1411ZM6.27697 12.9104C6.97942 12.9104 7.40089 12.0675 6.13648 12.0675C4.16961 11.927 7.96286 12.7699 5.8555 12.489C5.57451 12.7699 6.27697 13.0509 6.27697 12.9104ZM5.15304 7.00982C6.41746 6.58835 8.24384 6.02638 8.94629 7.2908C8.24384 6.58835 8.66531 5.7454 9.22727 6.86933C10.0702 7.99325 10.4917 6.30736 9.92973 6.02638C10.4917 6.86933 11.3346 7.15031 10.3512 6.02638C11.3346 4.76197 8.38433 6.16687 7.68188 6.16687C7.4009 6.30736 4.3101 7.00982 5.15304 7.00982ZM5.99599 5.60491C6.69844 5.04295 8.66531 5.88589 7.40089 5.04295C7.2604 4.90246 4.73157 5.7454 5.99599 5.60491ZM8.66531 5.7454C9.50826 5.7454 8.24384 4.62147 9.36777 5.04295C9.22727 4.48098 8.10335 4.34049 7.68188 4.2C7.4009 4.62148 8.24384 5.7454 8.66531 5.7454ZM7.54139 3.49755C8.94629 3.35706 7.11991 2.93559 7.2604 3.49755H7.54139ZM5.43402 1.81166C4.45059 0.547243 7.2604 2.09264 6.27697 0.687735C5.43402 -0.0147189 4.59108 1.39019 5.43402 1.81166ZM18.3592 8.69571C18.7806 7.85276 16.3923 7.57178 18.0782 8.41473C18.2187 8.55522 18.2187 8.8362 18.3592 8.69571Z" fill="url(#paint0_linear_150_319)"/>
<path d="M40.1352 3.07608C39.9948 3.77853 39.8543 4.76197 39.8543 6.30737C39.8543 6.58835 39.7138 6.72884 39.4328 6.72884C39.1518 6.72884 39.0113 6.58835 38.8708 6.30737C38.5898 5.60491 38.3089 5.04295 38.0279 4.76197C37.7469 4.48099 37.3254 4.2 36.7635 4.2C36.2015 4.05951 34.7966 4.05951 32.6892 4.05951C32.1273 4.05951 31.8463 4.05951 31.7058 4.2C31.5653 4.2 31.5653 4.48098 31.5653 4.62148V11.2245C31.5653 11.5055 31.7058 11.5055 31.9868 11.5055C32.8297 11.5055 34.0941 11.5055 35.78 11.365C36.061 11.365 36.342 11.2245 36.4825 11.0841C36.623 10.9436 36.7635 10.5221 36.7635 9.81963C36.7635 9.39816 37.0444 9.25767 37.4659 9.39816C37.7469 9.39816 37.8874 9.67914 37.8874 9.81963C37.6064 11.0841 37.4659 12.9104 37.6064 15.0178C37.6064 15.2988 37.4659 15.4393 37.1849 15.4393C36.904 15.4393 36.7635 15.2988 36.623 15.0178C36.342 13.7534 35.9205 13.1914 35.2181 13.0509C34.5156 12.9104 33.3917 12.9104 31.8463 12.9104C31.7058 12.9104 31.5653 12.9104 31.5653 13.0509V19.654C31.5653 20.0755 31.7058 20.4969 32.1273 20.6374C32.4082 20.7779 32.9702 20.9184 33.9536 21.0589C34.3751 21.0589 34.6561 21.3399 34.5156 21.6209C34.5156 21.9018 34.0941 22.0423 33.2512 22.0423C31.0033 21.9018 29.0365 21.9018 27.4911 22.0423C27.0696 22.0423 26.9291 21.9018 26.9291 21.4804C26.9291 21.1994 27.0696 21.0589 27.4911 21.0589C28.4745 20.9184 28.896 20.0755 28.896 18.5301V6.02638C28.896 5.32393 28.7555 4.90246 28.615 4.48098C28.334 4.2 27.9125 3.77853 27.3506 3.49755C26.9291 3.35706 26.7886 3.07608 26.9291 2.7951C26.9291 2.65461 27.0696 2.51411 27.2101 2.51411C27.3506 2.51411 27.6316 2.51411 27.9125 2.51411C28.4745 2.6546 30.0199 2.65461 32.2678 2.65461C34.9371 2.65461 37.3254 2.6546 39.1518 2.51411C39.8543 2.7951 40.1352 2.79509 40.1352 3.07608Z" fill="url(#paint1_linear_150_319)"/>
<path d="M49.6886 21.6209C49.6886 22.0423 49.4076 22.1828 48.9862 22.1828C47.5813 22.0423 46.0359 22.0423 44.069 22.1828C43.6475 22.1828 43.3665 22.1828 43.3665 22.1828C43.226 22.1828 43.226 21.9018 43.226 21.7613C43.226 21.4804 43.507 21.3399 44.069 21.1994C44.6309 21.0589 44.9119 20.4969 44.9119 19.7945V6.58835C44.9119 5.7454 44.7714 5.18344 44.631 4.90246C44.35 4.48099 44.069 4.2 43.3665 4.05951C43.0855 3.91902 42.9451 3.77853 42.9451 3.63804C42.9451 3.35706 43.226 3.07608 43.6475 2.93559C44.35 2.6546 45.0524 2.37362 45.7549 1.95215C46.3168 1.67117 46.7383 1.39019 46.8788 1.39019C47.3003 1.39019 47.4408 1.67117 47.4408 2.09264C47.4408 2.09264 47.4408 2.51412 47.4408 3.49755C47.4408 4.48099 47.4408 5.46442 47.4408 6.30737V19.373C47.4408 19.935 47.5813 20.3564 47.8622 20.6374C48.1432 20.9184 48.7052 21.0589 49.4076 21.1994C49.4076 21.1994 49.6886 21.3399 49.6886 21.6209Z" fill="url(#paint2_linear_150_319)"/>
<path d="M62.8947 20.6374C62.8947 20.7779 62.4733 21.1994 61.7708 21.6209C61.0684 22.0423 60.3659 22.1828 59.9444 22.1828C59.523 22.1828 59.242 22.0423 58.961 21.6209C58.68 21.1994 58.399 21.0589 58.399 21.0589C58.2585 21.0589 57.8371 21.1994 56.9941 21.6209C56.1512 22.0423 55.3082 22.1828 54.4653 22.1828C53.6224 22.1828 53.0604 21.9018 52.4984 21.4804C51.9365 20.9184 51.6555 20.216 51.6555 19.373C51.6555 17.6871 53.6224 16.4227 57.4156 15.7202C58.1181 15.5798 58.399 15.2988 58.399 14.8773V13.8939C58.399 12.3485 57.6966 11.5055 56.2917 11.5055C55.8702 11.5055 55.4487 11.927 55.1678 12.6294C54.7463 13.3319 54.3248 13.7534 53.6224 13.8939C52.7794 14.0344 52.3579 13.6129 52.3579 12.9104C52.3579 12.489 52.9199 11.927 54.1843 11.2245C55.4487 10.5221 56.5727 10.2411 57.8371 10.2411C59.8039 10.2411 60.7874 11.2245 60.7874 13.0509V19.092C60.7874 19.654 61.0684 20.0755 61.6303 20.0755C61.7708 20.0755 61.9113 20.0755 62.1923 19.935C62.4733 19.935 62.6138 19.7945 62.7543 19.7945C62.7543 20.0755 62.8947 20.216 62.8947 20.6374ZM58.399 17.4061C58.399 17.1252 58.399 16.9847 58.2585 16.9847C58.1181 16.8442 57.9776 16.8442 57.6966 16.9847C55.3082 17.2656 54.1843 17.9681 54.1843 19.092C54.1843 20.2159 54.7463 20.7779 56.0107 20.7779C56.4322 20.7779 56.9941 20.6374 57.5561 20.4969C58.1181 20.2159 58.399 20.0755 58.399 19.7945V17.4061Z" fill="url(#paint3_linear_150_319)"/>
<path d="M73.853 18.9515C73.853 19.935 73.4316 20.7779 72.7291 21.3399C71.8862 21.9018 70.9027 22.1828 69.4978 22.1828C68.6549 22.1828 67.6714 22.0423 66.8285 21.9018C65.9855 21.7613 65.5641 21.6209 65.4236 21.4804C65.2831 21.3399 65.2831 20.6374 65.2831 19.5135C65.2831 18.9515 65.4236 18.6705 65.5641 18.6705C65.8451 18.6705 65.9855 18.811 66.126 19.092C66.8285 20.3564 68.0929 21.0589 69.6383 21.0589C71.0432 21.0589 71.7457 20.6374 71.7457 19.654C71.7457 19.2325 71.6052 18.9515 71.3242 18.6705C71.0432 18.3896 70.3408 17.9681 69.3573 17.5466C67.9524 16.9847 66.969 16.4227 66.5475 15.8607C65.9855 15.2988 65.8451 14.7368 65.8451 13.7534C65.8451 12.7699 66.2665 11.927 67.1095 11.365C67.8119 10.8031 68.7954 10.5221 70.0598 10.5221C70.9027 10.5221 71.6052 10.5221 72.1671 10.6626C72.8696 10.8031 73.2911 10.9436 73.2911 11.084C73.4315 11.646 73.572 12.3485 73.7125 13.4724C73.7125 13.6129 73.572 13.7534 73.2911 13.7534C73.0101 13.7534 72.7291 13.7534 72.5886 13.6129C71.8862 12.3485 70.9027 11.7865 69.6383 11.7865C68.3739 11.7865 67.6714 12.208 67.6714 13.0509C67.6714 13.4724 67.8119 13.8939 68.2334 14.1748C68.5144 14.4558 69.3573 14.7368 70.4812 15.2988C71.7457 15.8607 72.5886 16.2822 73.0101 16.7037C73.572 17.2656 73.853 17.9681 73.853 18.9515Z" fill="url(#paint4_linear_150_319)"/>
<path d="M90.7119 21.4804C90.7119 21.7613 90.4309 22.0423 90.0095 22.0423C89.307 22.0423 88.4641 22.0423 87.3401 22.1828C86.7782 22.3233 86.3567 22.1828 86.2162 22.0423C84.6708 20.3564 83.4064 18.6706 82.2825 16.8442C82.142 16.7037 82.142 16.5632 82.0015 16.5632C81.861 16.5632 81.58 16.7037 81.1585 16.9847C80.7371 17.2656 80.4561 17.5466 80.4561 18.1086C80.4561 18.3896 80.4561 18.9515 80.4561 19.5135C80.4561 20.0755 80.5966 20.4969 80.8776 20.7779C81.0181 20.9184 81.58 21.0589 82.2825 21.0589C82.7039 21.0589 82.9849 21.3399 82.9849 21.6209C82.9849 21.9018 82.9849 22.0423 82.8444 22.0423C82.7039 22.0423 82.5635 22.0423 82.2825 22.0423C81.299 21.9018 79.6131 22.0423 77.3653 22.1828C76.8033 22.1828 76.5223 22.1828 76.3819 21.9018C76.3819 21.9018 76.3819 21.7613 76.3819 21.6209C76.3819 21.3399 76.6628 21.0589 77.2248 20.9184C77.7868 20.7779 78.0677 20.216 78.0677 19.092V6.30737C78.0677 5.46442 77.9273 4.90246 77.7868 4.62148C77.5058 4.2 77.0843 3.91902 76.3819 3.63804C76.1009 3.49755 75.9604 3.35706 75.9604 3.21657C75.9604 2.93559 76.2414 2.65461 76.6628 2.51411C77.3653 2.23313 78.0677 1.95215 78.7702 1.53068C79.3322 1.2497 79.6131 0.968716 79.7536 0.968716C80.1751 0.968716 80.3156 1.2497 80.3156 1.67117C80.3156 1.67117 80.3156 2.09264 80.3156 3.07608C80.3156 3.77853 80.3156 4.76197 80.3156 5.88589V15.0178C80.3156 15.2988 80.3156 15.4393 80.4561 15.4393C80.5966 15.4393 80.8776 15.2988 81.1585 15.0178C82.0015 14.4558 82.9849 13.6129 84.1088 12.489C84.3898 12.208 84.3898 12.0675 84.3898 11.927C84.3898 11.646 83.9684 11.5055 83.2659 11.365C82.9849 11.365 82.7039 11.0841 82.8444 10.8031C82.8444 10.5221 82.9849 10.3816 83.4064 10.3816C84.1088 10.5221 85.0923 10.5221 86.4972 10.5221C87.4806 10.5221 88.3236 10.5221 89.307 10.5221C89.588 10.5221 89.7285 10.6626 89.7285 11.0841C89.7285 11.365 89.4475 11.646 89.026 11.646C88.3236 11.646 87.6211 11.7865 86.9187 12.208C85.9352 12.6294 84.9518 13.3319 83.9684 14.4558C83.8279 14.4558 83.8279 14.5963 83.8279 14.7368C83.8279 14.8773 83.9684 15.1583 84.3898 15.7202C85.6543 17.5466 86.7782 18.9515 87.7616 19.935C88.4641 20.4969 89.1665 20.7779 89.7285 20.7779C90.15 20.7779 90.4309 20.7779 90.5714 20.9184C90.7119 21.0589 90.7119 21.3399 90.7119 21.4804Z" fill="url(#paint5_linear_150_319)"/>
<defs>
<linearGradient id="paint0_linear_150_319" x1="45.6896" y1="-4.12126" x2="45.6896" y2="34.2215" gradientUnits="userSpaceOnUse">
<stop stop-color="#6DC7FF"/>
<stop offset="1" stop-color="#E6ABFF"/>
</linearGradient>
<linearGradient id="paint1_linear_150_319" x1="46.0052" y1="-5.08036" x2="46.0052" y2="36.6462" gradientUnits="userSpaceOnUse">
<stop stop-color="#1A6DFF"/>
<stop offset="1" stop-color="#C822FF"/>
</linearGradient>
<linearGradient id="paint2_linear_150_319" x1="44.0057" y1="-2.84109" x2="44.0057" y2="36.3481" gradientUnits="userSpaceOnUse">
<stop stop-color="#1A6DFF"/>
<stop offset="1" stop-color="#C822FF"/>
</linearGradient>
<linearGradient id="paint3_linear_150_319" x1="45.8582" y1="-31.3846" x2="45.8582" y2="36.8507" gradientUnits="userSpaceOnUse">
<stop stop-color="#1A6DFF"/>
<stop offset="1" stop-color="#C822FF"/>
</linearGradient>
<linearGradient id="paint4_linear_150_319" x1="44.8119" y1="-33.0003" x2="44.8119" y2="36.8792" gradientUnits="userSpaceOnUse">
<stop stop-color="#1A6DFF"/>
<stop offset="1" stop-color="#C822FF"/>
</linearGradient>
<linearGradient id="paint5_linear_150_319" x1="83.3827" y1="-0.475495" x2="83.3827" y2="22.5818" gradientUnits="userSpaceOnUse">
<stop stop-color="#1A6DFF"/>
<stop offset="1" stop-color="#C822FF"/>
</linearGradient>
</defs>
</svg>
