<svg width="57" height="56" viewBox="0 0 57 56" fill="none" xmlns="http://www.w3.org/2000/svg">
<path d="M28.7119 56C44.1759 56 56.7119 43.464 56.7119 28C56.7119 12.536 44.1759 0 28.7119 0C13.2479 0 0.711914 12.536 0.711914 28C0.711914 43.464 13.2479 56 28.7119 56Z" fill="url(#paint0_linear_174_498)"/>
<path d="M21.6388 16.6873H17.3496V39.3836H21.6388V16.6873Z" fill="white"/>
<path d="M40.0459 16.588H35.8559V37.2893H40.0459V16.588Z" fill="url(#paint1_linear_174_498)"/>
<path d="M46.8465 47.9976L43.139 49.4108L17.3496 16.6873H22.3383L46.8465 47.9976Z" fill="url(#paint2_linear_174_498)"/>
<defs>
<linearGradient id="paint0_linear_174_498" x1="28.7119" y1="56" x2="28.7119" y2="0" gradientUnits="userSpaceOnUse">
<stop stop-color="#0A070A"/>
<stop offset="0.465" stop-color="#2B2B2B"/>
<stop offset="1" stop-color="#4B4B4B"/>
</linearGradient>
<linearGradient id="paint1_linear_174_498" x1="28.7214" y1="65.4958" x2="28.7214" y2="9.49582" gradientUnits="userSpaceOnUse">
<stop offset="0.377" stop-color="white" stop-opacity="0"/>
<stop offset="0.666" stop-color="white" stop-opacity="0.3"/>
<stop offset="0.988" stop-color="white"/>
</linearGradient>
<linearGradient id="paint2_linear_174_498" x1="26.0193" y1="24.3719" x2="46.6766" y2="51.4525" gradientUnits="userSpaceOnUse">
<stop offset="0.296" stop-color="white"/>
<stop offset="0.521" stop-color="white" stop-opacity="0.5"/>
<stop offset="0.838" stop-color="white" stop-opacity="0"/>
</linearGradient>
</defs>
</svg>
