<svg width="81" height="32" viewBox="0 0 81 32" fill="none" xmlns="http://www.w3.org/2000/svg">
<path d="M29.3852 11.9975L21.2069 16.5225C20.9002 16.6909 20.7119 17.0042 20.7119 17.3425V26.3975C20.7119 26.7359 20.9002 27.0475 21.2069 27.2175L29.3869 31.7459C29.6919 31.9142 30.0702 31.9142 30.3752 31.7459L38.5536 27.2175C38.8569 27.0475 39.0452 26.7359 39.0452 26.3975V17.3425C39.0452 17.0042 38.8569 16.6925 38.5502 16.5225L30.3736 11.9975C30.2202 11.9125 30.0486 11.8709 29.8786 11.8709C29.7069 11.8709 29.5369 11.9125 29.3836 11.9975M71.4636 20.1492L70.1002 20.9025C70.0486 20.9309 70.0186 20.9825 70.0186 21.0392V22.5492C70.0186 22.6059 70.0502 22.6575 70.1002 22.6859L71.4636 23.4409C71.5152 23.4692 71.5769 23.4692 71.6286 23.4409L72.9919 22.6859C73.0419 22.6575 73.0736 22.6059 73.0736 22.5492V21.0392C73.0736 20.9825 73.0419 20.9309 72.9902 20.9025L71.6269 20.1492C71.6019 20.1342 71.5736 20.1275 71.5452 20.1275C71.5169 20.1275 71.4886 20.1342 71.4636 20.1492Z" fill="#388E3C"/>
<path d="M60.2969 2.40088L56.3152 0.179209C56.1902 0.109209 56.0369 0.110876 55.9136 0.184209C55.7902 0.257542 55.7136 0.389208 55.7136 0.532542L55.7119 13.9525L52.0402 11.9209C51.8869 11.8359 51.7152 11.7942 51.5452 11.7942C51.3752 11.7942 51.2036 11.8359 51.0502 11.9209H51.0519L42.8736 16.4459C42.5669 16.6142 42.3786 16.9275 42.3786 17.2642V26.3192C42.3786 26.6575 42.5669 26.9692 42.8736 27.1392L51.0536 31.6675C51.3586 31.8359 51.7369 31.8359 52.0419 31.6675L60.2202 27.1392C60.5236 26.9709 60.7119 26.6575 60.7119 26.3192V3.10754C60.7119 2.81421 60.5519 2.54421 60.2969 2.40088ZM55.4886 24.2242L51.7719 26.2825C51.6336 26.3592 51.4619 26.3592 51.3236 26.2825L47.6052 24.2242C47.4636 24.1475 47.3786 24.0042 47.3786 23.8509V19.7342C47.3786 19.5809 47.4636 19.4392 47.6036 19.3609L51.3219 17.3042C51.3919 17.2659 51.4669 17.2475 51.5452 17.2475C51.6236 17.2475 51.7002 17.2675 51.7702 17.3042L55.4869 19.3609C55.6269 19.4392 55.7119 19.5825 55.7119 19.7359V23.8525C55.7119 24.0042 55.6269 24.1475 55.4886 24.2242Z" fill="#83939C"/>
<path d="M29.3852 11.9975L20.7119 26.3975C20.7119 26.7359 20.9002 27.0475 21.2069 27.2175L29.3869 31.7459C29.6919 31.9142 30.0702 31.9142 30.3752 31.7459L39.0452 17.3425C39.0452 17.0042 38.8569 16.6925 38.5502 16.5225L30.3736 11.9975C30.2202 11.9125 30.0486 11.8709 29.8786 11.8709C29.7069 11.8709 29.5369 11.9125 29.3836 11.9975" fill="#2E7D32"/>
<path d="M29.3852 11.9975L21.2069 16.5225C20.9002 16.6909 20.7119 17.0042 20.7119 17.3425L29.3852 31.7459C29.6902 31.9142 30.0686 31.9142 30.3736 31.7459L38.5519 27.2175C38.8569 27.0475 39.0452 26.7359 39.0452 26.3975L30.3736 11.9975C30.2202 11.9125 30.0486 11.8709 29.8786 11.8709C29.7069 11.8709 29.5369 11.9125 29.3836 11.9975" fill="#4CAF50"/>
<path d="M80.2169 16.4459L72.0402 11.9209C71.8869 11.8359 71.7152 11.7942 71.5452 11.7942C71.3752 11.7942 71.2036 11.8359 71.0502 11.9209L62.8736 16.4459C62.5686 16.6142 62.3786 16.9342 62.3786 17.2842V26.3025C62.3786 26.6509 62.5686 26.9725 62.8736 27.1409L71.0536 31.6692C71.3603 31.8392 71.7352 31.8392 72.0419 31.6692L75.8136 29.5809C76.1586 29.3892 76.1569 28.8942 75.8102 28.7042L67.6036 24.2259C67.4652 24.1475 67.3786 24.0025 67.3786 23.8459V19.7359C67.3786 19.5825 67.4619 19.4409 67.5952 19.3675L71.3202 17.3075H71.3186C71.3886 17.2692 71.4652 17.2509 71.5436 17.2509C71.6219 17.2509 71.6986 17.2709 71.7686 17.3075L75.4936 19.3692C75.6269 19.4425 75.7102 19.5842 75.7102 19.7375V23.0909C75.7102 23.2342 75.7869 23.3675 75.9119 23.4392C76.0369 23.5092 76.1902 23.5092 76.3152 23.4375L80.3119 21.1159C80.5586 20.9725 80.7119 20.7075 80.7119 20.4209V17.2875C80.7119 16.9359 80.5219 16.6142 80.2169 16.4459ZM18.5502 16.4459L10.3736 11.9209C10.2202 11.8359 10.0486 11.7942 9.87858 11.7942C9.70858 11.7942 9.53691 11.8359 9.38358 11.9209L1.20691 16.4459C0.901914 16.6142 0.711914 16.9342 0.711914 17.2842V29.7259C0.711914 29.8692 0.788581 30.0025 0.913581 30.0742C1.03858 30.1442 1.19191 30.1442 1.31691 30.0725L5.31358 27.7509C5.56025 27.6075 5.71191 27.3425 5.71191 27.0559V19.7342C5.71191 19.5809 5.79525 19.4392 5.92858 19.3659L9.65358 17.3059C9.72358 17.2675 9.80025 17.2492 9.87858 17.2492C9.95691 17.2492 10.0336 17.2692 10.1036 17.3059L13.8286 19.3675C13.9619 19.4409 14.0452 19.5825 14.0452 19.7359V27.0575C14.0452 27.3442 14.1969 27.6092 14.4452 27.7525L18.4419 30.0742C18.5669 30.1459 18.7202 30.1459 18.8452 30.0759C18.9686 30.0025 19.0452 29.8692 19.0452 29.7259V17.2859C19.0452 16.9359 18.8552 16.6142 18.5502 16.4459Z" fill="#83939C"/>
</svg>
