<svg width="63" height="56" viewBox="0 0 63 56" fill="none" xmlns="http://www.w3.org/2000/svg">
<path d="M31.356 33.7102C34.5096 33.7102 37.0662 31.1537 37.0662 28C37.0662 24.8463 34.5096 22.2898 31.356 22.2898C28.2023 22.2898 25.6458 24.8463 25.6458 28C25.6458 31.1537 28.2023 33.7102 31.356 33.7102Z" fill="#61DAFB"/>
<path d="M53.0447 18.5832C51.9427 18.1825 50.7907 17.7818 49.5885 17.4311C49.8891 16.229 50.1395 15.0268 50.3399 13.8748C51.3918 7.26297 50.2397 2.60465 47.034 0.801431C46.0823 0.250447 45.0304 0 43.8283 0C40.322 0 35.864 2.60465 31.356 6.96243C26.8479 2.60465 22.39 0 18.8837 0C17.6816 0 16.6297 0.250447 15.678 0.801431C12.4723 2.65474 11.3202 7.31306 12.3721 13.8748C12.5725 15.0268 12.8229 16.229 13.1234 17.4311C11.9213 17.7818 10.7692 18.1324 9.66726 18.5832C3.40608 20.9875 0 24.2934 0 28C0 31.7066 3.45617 35.0125 9.66726 37.4168C10.7692 37.8175 11.9213 38.2183 13.1234 38.5689C12.8229 39.771 12.5725 40.9732 12.3721 42.1252C11.3202 48.737 12.4723 53.3954 15.678 55.1986C16.6297 55.7496 17.6816 56 18.8837 56C22.4401 56 26.898 53.3954 31.356 49.0376C35.864 53.3954 40.322 56 43.8283 56C45.0304 56 46.0823 55.7496 47.034 55.1986C50.2397 53.3453 51.3918 48.6869 50.3399 42.1252C50.1395 40.9732 49.8891 39.771 49.5885 38.5689C50.7907 38.2183 51.9427 37.8676 53.0447 37.4168C59.3059 35.0125 62.712 31.7066 62.712 28C62.712 24.2934 59.3059 20.9875 53.0447 18.5832ZM45.6315 3.3059C47.6851 4.50805 48.3864 8.21467 47.5349 13.4741C47.3846 14.5259 47.1342 15.6279 46.8336 16.78C44.229 16.1789 41.4741 15.7782 38.5689 15.5277C36.8658 13.1234 35.1127 10.9696 33.3596 9.0161C37.0662 5.35957 40.8229 2.8551 43.8783 2.8551C44.5295 2.8551 45.1306 3.00537 45.6315 3.3059ZM40.0215 33.0089C39.1199 34.6118 38.068 36.2147 36.966 37.8175C35.1127 37.9678 33.2594 38.0179 31.356 38.0179C29.4025 38.0179 27.5492 37.9678 25.746 37.8175C24.644 36.2147 23.6422 34.6118 22.7406 33.0089C21.7889 31.356 20.8873 29.653 20.0859 28C20.8873 26.347 21.7889 24.644 22.7406 22.9911C23.6422 21.3882 24.6941 19.7853 25.7961 18.1825C27.6494 18.0322 29.5027 17.9821 31.4061 17.9821C33.3596 17.9821 35.2129 18.0322 37.0161 18.1825C38.1181 19.7853 39.1199 21.3882 40.0215 22.9911C40.9732 24.644 41.8748 26.347 42.6762 28C41.8247 29.653 40.9732 31.3059 40.0215 33.0089ZM44.1789 31.356C44.9302 33.1091 45.5313 34.8122 46.0823 36.5152C44.3792 36.9159 42.576 37.2165 40.6726 37.4669C41.2737 36.5152 41.9249 35.5134 42.4758 34.4615C43.0769 33.4097 43.6279 32.3578 44.1789 31.356ZM31.356 44.9302C30.1538 43.6279 29.0018 42.2254 27.8998 40.7728C29.0519 40.8229 30.2039 40.873 31.356 40.873C32.508 40.873 33.6601 40.8229 34.8122 40.7728C33.7102 42.2254 32.5581 43.6279 31.356 44.9302ZM22.0394 37.4168C20.136 37.1664 18.3327 36.8658 16.6297 36.4651C17.1807 34.8122 17.7817 33.059 18.5331 31.3059C19.0841 32.3077 19.6351 33.3596 20.2361 34.3614C20.8372 35.4633 21.4383 36.415 22.0394 37.4168ZM18.5331 24.644C17.7817 22.8909 17.1807 21.1878 16.6297 19.4848C18.3327 19.0841 20.136 18.7835 22.0394 18.5331C21.4383 19.4848 20.7871 20.4866 20.2361 21.5385C19.6351 22.5903 19.0841 23.6422 18.5331 24.644ZM31.356 11.0698C32.5581 12.3721 33.7102 13.7746 34.8122 15.2272C33.6601 15.1771 32.508 15.127 31.356 15.127C30.2039 15.127 29.0519 15.1771 27.8998 15.2272C29.0018 13.7746 30.1538 12.3721 31.356 11.0698ZM42.4758 21.5886L40.6726 18.5832C42.576 18.8336 44.3792 19.1342 46.0823 19.5349C45.5313 21.1878 44.9302 22.941 44.1789 24.6941C43.6279 23.6422 43.0769 22.5903 42.4758 21.5886ZM15.1771 13.4741C14.3256 8.21467 15.0268 4.50805 17.0805 3.3059C17.5814 3.00537 18.1825 2.8551 18.8336 2.8551C21.839 2.8551 25.5957 5.30948 29.3524 9.0161C27.5993 10.9195 25.8461 13.1234 24.1431 15.5277C21.2379 15.7782 18.483 16.229 15.8784 16.78C15.5778 15.6279 15.3775 14.5259 15.1771 13.4741ZM2.80501 28C2.80501 25.6458 5.66011 23.1413 10.6691 21.288C11.6708 20.8873 12.7728 20.5367 13.8748 20.2361C14.6762 22.7406 15.678 25.3953 16.8801 28.0501C15.678 30.7048 14.6261 33.3095 13.8748 35.814C6.96243 33.8104 2.80501 30.805 2.80501 28ZM17.0805 52.6941C15.0268 51.492 14.3256 47.7853 15.1771 42.5259C15.3274 41.4741 15.5778 40.3721 15.8784 39.22C18.483 39.8211 21.2379 40.2218 24.1431 40.4723C25.8461 42.8766 27.5993 45.0304 29.3524 46.9839C25.6458 50.6404 21.8891 53.1449 18.8336 53.1449C18.1825 53.1449 17.5814 52.9946 17.0805 52.6941ZM47.5349 42.5259C48.3864 47.7853 47.6851 51.492 45.6315 52.6941C45.1306 52.9946 44.5295 53.1449 43.8783 53.1449C40.873 53.1449 37.1163 50.6905 33.3596 46.9839C35.1127 45.0805 36.8658 42.8766 38.5689 40.4723C41.4741 40.2218 44.229 39.771 46.8336 39.22C47.1342 40.3721 47.3345 41.4741 47.5349 42.5259ZM52.0429 34.712C51.0411 35.1127 49.9392 35.4633 48.8372 35.7639C48.0358 33.2594 47.034 30.6047 45.8318 27.9499C47.034 25.2952 48.0859 22.6905 48.8372 20.186C55.7495 22.1896 59.907 25.195 59.907 28C59.907 30.3542 57.0018 32.8587 52.0429 34.712Z" fill="#61DAFB"/>
</svg>
