<svg width="56" height="56" viewBox="0 0 56 56" fill="none" xmlns="http://www.w3.org/2000/svg">
<path d="M28 0C12.5603 0 0 12.5603 0 28C0 43.4397 12.5603 56 28 56C43.4373 56 56 43.4397 56 28C56 12.5603 43.4373 0 28 0ZM28 2.66933C41.9883 2.66933 53.3307 14.0093 53.3307 28C53.3307 41.9883 41.9907 53.3307 28 53.3307C14.0093 53.3307 2.66933 41.9907 2.66933 28C2.66933 14.0093 14.0093 2.66933 28 2.66933ZM19.53 13.692C19.201 13.6855 18.8718 13.6894 18.543 13.7037C16.2493 13.8343 14.8727 14.91 14.4947 17.1383C14.2263 18.69 14.2707 20.2837 14.161 21.8447C14.1307 22.6613 14.0443 23.471 13.8927 24.2667C13.58 25.6877 12.9663 26.1287 11.522 26.2033C11.3308 26.2271 11.1408 26.2598 10.9527 26.3013V29.715C13.58 29.8433 13.9347 30.7697 14.1493 33.516C14.2263 34.517 14.119 35.518 14.1843 36.519C14.2263 37.4663 14.3547 38.4043 14.5483 39.319C15.1527 41.8273 17.598 42.6673 20.5567 42.161V39.1673C20.083 39.1673 19.663 39.179 19.2547 39.1673C18.2513 39.137 17.8757 38.8873 17.78 37.919C17.6493 36.6707 17.682 35.399 17.605 34.139C17.4557 31.8033 17.1967 29.5003 14.9147 28.014C16.0883 27.1507 16.94 26.1193 17.2083 24.752C17.402 23.7953 17.521 22.8363 17.5957 21.8657C17.661 20.8973 17.542 19.9057 17.6283 18.949C17.7683 17.3973 17.8663 16.7627 19.7283 16.8257C20.0083 16.8257 20.2767 16.786 20.5893 16.7627V13.706C20.216 13.706 19.866 13.6967 19.53 13.692ZM37.247 13.713C36.6116 13.6987 35.9764 13.7456 35.35 13.853V16.8257C35.9217 16.8257 36.3627 16.8257 36.8037 16.8373C37.569 16.8467 38.15 17.1407 38.227 17.99C38.3017 18.7647 38.2993 19.551 38.3763 20.3373C38.528 21.8983 38.612 23.4803 38.8827 25.0203C39.1207 26.2897 39.991 27.237 41.0783 28.014C39.172 29.295 38.612 31.1243 38.5163 33.1823C38.4627 34.5917 38.43 36.0127 38.3553 37.4337C38.29 38.7263 37.8373 39.1463 36.5353 39.179C36.169 39.1883 35.812 39.221 35.406 39.2443V42.2893C36.169 42.2893 36.869 42.3337 37.569 42.2893C39.7437 42.161 41.0573 41.1063 41.489 38.9947C41.671 37.8327 41.7783 36.6613 41.811 35.4853C41.8857 34.4097 41.8763 33.3223 41.9837 32.256C42.1447 30.5877 42.91 29.8993 44.5783 29.7897C44.7365 29.7703 44.8921 29.7343 45.0427 29.6823V26.2687C44.7627 26.236 44.5667 26.2057 44.3637 26.194C43.113 26.1403 42.4877 25.7203 42.1773 24.5373C41.9838 23.7784 41.865 23.0024 41.8227 22.2203C41.7363 20.7783 41.7457 19.3247 41.65 17.8803C41.4633 15.099 39.7973 13.79 37.247 13.713ZM21.1703 26.033C20.6644 26.0324 20.1777 26.2266 19.8111 26.5752C19.4445 26.9238 19.2261 27.4001 19.2012 27.9054C19.1763 28.4107 19.3468 28.9061 19.6774 29.2891C20.0079 29.6721 20.4732 29.9131 20.9767 29.9623H21.105C21.6177 29.9923 22.1213 29.8174 22.505 29.4761C22.8888 29.1348 23.1213 28.655 23.1513 28.1423V28.035C23.1594 27.5129 22.9601 27.0088 22.597 26.6335C22.2339 26.2582 21.7368 26.0422 21.2147 26.033H21.1703ZM27.9627 26.033C27.4634 26.0166 26.978 26.1991 26.6131 26.5404C26.2482 26.8816 26.0337 27.3537 26.0167 27.853C26.0167 27.916 26.0167 27.9697 26.026 28.035C26.026 29.2087 26.824 29.9623 28.0303 29.9623C29.2133 29.9623 29.9577 29.1877 29.9577 27.972C29.946 26.7983 29.1597 26.0213 27.9627 26.033ZM34.8763 26.033C34.3478 26.0236 33.8369 26.2228 33.4543 26.5875C33.0717 26.9522 32.8482 27.453 32.8323 27.9813C32.8323 29.078 33.7143 29.9623 34.8133 29.9623H34.8343C35.826 30.135 36.8247 29.176 36.89 28.0257C36.9437 26.9593 35.9753 26.033 34.8763 26.033Z" fill="#E3E3E3"/>
</svg>
