<svg width="57" height="56" viewBox="0 0 57 56" fill="none" xmlns="http://www.w3.org/2000/svg">
<path d="M56.27 27.7012C56.3659 21.7802 55.0319 14.7393 52.2528 6.47821L50.0739 0L47.1141 6.16C46.9557 6.48933 46.775 6.81171 46.5861 7.12993C41.7239 2.95563 35.4152 0.416873 28.5035 0.416873C13.1542 0.416873 0.711914 12.8592 0.711914 28.2084C0.711914 43.5577 13.1542 56 28.5035 56C43.8528 56 56.295 43.5577 56.295 28.2084C56.295 28.0375 56.2728 27.8722 56.27 27.7012Z" fill="#8BC34A"/>
<path d="M49.8821 40.1004C45.5425 46.0784 37.8609 46.3994 30.6309 46.273H18.5152C24.6682 44.0594 28.3298 43.5327 32.0691 41.5484C39.1115 37.8452 46.0733 29.7425 47.5226 21.3134C44.8407 29.4229 36.7131 36.3903 29.3067 39.2236C24.2319 41.1593 15.0663 43.038 15.0663 43.038L14.6952 42.8365C8.45603 39.6975 8.26705 25.7267 19.6102 21.2161C24.5765 19.2387 29.3275 20.3254 34.6927 19.0025C40.4205 17.5962 47.046 13.1551 49.7418 7.36476C52.76 16.6291 56.3923 31.1349 49.8821 40.1004ZM16.9255 48.2809C16.5337 48.7672 15.9347 49.0521 15.3094 49.0521C14.1658 49.0521 13.232 48.1114 13.232 46.9677C13.232 45.8241 14.1728 44.8834 15.3094 44.8834C15.7833 44.8834 16.2502 45.0473 16.617 45.3503C17.5064 46.0715 17.6453 47.3916 16.9255 48.2809Z" fill="white"/>
</svg>
