<svg width="71" height="56" viewBox="0 0 71 56" fill="none" xmlns="http://www.w3.org/2000/svg">
<path d="M69.7974 23.0089C68.058 21.838 63.4872 21.338 60.1641 22.233C59.9849 18.9231 58.2784 16.1339 55.1561 13.7002L54.0003 12.9244L53.23 14.0877C51.7158 16.3863 51.0778 19.4485 51.3039 22.2321C51.4822 23.9471 52.0789 25.875 53.23 27.2738C48.905 29.7825 44.9187 29.2131 27.264 29.2131H0.00611947C-0.0736259 33.1994 0.567151 40.8681 5.44381 47.1107C5.98233 47.8003 6.57338 48.4673 7.21416 49.11C11.1789 53.0804 17.1692 55.9915 26.1269 56C39.7925 56.0122 51.501 48.6259 58.6227 30.7657C60.9663 30.8042 67.1526 31.186 70.1801 25.3356C70.2542 25.237 70.9504 23.7838 70.9504 23.7838L69.7964 23.0079L69.7974 23.0089ZM17.795 19.3631H10.13V27.028H17.795V19.3631ZM27.6974 19.3631H20.0325V27.028H27.6974V19.3631ZM37.5999 19.3631H29.935V27.028H37.5999V19.3631ZM47.5024 19.3631H39.8375V27.028H47.5024V19.3631ZM7.89246 19.3631H0.22753V27.028H7.89246V19.3631ZM17.795 9.68202H10.13V17.347H17.795V9.68202ZM27.6974 9.68202H20.0325V17.347H27.6974V9.68202ZM37.5999 9.68202H29.935V17.347H37.5999V9.68202ZM37.5999 0H29.935V7.66493H37.5999V0Z" fill="#1D63ED"/>
</svg>
