<svg width="57" height="56" viewBox="0 0 57 56" fill="none" xmlns="http://www.w3.org/2000/svg">
<path d="M12.3811 0C18.857 0 24.107 5.24827 24.107 11.7229C24.107 18.0864 19.0344 23.2619 12.7117 23.4375C12.7117 23.9759 12.7354 24.9931 13.0401 25.6073C13.4629 26.4592 15.9985 28.0453 18.4852 28.0453H19.3786C19.94 24.0485 23.3722 20.9726 27.5247 20.9726C31.6605 20.9726 35.0826 24.0234 35.6647 27.9966H40.2867C40.869 24.0234 44.2909 20.9726 48.4267 20.9726C52.9711 20.9726 56.6552 24.6557 56.6552 29.1991C56.6552 33.7424 52.9711 37.4254 48.4267 37.4254C44.2909 37.4254 40.8688 34.3745 40.2867 30.4013H35.6649C35.0828 34.3745 31.6607 37.4254 27.5247 37.4254C23.3968 37.4254 19.9793 34.3863 19.3876 30.4239L18.3998 30.4534C16.7734 30.4412 15.0553 30.0069 13.6752 29.0692C13.299 28.8135 12.9283 28.5449 12.5417 28.2904L12.5416 28.8245C12.5395 28.9972 12.5083 31.5932 12.5058 34.4755L12.5057 35.0858C12.5069 36.9761 12.5219 38.9237 12.5664 40.3444C12.664 43.4609 15.199 45.9762 17.9963 46.5649C18.3599 46.6413 18.9851 46.6511 19.379 46.617C19.9414 42.6216 23.3732 39.547 27.5247 39.547C32.0692 39.547 35.7533 43.2302 35.7533 47.7735C35.7533 52.3168 32.0692 56 27.5247 56C23.4191 56 20.0166 52.9935 19.3976 49.0626H18.6859C13.3405 48.7709 10.0171 43.8681 10.0751 39.8919C10.1482 34.8875 10.0931 29.8811 10.0923 24.8755V23.2208C4.71222 22.1564 0.655273 17.4139 0.655273 11.7229C0.655273 5.24827 5.90506 0 12.3811 0ZM27.5247 41.9517C24.3089 41.9517 21.7017 44.5582 21.7017 47.7735C21.7017 50.9888 24.3089 53.5953 27.5247 53.5953C30.7408 53.5953 33.348 50.9888 33.348 47.7735C33.348 44.5582 30.7408 41.9517 27.5247 41.9517ZM27.5247 23.3774C24.3089 23.3774 21.7017 25.9839 21.7017 29.1991C21.7017 32.4142 24.3089 35.0207 27.5247 35.0207C30.7408 35.0207 33.348 32.4142 33.348 29.1991C33.348 25.9839 30.7408 23.3774 27.5247 23.3774ZM48.4267 23.3774C45.2106 23.3774 42.6036 25.9839 42.6036 29.1991C42.6036 32.4142 45.2106 35.0207 48.4267 35.0207C51.6428 35.0207 54.2499 32.4142 54.2499 29.1991C54.2499 25.9839 51.6428 23.3774 48.4267 23.3774ZM51.743 26.748C52.2012 27.2051 52.2139 27.9395 51.7803 28.4116L51.7452 28.4485L48.1776 32.0239C47.723 32.4796 46.9932 32.4948 46.5201 32.0672L46.4824 32.0315L44.7358 30.3121C44.2625 29.8462 44.2565 29.0849 44.7225 28.6118C45.1768 28.1507 45.9112 28.1333 46.3864 28.5637L46.4233 28.5988L47.3185 29.4797L50.0423 26.7502C50.5113 26.2799 51.2728 26.2791 51.743 26.748ZM30.7453 26.7304C31.2035 27.1874 31.2161 27.9219 30.7825 28.3942L30.7475 28.4309L27.1798 32.0063C26.7252 32.462 25.9954 32.4772 25.5223 32.0496L25.4846 32.0139L23.738 30.2945C23.2648 29.8286 23.2587 29.0673 23.7248 28.5942C24.1788 28.1331 24.9134 28.1157 25.3886 28.5463L25.4255 28.5812L26.3207 29.4621L29.0445 26.7326C29.5135 26.2624 30.275 26.2614 30.7453 26.7304ZM12.3811 2.40471C7.23359 2.40471 3.06058 6.57647 3.06058 11.7229C3.06058 16.8692 7.23359 21.0412 12.3811 21.0412C17.5287 21.0412 21.7017 16.8692 21.7017 11.7229C21.7017 6.57647 17.5287 2.40471 12.3811 2.40471ZM11.4113 6.15352C13.3723 7.33163 15.3067 8.55021 17.2149 9.80908C18.8135 10.8635 18.8095 12.7759 17.1931 13.8328C15.2508 15.1036 13.2777 16.3222 11.274 17.4885C9.64324 18.4378 7.81781 17.3462 7.77352 15.4445C7.74505 14.2189 7.76831 12.9921 7.7667 11.7657C7.7653 10.5726 7.74185 9.37884 7.77071 8.1863C7.81942 6.16334 9.68173 5.10928 11.4113 6.15352ZM10.1187 8.09412V8.94038C10.1185 9.3594 10.1185 9.77281 10.1183 10.1816L10.1181 12.1921C10.1183 13.1176 10.1187 14.0283 10.1203 14.9391C10.1211 15.3678 10.3442 15.3503 10.6328 15.1716C12.2965 14.1404 13.961 13.1103 15.6262 12.0813C15.9014 11.9116 15.9093 11.7342 15.6393 11.5639C13.8557 10.4399 12.0698 9.31972 10.1187 8.09412Z" fill="#4A7EBF"/>
<path d="M29.7987 48.9735C30.4628 48.9735 31.0014 48.4353 31.0014 47.7712C31.0014 47.1073 30.4628 46.5688 29.7987 46.5688C29.1346 46.5688 28.5961 47.1073 28.5961 47.7712C28.5961 48.4353 29.1346 48.9735 29.7987 48.9735Z" fill="#85B3DF"/>
<path d="M25.1944 48.9735C25.8585 48.9735 26.3971 48.4353 26.3971 47.7712C26.3971 47.1073 25.8585 46.5688 25.1944 46.5688C24.5303 46.5688 23.9918 47.1073 23.9918 47.7712C23.9918 48.4353 24.5303 48.9735 25.1944 48.9735Z" fill="#85B3DF"/>
<path d="M48.4267 53.5953C45.2106 53.5953 42.6037 50.9888 42.6037 47.7735C42.6037 44.5582 45.2106 41.9517 48.4267 41.9517C51.6426 41.9517 54.25 44.5582 54.25 47.7735C54.25 50.9888 51.6426 53.5953 48.4267 53.5953ZM48.4267 39.547C44.291 39.547 40.8688 42.598 40.2868 46.5711H38.941C38.3535 46.5711 37.8768 47.1096 37.8768 47.7735C37.8768 48.4376 38.3535 48.9759 38.941 48.9759H40.2868C40.8688 52.949 44.291 56 48.4267 56C52.9711 56 56.6553 52.3168 56.6553 47.7735C56.6553 43.2302 52.9711 39.547 48.4267 39.547Z" fill="#85B3DF"/>
</svg>
