<svg width="59" height="56" viewBox="0 0 59 56" fill="none" xmlns="http://www.w3.org/2000/svg">
<path fill-rule="evenodd" clip-rule="evenodd" d="M29.6897 1.50631e-05C15.598 -0.0143178 3.57943 10.2014 1.32317 24.1112C-0.933075 38.0211 7.24021 51.5121 20.6139 55.9528C22.059 56.2172 22.57 55.3184 22.57 54.5605C22.57 53.8027 22.57 52.0756 22.57 49.6789C14.5516 51.4238 12.8598 45.8194 12.8598 45.8194C12.3279 44.0826 11.1978 42.5904 9.67008 41.6077C7.07951 39.8454 9.88157 39.8454 9.88157 39.8454C11.7216 40.1053 13.3398 41.197 14.2697 42.8061C15.0572 44.2341 16.381 45.2894 17.9485 45.7393C19.516 46.1889 21.1981 45.9959 22.6229 45.2028C22.7335 43.753 23.3585 42.3904 24.3852 41.3611C18.0057 40.6385 11.309 38.1712 11.309 27.2626C11.2652 24.413 12.3189 21.6556 14.252 19.5614C13.3911 17.0837 13.4917 14.373 14.534 11.966C14.534 11.966 16.9483 11.1906 22.4291 14.909C27.1354 13.6168 32.1029 13.6168 36.8094 14.909C42.2902 11.1906 44.6869 11.966 44.6869 11.966C45.7437 14.3476 45.8693 17.0388 45.0392 19.5086C46.9723 21.6027 48.0261 24.3601 47.9824 27.2097C47.9824 38.2418 41.2681 40.656 34.8708 41.3081C36.2587 42.7032 36.9725 44.6323 36.8269 46.5949C36.8269 50.4369 36.8269 53.5384 36.8269 54.4723C36.8269 55.4063 37.338 56.1291 38.8007 55.8469C52.0156 51.2914 60.0286 37.8801 57.7779 24.0842C55.5273 10.2886 43.6673 0.119302 29.6897 1.50631e-05Z" fill="#EEEEEE"/>
</svg>
